<svg xmlns="http://www.w3.org/2000/svg" id="freepik_stories-webinar" class="animated" version="1.1" viewBox="0 0 750 500"><style>@keyframes shake{10%,90%{transform:translate3d(-1px,0,0)}20%,80%{transform:translate3d(2px,0,0)}30%,50%,70%{transform:translate3d(-4px,0,0)}40%,60%{transform:translate3d(4px,0,0)}}svg#freepik_stories-webinar:not(.animated) .animable{opacity:0}</style><g id="freepik--background-complete--inject-171" class="animable"><path id="el9d79p8blvm7" fill="#ebebeb" d="m682 304-13 1h-14v-12h28v6Zm0 0v-11h-13l-13 1v-1 11h13Z" class="animable" transform-origin="669.02px 298.585px"/><path id="elryfcgstcnx" fill="#ebebeb" d="m668 318-14 1h-13v-12h27v6Zm0 0-1-5v-6h1l-14 1h-13l1-1v11h-1 13Z" class="animable" transform-origin="654.31px 312.71px"/><path id="el11szyp5pg3i" fill="#ebebeb" d="m697 318-13 1h-14v-12h27v6Zm0 0v-11l-13 1h-13v-1 11h13Z" class="animable" transform-origin="683.79px 312.71px"/><path id="elarf4evl16gn" fill="#ebebeb" d="M350 116h-20l-7 1v-13h14l13 1v6Zm0 0v-11h-27 1v11h-1 14Z" class="animable" transform-origin="336.57px 110.46px"/><path id="elvo9hot6t5hs" fill="#ebebeb" d="M335 130h-13l-7 1h-7v-12h27v6Zm0 0v-11h-26v11h13Z" class="animable" transform-origin="321.75px 124.57px"/><path id="elxkvtb8tkimq" fill="#ebebeb" d="M365 130h-13l-7 1h-7v-12h27v6Zm0 0-1-5v-6h1-27 1v11h-1 13Z" class="animable" transform-origin="351.3px 124.57px"/><path id="elbbufu0vq8dq" fill="#ebebeb" d="M158 232h-27v-12h27v6Zm0 0v-11h-26v11-1h6l7 1Z" class="animable" transform-origin="144.705px 226.24px"/><path id="elw5qhd6ggxv" fill="#ebebeb" d="m682 62-13 1h-14V51h27v6Zm0 0V51l-13 1h-13v-1 11h13Z" class="animable" transform-origin="668.825px 56.76px"/><path id="elqf1m6jj7q5a" fill="#ebebeb" d="m697 76-13 1h-14V65h27v6Zm0 0V65v1h-27l1-1v11h-1 13Z" class="animable" transform-origin="683.57px 70.86px"/><path id="eluub72r3149" fill="#ebebeb" d="M79 357H52v-12h28l-1 6Zm0 0v-12 1H53v11-1h13Z" class="animable" transform-origin="66.01px 351.02px"/><path id="eljwy6rr2y0n9" fill="#ebebeb" d="M94 371H67v-12h27v6Zm0 0v-11H68v11-1h13Z" class="animable" transform-origin="80.775px 365.1px"/><path id="el1y9ozhn2yzd" fill="#ebebeb" d="m79 62-13 1H52V51h28v6Zm0 0V51l-13 1H53v-1 11h13Z" class="animable" transform-origin="66.04px 56.77px"/><path id="el34pa99v40o9" fill="#dbdbdb" d="M132 123a37 37 0 1 1-37-43v37Z" class="animable" transform-origin="94.75px 117.39px"/><path id="elp3be4w89059" fill="#ebebeb" d="M140 110a38 38 0 0 1-1 5l-36-5V73a37 37 0 0 1 37 37Z" class="animable" transform-origin="121.025px 94.06px"/><path id="ell1mlvv1d9cc" fill="#c7c7c7" d="M90 141h1v28h-1z" class="animable" transform-origin="90.17px 154.835px"/><path id="elfkn5d5c8ye8" fill="#c7c7c7" d="M90 175a3 3 0 1 1 3-4 3 3 0 0 1-3 4Zm0-6a2 2 0 1 0 2 2 2 2 0 0 0-2-2Z" class="animable" transform-origin="90.17px 171.39px"/><path id="el41a352zbe89" fill="#c7c7c7" d="M90 179h31v1H90z" class="animable" transform-origin="105.475px 180.11px"/><path id="elku21k4jluop" fill="#c7c7c7" d="M90 182h17v1H90z" class="animable" transform-origin="98.835px 182.88px"/><path id="elzvrrifss5v" fill="#ebebeb" d="M608 231h8v57h-8z" class="animable" transform-origin="612.235px 259.82px"/><path id="elkazbaiff9h" fill="#ebebeb" d="M622 245h8v43h-8z" class="animable" transform-origin="626.035px 266.735px"/><path id="el8vwhvgc8fjn" fill="#ebebeb" d="M636 267h8v22h-8z" class="animable" transform-origin="639.835px 277.565px"/><path id="elvld2ktnhl6n" fill="#ebebeb" d="M650 254h8v34h-8z" class="animable" transform-origin="653.635px 271.38px"/><path id="elc3g27m3txja" fill="#ebebeb" d="M663 241h8v47h-8z" class="animable" transform-origin="667.435px 264.885px"/><path id="el6w6gy2x88rc" fill="#ebebeb" d="M677 234h8v55h-8z" class="animable" transform-origin="681.235px 261.065px"/><path id="elm8ord0ukiz" fill="#ebebeb" d="M604 224v64h88-44l-22 1h-23v-49Z" class="animable" transform-origin="647.695px 256.27px"/><path id="el6yhwhdkwjzb" fill="#ebebeb" d="M602 227a6 6 0 0 1 2 0 6 6 0 0 1 1 0 6 6 0 0 1-1 0 6 6 0 0 1-2 0Z" class="animable" transform-origin="603.56px 227.215px"/><path id="elcd64wurfcfv" fill="#ebebeb" d="M602 232a7 7 0 0 1 3 0 7 7 0 0 1-3 0Z" class="animable" transform-origin="603.56px 232.11px"/><path id="elmjd5y9aie2g" fill="#ebebeb" d="M602 237a6 6 0 0 1 2 0 6 6 0 0 1 1 0 6 6 0 0 1-1 0 6 6 0 0 1-2 0Z" class="animable" transform-origin="603.56px 237.005px"/><path id="elkg95a7rzij9" fill="#ebebeb" d="M602 242a7 7 0 0 1 3 0 7 7 0 0 1-3 0Z" class="animable" transform-origin="603.56px 241.9px"/><path id="elhsgifsrk87q" fill="#ebebeb" d="M602 247a7 7 0 0 1 3 0 6 6 0 0 1-1 0 6 6 0 0 1-2 0Z" class="animable" transform-origin="603.56px 246.796px"/><path id="el5alwdit7i1" fill="#ebebeb" d="M602 252a7 7 0 0 1 3 0 7 7 0 0 1-3 0Z" class="animable" transform-origin="603.56px 251.69px"/><path id="el8mapumx9v5x" fill="#ebebeb" d="M602 257a7 7 0 0 1 3 0 7 7 0 0 1-3 0Z" class="animable" transform-origin="603.56px 256.585px"/><path id="el5bb2or3by9k" fill="#ebebeb" d="M602 261a7 7 0 0 1 3 0 7 7 0 0 1-3 0Z" class="animable" transform-origin="603.56px 261.475px"/><path id="elfhf7hqrtos4" fill="#ebebeb" d="M602 266a7 7 0 0 1 3 0 7 7 0 0 1-3 0Z" class="animable" transform-origin="603.56px 266.37px"/><path id="el7f0wm8pfqc4" fill="#ebebeb" d="M602 271a7 7 0 0 1 3 0 7 7 0 0 1-3 0Z" class="animable" transform-origin="603.56px 271.265px"/><path id="elunh5oop01xp" fill="#ebebeb" d="M602 276a7 7 0 0 1 3 0 7 7 0 0 1-3 0Z" class="animable" transform-origin="603.56px 276.16px"/><path id="elxhmxpssiqx" fill="#ebebeb" d="M602 281a6 6 0 0 1 2 0 6 6 0 0 1 1 0 6 6 0 0 1-1 0 6 6 0 0 1-2 0Z" class="animable" transform-origin="603.56px 281.055px"/><path id="elzoqpp9kgdy" fill="#ebebeb" d="M87 289a3 3 0 0 1 3 0h2a3 3 0 0 1 2 3v4h13v-4a3 3 0 0 1 2-3 17 17 0 0 0 2-1 3 3 0 0 1 3 0l4 2 6-12-4-2a3 3 0 0 1-1-3 19 19 0 0 0 0-2 3 3 0 0 1 1-3l4-2-7-12-4 2a3 3 0 0 1-3 0h-1l-1-1a3 3 0 0 1-2-3v-4l-14 1v4a3 3 0 0 1-1 3 18 18 0 0 0-2 1 3 3 0 0 1-3 0l-4-2-6 12 3 2a3 3 0 0 1 2 3 20 20 0 0 0 0 2 3 3 0 0 1-2 3l-3 2 7 12Zm3-22a11 11 0 1 1 5 15 11 11 0 0 1-5-15Z" class="animable" transform-origin="99.8px 272.345px"/><path id="elrdv2tt050oc" fill="#ebebeb" d="M645 108a2 2 0 0 1 2-1h1a2 2 0 0 1 2 1l1 2 7-4-1-2a2 2 0 0 1 0-2 11 11 0 0 0 0-1 2 2 0 0 1 2-1h2v-8h-2a2 2 0 0 1-2-1 11 11 0 0 0 0-1 2 2 0 0 1 0-2l1-2-7-4-1 2a2 2 0 0 1-2 1h-1a2 2 0 0 1-2-1l-1-2-7 4 1 2a2 2 0 0 1 0 2 10 10 0 0 0-1 1 2 2 0 0 1-2 1h-2v8h2a2 2 0 0 1 2 1 11 11 0 0 0 1 1 2 2 0 0 1 0 2l-1 2 7 4Zm-4-12a7 7 0 1 1 6 7 7 7 0 0 1-6-7Z" class="animable" transform-origin="647.18px 96.05px"/><path id="elcn7e9luyjji" fill="#ebebeb" d="M133 296a2 2 0 0 1 1 2v1c0 1 0 0 0 0a2 2 0 0 1-1 2l-2 1 4 7 2-1a2 2 0 0 1 2 0l1 1a2 2 0 0 1 1 1v3h8v-3a2 2 0 0 1 1-1 12 12 0 0 0 1-1 2 2 0 0 1 2 0l2 1 4-7-2-1a2 2 0 0 1-1-2v-1a2 2 0 0 1 1-2l2-1-4-7-2 1a2 2 0 0 1-2 0 11 11 0 0 0-1 0 2 2 0 0 1-1-2v-3h-8v3a2 2 0 0 1-1 2 10 10 0 0 0-1 0 2 2 0 0 1-2 0l-2-1-4 7Zm12-4a7 7 0 1 1-7 7 7 7 0 0 1 7-7Z" class="animable" transform-origin="144.855px 298.625px"/></g><g id="freepik--Table--inject-171" class="animable"><path id="elhud2qn2oap7" fill="#263238" d="m51 449 81-1h486l81 1H51z" class="animable" transform-origin="375px 448.735px"/></g><g id="freepik--Plant--inject-171" class="animable"><path id="elqsbfouqzds" fill="#263238" d="M72 333c19 19 22 48 18 73h-1v-18c-5-4-10-8-13-13l-7-20h1c12 8 16 17 19 30a102 102 0 0 0-2-19c-3-12-7-24-16-32l1-1Z" class="animable" transform-origin="80.4068px 369.755px"/><path id="elu73xh4f8mw" fill="#407bff" d="M68 335c-3 0-5 6-8 7h-4c-2-4 1-8 5-11l-7 3a2 2 0 0 1-3-1c-1-5 5-7 9-7-2-2-8-6-5-8s10 4 12 6c4 2 7 6 8 11 0 4-4 1-7 0Z" class="animable" transform-origin="62.6173px 330.448px"/><path id="el2wazyopney2" d="M68 335c-3 0-5 6-8 7h-4c-2-4 1-8 5-11l-7 3a2 2 0 0 1-3-1c-1-5 5-7 9-7-2-2-8-6-5-8s10 4 12 6c4 2 7 6 8 11 0 4-4 1-7 0Z" class="animable" opacity=".1" transform-origin="62.6173px 330.448px"/><path id="elu3ig7svtq2" fill="#407bff" d="M69 336c-4-2-12 1-13-1-1-3 5-5 9-5-4-1-10-3-10-6 1-4 10 0 14 3 6 5 6 9 5 10s-4-1-5-1Z" class="animable" transform-origin="65.1069px 329.935px"/><path id="el37xz1lamjhp" fill="#263238" d="M115 331c-20 18-24 47-21 72h1v-17l1-1c5-3 10-7 13-12l7-20h-1c-11 8-16 17-19 29a102 102 0 0 1 2-19c3-11 9-23 18-31l-1-1Z" class="animable" transform-origin="104.764px 367.542px"/><path id="el1tqb1frowux" fill="#407bff" d="M119 334c3 0 5 5 7 7 2 1 3 1 4-1 2-3-1-8-4-10 2 1 4 3 7 3a2 2 0 0 0 3-1c1-5-5-8-9-8 2-1 8-5 5-7s-10 3-12 5c-4 3-8 6-8 11 0 4 4 2 7 1Z" class="animable" transform-origin="124.032px 329.136px"/><path id="elugfpn6zf1l" d="M119 334c3 0 5 5 7 7 2 1 3 1 4-1 2-3-1-8-4-10 2 1 4 3 7 3a2 2 0 0 0 3-1c1-5-5-8-9-8 2-1 8-5 5-7s-10 3-12 5c-4 3-8 6-8 11 0 4 4 2 7 1Z" class="animable" opacity=".1" transform-origin="124.032px 329.136px"/><path id="elycsgh61iko" fill="#407bff" d="M118 334c4-1 12 2 13 0 1-3-5-5-9-6 4-1 10-2 10-5 0-4-10-1-15 2-6 5-6 9-5 10s5 0 6-1Z" class="animable" transform-origin="121.729px 328.32px"/><path id="eldl1ib0l2gak" fill="#263238" d="M95 379a194 194 0 0 1-6 28 1 1 0 0 1-2 0l5-26a131 131 0 0 0 2-27c-1-15-5-30-15-42h1c19 22 16 50 16 52 3-9 6-20 16-29h1c-2 17-7 26-17 36l-1 8Z" class="animable" transform-origin="95.9323px 359.608px"/><path id="el3x0dtx2ahsp" fill="#407bff" d="M79 315c-3-2-8 3-11 3-2 0-4-1-4-3-1-5 5-7 10-8h-9c-2-1-3-2-2-4 1-5 8-5 13-3-2-2-6-9-2-9s9 8 10 11c2 5 4 11 2 15-2 5-5 0-7-2Z" class="animable" transform-origin="74.9043px 304.954px"/><path id="elv007ttixfq" d="M79 315c-3-2-8 3-11 3-2 0-4-1-4-3-1-5 5-7 10-8h-9c-2-1-3-2-2-4 1-5 8-5 13-3-2-2-6-9-2-9s9 8 10 11c2 5 4 11 2 15-2 5-5 0-7-2Z" class="animable" opacity=".1" transform-origin="74.9043px 304.954px"/><path id="el9sxplk3od8" fill="#407bff" d="M80 316c-4-4-13-5-13-7 0-4 8-3 12-2-3-3-9-7-7-10 2-4 10 4 13 10 4 8 1 12 0 12-2 1-5-2-5-3Z" class="animable" transform-origin="76.776px 307.654px"/><path id="el21up2jqbpxp" fill="#407bff" d="m108 384 8 65H64l11-65Z" class="animable" transform-origin="90.175px 416.275px"/></g><g id="freepik--Device--inject-171" class="animable"><path id="el1yp16xtp04h" fill="#c7c7c7" d="M78 427h595v22H78z" class="animable" transform-origin="374.995px 437.905px"/><path id="elzbqa48swhfq" fill="#a6a6a6" d="M317 427h116v9H317z" class="animable" transform-origin="375px 431.48px"/><path id="elnvr47773ie" fill="#dbdbdb" d="M139 111h472v316H139z" class="animable" transform-origin="375.005px 269.205px"/><path id="eln3a8pdnngj" fill="#37474f" d="M142 115h465v308H142z" class="animable" transform-origin="374.995px 269.205px"/><path id="elopmcb6h8juq" fill="#fff" d="M163 135h424v268H163z" class="animable" transform-origin="375px 269.205px"/><path id="elhxqbko5pq9f" fill="#263238" d="M163 135h424v10H163z" class="animable" transform-origin="375px 140.165px"/><path id="elvizl2ytlatb" fill="#c7c7c7" d="M173 140a2 2 0 1 1-2-2 2 2 0 0 1 2 2Z" class="animable" transform-origin="170.76px 140.169px"/><path id="el2qu6l1h34qy" fill="#fff" d="M181 140a2 2 0 1 1-2-2 2 2 0 0 1 2 2Z" class="animable" transform-origin="178.74px 140.17px"/><path id="el9qr0g0c1k08" fill="#407bff" d="M189 140a2 2 0 1 1-2-2 2 2 0 0 1 2 2Z" class="animable" transform-origin="186.72px 140.169px"/><path id="el6ei2tsy7hl5" fill="#263238" d="M163 392h424v12H163z" class="animable" transform-origin="375px 397.495px"/><path id="elny44j235j4" fill="#fff" d="M556 396H190a1 1 0 1 0 0 2h367a1 1 0 1 0 0-2Z" class="animable" transform-origin="373.25px 397.35px"/><path id="el7al7rweca8s" fill="#407bff" d="M190 396a1 1 0 1 0 0 2h279v-2Z" class="animable" transform-origin="329.17px 397.35px"/><path id="elamawzjxpru" fill="#407bff" d="M467 397a2 2 0 1 1 2 3 2 2 0 0 1-2-3Z" class="animable" transform-origin="469.47px 397.34px"/><path id="el0t6nrb8av1xo" fill="#fff" d="M575 394v3h1v-2h2v-1h-3z" class="animable" transform-origin="576.735px 395.335px"/><path id="el65qslxlv4ju" fill="#fff" d="M582 394h-2v1h2v2h1v-3h-1z" class="animable" transform-origin="581.26px 395.335px"/><path id="el3dafxs86e5x" fill="#fff" d="M582 400h-2v1h3v-3h-1v2z" class="animable" transform-origin="581.26px 399.655px"/><path id="elkgpblgf330j" fill="#fff" d="M576 398h-1v3h3v-1h-2v-2z" class="animable" transform-origin="576.735px 399.655px"/><path id="elw51xkpxejq" fill="#fff" d="M167 394v7l5-4-5-3z" class="animable" transform-origin="169.75px 397.345px"/><path id="elhqs1qafs8l" fill="#fff" d="M175 397a1 1 0 0 1 1-1 1 1 0 0 1 1 1 1 1 0 0 1 0 1 1 1 0 0 1-1 1 1 1 0 0 1 0-1 1 1 0 0 1-1-1Zm2 0a1 1 0 0 0-1 0 1 1 0 0 0 0 1 1 1 0 0 0 1-1Z" class="animable" transform-origin="176.08px 397.445px"/><path id="elpanacmevlr" fill="#fff" d="M178 397a1 1 0 0 1 0-1 1 1 0 0 1 1 1 1 1 0 0 1 0 1 1 1 0 0 1-1 1 1 1 0 0 1 0-1 1 1 0 0 1 0-1Zm1 0h-1a1 1 0 0 0 0 1h1a1 1 0 0 0 0-1Z" class="animable" transform-origin="178.31px 397.445px"/><path id="el6zepad85ho7" fill="#fff" d="M180 397Zm0 1v1-1Z" class="animable" transform-origin="180.054px 397.705px"/><path id="elsmyv94w1vor" fill="#fff" d="M181 397a1 1 0 0 1 0-1 1 1 0 0 1 1 1 1 1 0 0 1 0 1 1 1 0 0 1-1 1 1 1 0 0 1 0-1 1 1 0 0 1 0-1Zm1 0h-1a1 1 0 0 0 0 1h1a1 1 0 0 0 0-1Z" class="animable" transform-origin="181.3px 397.445px"/><path id="el864zp8cwj7v" fill="#fff" d="M183 397a1 1 0 0 1 1-1 1 1 0 0 1 0 1 1 1 0 0 1 0 1 1 1 0 0 1 0 1 1 1 0 0 1-1-1 1 1 0 0 1 0-1Zm1 0h-1a1 1 0 0 0 0 1h1a1 1 0 0 0 0-1Z" class="animable" transform-origin="183.53px 397.445px"/><path id="el11wu0ctep18k" fill="#fff" d="M562 397a1 1 0 0 1 1 0 1 1 0 0 1 1 0 1 1 0 0 1 0 1 1 1 0 0 1-1 0 1 1 0 0 1-1-1Zm2 0h-1a1 1 0 0 0 0 1h1a1 1 0 0 0 0-1Z" class="animable" transform-origin="563.235px 397.446px"/><path id="elgodcu6ye07" fill="#fff" d="M566 397a1 1 0 0 1-1 2 1 1 0 0 1 0-1h1l-1-1v-1h1v1h-1a1 1 0 0 1 1 0Z" class="animable" transform-origin="565.405px 397.502px"/><path id="eltsw0edcjvr" fill="#fff" d="M567 397Zm0 1v1-1Z" class="animable" transform-origin="566.874px 397.705px"/><path id="el2d6b8tpa7sg" fill="#fff" d="M569 397a1 1 0 0 1 0 1 1 1 0 0 1-2 0h1v-2h1v1h-1a1 1 0 0 1 1 0Z" class="animable" transform-origin="568.067px 397.446px"/><path id="elujvoqvvlubo" fill="#fff" d="M570 397a1 1 0 0 1 1 1 1 1 0 0 1-1 1 1 1 0 0 1-1-1h1v-1h-1v-1h1l1 1h-1Z" class="animable" transform-origin="569.954px 397.501px"/><circle id="elriawd0i04j" cx="193.41" cy="176.12" r="15.1" fill="#c7c7c7" class="animable" transform-origin="193.41px 176.12px"/><path id="elspy34835ito" fill="#407bff" d="M202 189h-1a15 15 0 0 1-4 2l-1-1v-2l-1-1v-2c0-1 0 0 0 0a3 3 0 0 1 0-2 1 1 0 0 1 1 0 7 7 0 0 1 3 1 40 40 0 0 1 3 5Z" class="animable" transform-origin="198.543px 186.926px"/><path id="eli6eo2sl4mbb" d="M201 189a15 15 0 0 1-4 2l-1-2v-1l-1-1v-2a4 4 0 0 1 0-1 1 1 0 0 1 1-1l5 6Z" class="animable" opacity=".1" transform-origin="198.001px 186.945px"/><path id="el4r3nsepe284" fill="#407bff" d="M201 189a15 15 0 0 1-4 2 15 15 0 0 1-8 0v-1a15 15 0 0 1-3-1 24 24 0 0 1 2-4 7 7 0 0 1 2-2h1a5 5 0 0 1 3-1 5 5 0 0 1 2 1 28 28 0 0 1 5 6Z" class="animable" transform-origin="193.325px 186.659px"/><path id="elo2mse2zn7c" fill="#eb9481" d="m190 187-1 3a15 15 0 0 1-3-1 15 15 0 0 1-2-1l3-3a10 10 0 0 1 3-2 1 1 0 0 1 1 0 1 1 0 0 1 0 1 7 7 0 0 1-1 3Z" class="animable" transform-origin="187.57px 186.819px"/><path id="elfv23lsxrzdm" fill="#407bff" d="M191 184a8 8 0 0 1 0 3l-2 4v-1a15 15 0 0 1-3-1 15 15 0 0 1-2-1 33 33 0 0 1 4-4 7 7 0 0 1 2-1 1 1 0 0 1 1 0 1 1 0 0 1 0 1Z" class="animable" transform-origin="187.456px 186.757px"/><path id="elb2iwmko0xx5" fill="#eb9481" d="M191 184s2 3 5 2v-3l1-5-6-3v9Z" class="animable" transform-origin="193.775px 180.749px"/><path id="elgs3sp1236cf" fill="#263238" d="M191 178a9 9 0 0 0 5 4l1-4-6-3Z" class="animable" transform-origin="193.78px 178.805px"/><path id="eli1y4zqq911k" fill="#263238" d="M194 179c2 2 7 3 10 1a15 15 0 0 1-3-4 21 21 0 0 1 0-5v-2a7 7 0 0 0 0-2c-1-2-4-2-4-2-3 3-5 10-3 14Z" class="animable" transform-origin="198.451px 173.201px"/><path id="elsbux06r096p" fill="#263238" d="M195 177a6 6 0 0 0 3 4 7 7 0 0 0 5 0 6 6 0 0 1-5 0 6 6 0 0 1-3-4Z" class="animable" transform-origin="199.048px 179.017px"/><path id="el9tkatodks57" fill="#263238" d="M194 176a7 7 0 0 0 2 4 8 8 0 0 0 6 2 7 7 0 0 1-6-2 6 6 0 0 1-2-4Z" class="animable" transform-origin="197.653px 178.923px"/><path id="el8vonfkk3r2s" fill="#263238" d="M201 168a25 25 0 0 0 0 6 20 20 0 0 0 3 6 18 18 0 0 1-3-6 16 16 0 0 1-1-6h1Z" class="animable" transform-origin="202.072px 173.976px"/><path id="eliuxvfakcua" fill="#eb9481" d="M202 171c1 8-3 9-5 9-1 1-6 1-8-6s1-10 4-10 8 0 9 7Z" class="animable" transform-origin="195.16px 172.034px"/><path id="elbw1i2e3smg8" fill="#263238" d="M200 171a1 1 0 0 1-1 0v-1a1 1 0 0 1 1 0v1Z" class="animable" transform-origin="199.721px 170.364px"/><path id="el8bumol7mwgi" fill="#263238" d="M195 171a1 1 0 0 0 1 0 1 1 0 0 0-1-1 1 1 0 0 0 0 1Z" class="animable" transform-origin="195.262px 170.789px"/><path id="elpegd975kzqh" fill="#263238" d="M196 173v1-1Z" class="animable" transform-origin="195.959px 173.415px"/><path id="elgmrb7u6ohk" fill="#263238" d="M196 172v2-2Z" class="animable" transform-origin="195.585px 173.08px"/><path id="eldgskyjytbc" fill="#263238" d="M195 172v1l-1-1 1 1v-1Z" class="animable" transform-origin="194.9px 172.696px"/><path id="elje8krcy0d4o" fill="#263238" d="m199 173 1 1-1-1Z" class="animable" transform-origin="199.396px 173.155px"/><path id="el6lp2fwp526e" fill="#263238" d="M200 172v2-2Z" class="animable" transform-origin="199.672px 172.8px"/><path id="elpul5ogs8cz" fill="#263238" d="M200 172h1l-1 1v-1Z" class="animable" transform-origin="200.25px 172.298px"/><path id="elj2xtxygjs5" fill="#263238" d="M196 177h1a1 1 0 0 1-1 0Z" class="animable" transform-origin="196.82px 177.06px"/><path id="el2bqg0tq5ur2" fill="#263238" d="m198 175 1 1h-1a2 2 0 0 1-1 0v-1a3 3 0 0 0 1 1v-1a3 3 0 0 1 1 0l-1-5a25 25 0 0 1 1 5h-1Z" class="animable" transform-origin="198.041px 173.149px"/><path id="elrnmczqw62od" fill="#263238" d="M198 176a2 2 0 0 1-1 1v-1a2 2 0 0 0 1 0Z" class="animable" transform-origin="197.335px 176.049px"/><path id="el9oprfv1564" fill="#ff98b9" d="M197 177v-1a1 1 0 0 1 0 1Z" class="animable" transform-origin="197.01px 176.279px"/><path id="elbxagvevedhl" fill="#263238" d="M185 172a10 10 0 0 1 0 4 8 8 0 0 0-1 3c0 2 2 3 4 4a9 9 0 0 0 6 0s-8-9-2-19a5 5 0 0 0-4 2 7 7 0 0 0-3 6Z" class="animable" transform-origin="189.06px 173.677px"/><path id="elmbbs5oaoqhh" fill="#263238" d="M185 171a7 7 0 0 1 2-4 8 8 0 0 0-2 4 12 12 0 0 1 0 4 7 7 0 0 0-1 2 4 4 0 0 0 0 2 6 6 0 0 0 4 3c-3-1-5-3-4-6a9 9 0 0 0 1-3v-2Z" class="animable" transform-origin="185.806px 174.57px"/><path id="elp1txq5wg34" fill="#263238" d="M187 167a7 7 0 0 0-2 5 14 14 0 0 1 0 2 7 7 0 0 1 0 3c-1 1-2 3 0 4a9 9 0 0 0 5 2 9 9 0 0 1-5-2 3 3 0 0 1-1-3 29 29 0 0 0 1-3 10 10 0 0 0 0-3 7 7 0 0 1 2-5Z" class="animable" transform-origin="187.078px 175.066px"/><path id="elt9xy6bvr65l" fill="#263238" d="M185 172a6 6 0 0 1 2-5c-2 2-2 4-2 6a10 10 0 0 1 0 2 19 19 0 0 0-1 3c-1 2 1 4 3 4l6 1c-3 0-7 0-9-2a4 4 0 0 1 0-4 11 11 0 0 0 1-3 26 26 0 0 0 0-2Z" class="animable" transform-origin="188.199px 175.075px"/><path id="elfgpv6m39x2j" fill="#263238" d="m190 174 1-3 3-3a6 6 0 0 1-1 2c0 1 5-1 5-5 0 0 1 4 3 5l-1-4a8 8 0 0 0-7-2c-4 0-5 4-5 5-1 3 1 6 2 5Z" class="animable" transform-origin="194.508px 168.941px"/><path id="elqrggik2kwmb" fill="#263238" d="M193 171a5 5 0 0 0 5-6c1 3-2 6-5 6Z" class="animable" transform-origin="195.429px 167.838px"/><path id="elxxtnsvezoxj" fill="#263238" d="m190 174 1-4-1 4Z" class="animable" transform-origin="190.445px 172.268px"/><path id="eljcgmzruu06" fill="#263238" d="M198 165c0 1 1 4 3 4-2 0-3-2-3-4Z" class="animable" transform-origin="199.279px 167.16px"/><path id="elmqgpcb4cbpd" fill="#eb9481" d="M191 174s-2-2-3-2 0 4 2 5a1 1 0 0 0 1-1Z" class="animable" transform-origin="189.461px 174.491px"/><path id="el1ju1fx8onve" fill="#263238" d="M188 173a3 3 0 0 1 2 2 1 1 0 0 0-1 0 1 1 0 0 1 1 0 4 4 0 0 1 0 1h1c0-1-1-3-3-3Z" class="animable" transform-origin="189.517px 174.693px"/><path id="elcrauymjyksv" fill="#c7c7c7" d="M217 164h37v1h-37z" class="animable" transform-origin="236.015px 164.705px"/><path id="el61zlxq2lgpm" fill="#ebebeb" d="M217 174h65v1h-65z" class="animable" transform-origin="249.615px 174.565px"/><path id="eleubpno39cv" fill="#ebebeb" d="M217 178h53v1h-53z" class="animable" transform-origin="243.88px 178.805px"/></g><g id="freepik--Character--inject-171" class="animable"><path id="elh69usj5qkp" fill="#407bff" d="M472 348c-7 25-44 21-49 16-17-24-39-70-53-117-12-40 2-35 17-24 9 8 89 112 85 125Z" class="animable" transform-origin="419.039px 291.502px"/><path id="elhntm33i7u1" fill="#fff" d="M401 240a5 5 0 0 0-4 2 5 5 0 0 0 0 3v2l1-2a4 4 0 0 1 0-2 3 3 0 0 1 3-2 4 4 0 0 0 1 0Zm29 78a17 17 0 0 0-1-2v2a4 4 0 0 1-1 2 3 3 0 0 1-2 1 5 5 0 0 0-5 3 5 5 0 0 0 0 3l1 2v-2a4 4 0 0 1 1-2 3 3 0 0 1 3-2 4 4 0 0 0 4-3 4 4 0 0 0 0-2Zm30 30a4 4 0 0 1-2 1 4 4 0 0 1-3-1 4 4 0 0 0-5-1 5 5 0 0 0-2 2 19 19 0 0 0-1 2 12 12 0 0 0 2-1 4 4 0 0 1 2-1 3 3 0 0 1 3 0 5 5 0 0 0 5 1 4 4 0 0 0 2-1 19 19 0 0 0 1-2l-2 1Zm-46-65a3 3 0 0 1-2-1 3 3 0 0 1-1-3 5 5 0 0 0-3-4 5 5 0 0 0-3 0 16 16 0 0 0-2 0l2 1a4 4 0 0 1 2 0 3 3 0 0 1 2 3 5 5 0 0 0 3 4 4 4 0 0 0 2 1l2-1a13 13 0 0 0-2 0Z" class="animable" transform-origin="429.309px 295.189px"/><path id="el9yp7kn86a5t" fill="#eb9481" d="M426 357c-6-15 5-41 31-101 4-9 70 7 67 16-4 12-28 56-33 62-23 30-61 34-65 23Z" class="animable" transform-origin="474.152px 307.854px"/><path id="eltmaxffw5lhg" fill="#eb9481" d="M533 249c-2 13-17 38-23 42s-49-20-50-27 10-51 20-60 56 31 53 45Z" class="animable" transform-origin="496.65px 247.089px"/><path id="elhgzrsrzfw8j" fill="#eb9481" d="M467 221c6 4 9-1 9-1s-7 12-2 18c6 6 13-3 13-3s-6 11 0 17c6 5 12-5 12-5s-2 10 4 13c9 5 14-19 21-23l9 12s6-23-1-32a7 7 0 0 0-8-3s2-7-2-12c-3-2-8 0-8 0s1-6-3-9c-3-3-8-1-8-1s14-27 8-31c-11-8-39 51-45 52-3 0-1 6 1 8Z" class="animable" transform-origin="499.78px 210.124px"/><path id="el1690ot2fhpe" fill="#263238" d="M502 192c-11 7-21 17-26 29v2c5-11 16-22 26-31Z" class="animable" transform-origin="488.753px 207.441px"/><path id="elq6wm8eqkt3g" fill="#263238" d="M514 202c-12 6-23 18-27 33 0 0 0 1 0 0 4-9 17-26 27-33Z" class="animable" transform-origin="500.319px 218.476px"/><path id="elt1stdg285n" fill="#263238" d="M499 248a84 84 0 0 1 24-34c-6 3-12 10-17 16a38 38 0 0 0-7 18Z" class="animable" transform-origin="511.021px 230.791px"/><path id="elyqtbgc6moi" fill="#263238" d="M476 221h1c-2 5-5 14-2 17 3 2 8-1 10-2l4-5-2 6a24 24 0 0 0-2 7l2 7a5 5 0 0 0 6 0 15 15 0 0 0 5-5l4-6-2 7a22 22 0 0 0 0 5 9 9 0 0 0 2 5 4 4 0 0 0 4 2 10 10 0 0 0 4-3 75 75 0 0 0 7-10l3-5a14 14 0 0 1 4-4 15 15 0 0 0-3 4l-3 6a65 65 0 0 1-6 10 11 11 0 0 1-5 4 6 6 0 0 1-7-2 11 11 0 0 1-2-6 24 24 0 0 1 0-7l2 1a17 17 0 0 1-5 7 7 7 0 0 1-5 1 8 8 0 0 1-4-3c-3-2-3-5-3-8a26 26 0 0 1 2-8l1 1c-2 2-7 6-12 3-6-4 0-17 2-19Z" class="animable" transform-origin="497.949px 240.831px"/><path id="elpdu8an5vhsi" fill="#eb9481" d="M460 264s-13-34-9-46 31-17 42-18c14 0 13 10 7 15-7 5-20 9-21 10 0 0 16 14 13 30s-32 9-32 9Z" class="animable" transform-origin="476.929px 232.681px"/><path id="elyuoxyli7hqa" fill="#263238" d="m473 204 8-2a73 73 0 0 1 8-2h4a18 18 0 0 1 5 0 11 11 0 0 1 4 2 7 7 0 0 1 3 3 7 7 0 0 1-1 5 13 13 0 0 1-2 4 21 21 0 0 1-4 3l-3 2a57 57 0 0 1-16 6l1-1a34 34 0 0 1 5 6 37 37 0 0 1 4 7 38 38 0 0 1 2 3 37 37 0 0 1 1 4 32 32 0 0 1 0 8 37 37 0 0 0-1-8 37 37 0 0 0-3-7 39 39 0 0 0-4-6 36 36 0 0 0-5-6l-2-1h2a54 54 0 0 0 8-3 60 60 0 0 0 7-4l3-2a19 19 0 0 0 3-3 11 11 0 0 0 2-3 6 6 0 0 0 1-3 5 5 0 0 0-2-3 9 9 0 0 0-4-2 28 28 0 0 0-8 0 125 125 0 0 0-16 3Z" class="animable" transform-origin="488.903px 225.817px"/><path id="elpad7wb5yag" fill="#407bff" d="m516 309-71-29s-31 66-23 81c3 6 12 13 25 13 27 0 69-65 69-65Z" class="animable" transform-origin="467.977px 326.775px"/><path id="el16x7lmp16fo" fill="#fff" d="M460 348a4 4 0 0 1-2 1 4 4 0 0 1-3-1 4 4 0 0 0-5-1 5 5 0 0 0-2 2 19 19 0 0 0-1 2 12 12 0 0 0 2-1 4 4 0 0 1 2-1 3 3 0 0 1 3 0 5 5 0 0 0 5 1 4 4 0 0 0 2-1 19 19 0 0 0 1-2l-2 1Zm4-53a4 4 0 0 1-2 1 4 4 0 0 1-3-1 4 4 0 0 0-5-1 5 5 0 0 0-2 2 21 21 0 0 0-1 1 13 13 0 0 0 2-1 4 4 0 0 1 2-1 3 3 0 0 1 3 1 5 5 0 0 0 5 1 4 4 0 0 0 2-1l1-2-2 1Zm-34 23v-2a7 7 0 0 0-1 0v2a6 6 0 0 1 0 1l-2 4a4 4 0 0 0 3-3 4 4 0 0 0 0-2Zm69-7a18 18 0 0 0 0-2l-1 2a4 4 0 0 1 0 2 3 3 0 0 1-3 2 5 5 0 0 0-4 3 5 5 0 0 0-1 2 15 15 0 0 0 1 2v-2a4 4 0 0 1 1-2 3 3 0 0 1 3-1 5 5 0 0 0 4-3 5 5 0 0 0 0-3Z" class="animable" transform-origin="463.364px 322.156px"/><path id="el45flylore87" fill="#263238" d="m440 297 24 10 24 10 14 5a522 522 0 0 0-62-25Z" class="animable" transform-origin="471.311px 309.354px"/><path id="el99uj9ebgval" fill="#263238" d="m447 280-3-2-5 14-5 14-2 7a27 27 0 0 0-5 9h1a34 34 0 0 1 3-8 62 62 0 0 0-2 18c0-9 4-18 6-27l5-13 5-12h2Z" class="animable" transform-origin="437.095px 305.372px"/><path id="elfmgiegx7y8b" d="M480 354c-11 11-23 20-33 20-13 0-21-6-25-13-18-24-39-69-52-114-7-26-5-33 2-32l65 83 34 43Z" class="animable" opacity=".1" transform-origin="423.039px 294.579px"/><path id="elezmefnce23r" fill="#407bff" d="m426 392-12-72s12-15 4-37c-6-16-30-54-44-66-20-17-42-1-50 10-16 21-45 87-52 165Z" class="animable" transform-origin="348.59px 300.547px"/><path id="el3ib1ul0fu1z" fill="#263238" d="M364 313a151 151 0 0 1 22 3 162 162 0 0 1 17 4 23 23 0 0 0 6 0v1a41 41 0 0 1-6 0 40 40 0 0 1-5-1l-11-2a311 311 0 0 0-23-5Z" class="animable" transform-origin="386.155px 316.968px"/><path id="eloinkkndjt9n" fill="#263238" d="M345 321a163 163 0 0 1 19-2h14l5 1h-9l-10 1a541 541 0 0 0-19 0Z" class="animable" transform-origin="363.99px 320.144px"/><path id="elmp8v7l2cv1" fill="#fff" d="M354 355a4 4 0 0 1-2 1 3 3 0 0 1-3-1 4 4 0 0 0-5-1 5 5 0 0 0-2 2l-1 2a15 15 0 0 0 2-2 5 5 0 0 1 2-1 3 3 0 0 1 3 1 5 5 0 0 0 5 1 4 4 0 0 0 2-1l1-2a18 18 0 0 0-2 1Zm-55-67a4 4 0 0 1-1 1 3 3 0 0 1-3-1l-1 2a4 4 0 0 0 6-2 23 23 0 0 0 1-1l-2 1Zm63-58a4 4 0 0 1-2 1 3 3 0 0 1-3-1 4 4 0 0 0-5-1 4 4 0 0 0-2 2 19 19 0 0 0-1 1l1-1a4 4 0 0 1 2-1 3 3 0 0 1 3 1 4 4 0 0 0 5 1 5 5 0 0 0 2-1l1-2-1 1Zm5 42-1-3a17 17 0 0 0 0 3 4 4 0 0 1-1 2 3 3 0 0 1-3 1 4 4 0 0 0-4 3 4 4 0 0 0 0 2v3a13 13 0 0 0 1-3 4 4 0 0 1 0-1 3 3 0 0 1 3-2 5 5 0 0 0 4-3 5 5 0 0 0 1-2Zm-70 55a20 20 0 0 0-1-2v2a4 4 0 0 1-1 2 3 3 0 0 1-3 2 5 5 0 0 0-4 2 4 4 0 0 0 0 3 14 14 0 0 0 0 2 21 21 0 0 0 1-2 4 4 0 0 1 0-2 3 3 0 0 1 3-2 5 5 0 0 0 4-3 5 5 0 0 0 0-2Zm117 57a20 20 0 0 0 0-2l-1 2a4 4 0 0 1 0 2 3 3 0 0 1-3 2 5 5 0 0 0-4 3 4 4 0 0 0-1 1h2a2 2 0 0 1 0-1 3 3 0 0 1 3-1 5 5 0 0 0 4-3 5 5 0 0 0 0-3Zm-24-76a5 5 0 0 1-1 1 3 3 0 0 1-4 0 5 5 0 0 0-5-2 5 5 0 0 0-2 2l-1 2 2-1a5 5 0 0 1 2-1 4 4 0 0 1 3 1 5 5 0 0 0 5 1 5 5 0 0 0 2-2l1-2-2 1Zm-49 9a4 4 0 0 1-2-1 3 3 0 0 1-1-3 5 5 0 0 0-3-4 4 4 0 0 0-2 0l-3 1h3a5 5 0 0 1 1 1 3 3 0 0 1 2 2 5 5 0 0 0 3 5 4 4 0 0 0 2 0 23 23 0 0 0 2-1h-2Zm-36 60a5 5 0 0 1-2-1 3 3 0 0 1-2-3 4 4 0 0 0-2-4 5 5 0 0 0-3 0l-2 1a19 19 0 0 0 2 0 4 4 0 0 1 2 1 3 3 0 0 1 2 2 4 4 0 0 0 2 5 4 4 0 0 0 3 0 15 15 0 0 0 2-1h-2Zm13-123a3 3 0 0 1-1 0 3 3 0 0 1-2-3 5 5 0 0 0-3-4v1a3 3 0 0 1 1 3 5 5 0 0 0 3 4 4 4 0 0 0 2 0h3a15 15 0 0 0-3-1Zm96 29a3 3 0 0 1-2-1 3 3 0 0 1-1-3 5 5 0 0 0-3-4 5 5 0 0 0-3 0 16 16 0 0 0-2 0l2 1a4 4 0 0 1 2 0 3 3 0 0 1 2 3 5 5 0 0 0 3 4 4 4 0 0 0 2 1l2-1a13 13 0 0 0-2 0Zm-17-37a12 12 0 0 0 0 1v-1Zm-1 112a5 5 0 0 1-2-1 3 3 0 0 1-2-3 5 5 0 0 0-3-4 5 5 0 0 0-2 0h-1l1 1a4 4 0 0 1 2 0 3 3 0 0 1 2 3 4 4 0 0 0 2 4 4 4 0 0 0 3 0 18 18 0 0 0 2 0h-2Z" class="animable" transform-origin="352.021px 310.079px"/><path id="el0rbq5fiqoef" fill="#eb9481" d="M317 229c-44 41-99 129-90 148 10 20 70-38 70-41s23-56 39-95-9-22-19-12Z" class="animable" transform-origin="283.91px 298.753px"/><path id="eluqyn6dnkkkg" fill="#407bff" d="m298 336 41-99c8-20 5-28-13-16-27 16-96 91-109 127-12 36 17 39 42 24 20-13 39-36 39-36Z" class="animable" transform-origin="278.672px 297.981px"/><path id="el60ntahzusiw" fill="#fff" d="M266 362a4 4 0 0 1-2 1 4 4 0 0 1-3-1 4 4 0 0 0-5-1 5 5 0 0 0-2 2 19 19 0 0 0-1 1 12 12 0 0 0 2-1 4 4 0 0 1 1-1 3 3 0 0 1 4 1 5 5 0 0 0 4 1 4 4 0 0 0 2-1 19 19 0 0 0 2-2l-2 1Zm33-74a4 4 0 0 1-1 1 3 3 0 0 1-3-1 5 5 0 0 0-5-1 4 4 0 0 0-2 1l-2 2a22 22 0 0 0 2-1 4 4 0 0 1 2-1 3 3 0 0 1 3 1 4 4 0 0 0 7-1 23 23 0 0 0 1-1l-2 1Zm-69 49a16 16 0 0 0-1-3v3a4 4 0 0 1-1 1 3 3 0 0 1-3 2 4 4 0 0 0-4 5v3l1-3a4 4 0 0 1 0-2 3 3 0 0 1 3-1 4 4 0 0 0 5-3 4 4 0 0 0 0-2Zm66-10a20 20 0 0 0 0-2v2a4 4 0 0 1-1 2 3 3 0 0 1-3 1 5 5 0 0 0-4 3 4 4 0 0 0 0 3 14 14 0 0 0 0 2 21 21 0 0 0 1-2 4 4 0 0 1 0-2 3 3 0 0 1 3-2 5 5 0 0 0 4-3 5 5 0 0 0 0-2Zm-35-12a4 4 0 0 1-2 0 4 4 0 0 1-2-3 4 4 0 0 0-2-4 4 4 0 0 0-3-1 15 15 0 0 0-2 1 20 20 0 0 0 2 0 4 4 0 0 1 2 1 3 3 0 0 1 2 3 5 5 0 0 0 2 4 5 5 0 0 0 3 0h2l-2-1Zm57-61a3 3 0 0 1-1 0 3 3 0 0 1-2-3 5 5 0 0 0-3-4 5 5 0 0 0-2 0 16 16 0 0 0-3 0h3a4 4 0 0 1 2 1 3 3 0 0 1 1 3 5 5 0 0 0 3 4 4 4 0 0 0 2 0h3a15 15 0 0 0-3-1Z" class="animable" transform-origin="270.744px 305.461px"/><path id="el9pm76phct4w" fill="#263238" d="m294 345 7-20a1114 1114 0 0 1 26-59l-7 20a1115 1115 0 0 1-26 59Z" class="animable" transform-origin="310.5px 305.385px"/><path id="eljqd14triz9" fill="#263238" d="M321 281a32 32 0 0 1 3-5 43 43 0 0 1 3-4 14 14 0 0 1-1 2l-1 3a27 27 0 0 1-4 4Z" class="animable" transform-origin="324.23px 276.43px"/><path id="elnofdaj88sp" fill="#eb9481" d="M226 376c10 13 35 16 99 29 9 2 39-57 29-59-11-4-58-13-61-13-30-2-73 34-67 43Z" class="animable" transform-origin="290.902px 369.061px"/><path id="elhypw76j1ir" fill="#eb9481" d="M382 358c-4-2-3-4 5-5s38 3 39-8-44-15-56-13-32 10-32 10c8 3 27 11 44 16Z" class="animable" transform-origin="381.616px 344.929px"/><path id="eluy3b3x9gpv" fill="#eb9481" d="M326 405c23 7 52 16 79 8a14 14 0 0 0 8-4c12-4 14-10 14-10 10-7 11-14 11-14s14-3 13-12c-1-10-20-3-33-5-31-6-72-23-80-26Z" class="animable" transform-origin="388.544px 379.307px"/><path id="elq2bqlk8638n" fill="#263238" d="M382 384c9 1 17 3 26 3 10 1 20-1 30-2v1a105 105 0 0 1-56-2Z" class="animable" transform-origin="409.759px 386.275px"/><path id="elmigwfute8hk" fill="#263238" d="M376 401a146 146 0 0 0 51-2 94 94 0 0 1-51 2Z" class="animable" transform-origin="400.893px 401.263px"/><path id="elfyi6uobqeq5" fill="#263238" d="M372 411a148 148 0 0 0 40-2c-17 4-24 4-40 3v-1Z" class="animable" transform-origin="392.225px 410.511px"/><path id="el77iir4w37b" fill="#407bff" d="m344 336-56 77s-62-21-70-38c-5-11 41-44 74-43Z" class="animable" transform-origin="280.839px 372.517px"/><path id="el6zxqast6v3" fill="#fff" d="M266 362a4 4 0 0 1-2 1 4 4 0 0 1-3-1 4 4 0 0 0-5-1 5 5 0 0 0-2 2 19 19 0 0 0-1 1 12 12 0 0 0 2-1 4 4 0 0 1 1-1 3 3 0 0 1 4 1 5 5 0 0 0 4 1 4 4 0 0 0 2-1 19 19 0 0 0 2-2l-2 1Zm6 40v-2a14 14 0 0 0-1 2 4 4 0 0 1 0 2 3 3 0 0 1-2 2h2a4 4 0 0 0 1-1 5 5 0 0 0 0-3Zm16-70a3 3 0 0 0 0 1 4 4 0 0 0 0 3 14 14 0 0 0 0 2 21 21 0 0 0 1-2 4 4 0 0 1 0-2 3 3 0 0 1 2-2h-3Zm-49 59a4 4 0 0 1-2-1 3 3 0 0 1-2-3 5 5 0 0 0-2-4 4 4 0 0 0-3 0h-2a23 23 0 0 0 2 1 5 5 0 0 1 2 0 3 3 0 0 1 2 3 5 5 0 0 0 0 2l5 3a17 17 0 0 0 2-1h-2Zm66-14a5 5 0 0 1-2-1 3 3 0 0 1-2-3 4 4 0 0 0-2-4 5 5 0 0 0-3 0h-2a19 19 0 0 0 2 1 4 4 0 0 1 2 0 3 3 0 0 1 2 3 4 4 0 0 0 2 5 4 4 0 0 0 3 0 15 15 0 0 0 2-1h-2Z" class="animable" transform-origin="267.495px 369.388px"/><path id="ela39au7ke6j5" fill="#263238" d="M278 395a506 506 0 0 1 33-45l9-12h1l-16 23-17 22-10 12c0 1 0 0 0 0Z" class="animable" transform-origin="299.307px 366.654px"/><path id="el3foohbbkqh" fill="#263238" d="M341 341h-1l3-5s-34-3-52-2a93 93 0 0 0-38 11c8-7 23-12 35-13 16-1 54 3 57 3 1 1-4 6-4 6Z" class="animable" transform-origin="298.956px 338.463px"/><path id="elg2h40cj85to" fill="#407bff" d="M346 217a6 6 0 1 1-5-6 6 6 0 0 1 5 6Z" class="animable" transform-origin="340.56px 216.62px"/><circle id="ell98i5y3ppd" cx="340.84" cy="227.14" r="5.54" fill="#407bff" class="animable" transform-origin="340.84px 227.14px"/><path id="elte9yr5gg2r" fill="#407bff" d="M350 237a6 6 0 1 1-5-6 6 6 0 0 1 5 6Z" class="animable" transform-origin="344.77px 236.9px"/><path id="el2vngrwmburb" fill="#407bff" d="M356 246a6 6 0 1 1-5-6 6 6 0 0 1 5 6Z" class="animable" transform-origin="350.85px 245.88px"/><path id="el0g13dxlnpyz" fill="#407bff" d="M363 255a6 6 0 1 1-6-6 6 6 0 0 1 6 6Z" class="animable" transform-origin="357.11px 254.69px"/><path id="elhwm1buk6kb" fill="#407bff" d="M370 262a6 6 0 1 1-5-5 6 6 0 0 1 5 5Z" class="animable" transform-origin="364.93px 262.18px"/><circle id="elgbtiu8h2kn" cx="375.25" cy="265.57" r="5.54" fill="#407bff" class="animable" transform-origin="375.25px 265.57px"/><circle id="elc3gu0aoos1d" cx="382.39" cy="258.49" r="5.54" fill="#407bff" class="animable" transform-origin="382.39px 258.49px"/><path id="el89aszoqlzg" fill="#407bff" d="M388 248a6 6 0 1 1-6-6 6 6 0 0 1 6 6Z" class="animable" transform-origin="382.12px 247.78px"/><path id="eluelzyqtd49" fill="#407bff" d="M387 237a6 6 0 1 1-5-6 6 6 0 0 1 5 6Z" class="animable" transform-origin="381.55px 236.89px"/><path id="elsoox5bsi9zc" fill="#407bff" d="M385 226a6 6 0 1 1-6-5 6 6 0 0 1 6 5Z" class="animable" transform-origin="379px 226.24px"/><circle id="elppchc1it4i" cx="373.09" cy="216.86" r="5.54" fill="#407bff" class="animable" transform-origin="373.09px 216.86px"/><g id="elrrqzb0spehh" class="animable" opacity=".3"><path id="eltwrn9tiiyt8" fill="#fff" d="M346 217a6 6 0 1 1-5-6 6 6 0 0 1 5 6Z" class="animable" transform-origin="340.56px 216.62px"/><circle id="els51id1lrvgo" cx="340.84" cy="227.14" r="5.54" fill="#fff" class="animable" transform-origin="340.84px 227.14px"/><path id="ell6xubhhxvco" fill="#fff" d="M350 237a6 6 0 1 1-5-6 6 6 0 0 1 5 6Z" class="animable" transform-origin="344.77px 236.9px"/><path id="el3pm8yt92u7q" fill="#fff" d="M356 246a6 6 0 1 1-5-6 6 6 0 0 1 5 6Z" class="animable" transform-origin="350.85px 245.88px"/><path id="elzrvbelp53a" fill="#fff" d="M363 255a6 6 0 1 1-6-6 6 6 0 0 1 6 6Z" class="animable" transform-origin="357.11px 254.69px"/><path id="elk6k8x5jpnsa" fill="#fff" d="M370 262a6 6 0 1 1-5-5 6 6 0 0 1 5 5Z" class="animable" transform-origin="364.93px 262.18px"/><circle id="el774ef2eq51" cx="375.25" cy="265.57" r="5.54" fill="#fff" class="animable" transform-origin="375.25px 265.57px"/><circle id="elxvm9erutf8" cx="382.39" cy="258.49" r="5.54" fill="#fff" class="animable" transform-origin="382.39px 258.49px"/><path id="elqqawiurdd8p" fill="#fff" d="M388 248a6 6 0 1 1-6-6 6 6 0 0 1 6 6Z" class="animable" transform-origin="382.12px 247.78px"/><path id="elh2pwsok1nvu" fill="#fff" d="M387 237a6 6 0 1 1-5-6 6 6 0 0 1 5 6Z" class="animable" transform-origin="381.55px 236.89px"/><path id="elv9xhf91d83k" fill="#fff" d="M385 226a6 6 0 1 1-6-5 6 6 0 0 1 6 5Z" class="animable" transform-origin="379px 226.24px"/><circle id="el9rgpishpa5p" cx="373.09" cy="216.86" r="5.54" fill="#fff" class="animable" transform-origin="373.09px 216.86px"/></g><path id="elmufeesm341k" fill="#eb9481" d="M355 210c-10 0-16 5-14 13 3 15 21 42 35 42 11 0 5-40-2-48s-14-7-19-7Z" class="animable" transform-origin="361.344px 237.439px"/><path id="eljwp6i44n8s" fill="#eb9481" d="M341 219c1 3 16 19 28 15 9-3 4-21 4-21l3-27-35-17v50Z" class="animable" transform-origin="358.42px 201.705px"/><path id="elz8nazg4j0df" fill="#263238" d="M341 186a52 52 0 0 0 32 25l3-25-35-17v17Z" class="animable" transform-origin="358.41px 190.005px"/><path id="elz5o46buel7j" fill="#263238" d="M362 189c11 17 38 19 55 10 1 0-8-10-13-28-2-9-2-19-2-28l-1-13c0-4 0-9-2-13-4-11-21-10-23-8-16 18-27 60-14 80Z" class="animable" transform-origin="386.609px 156.162px"/><path id="elu0zbo109bg" fill="#263238" d="M366 177a36 36 0 0 0 17 23c9 6 22 6 32 3-10 4-22 5-32-1-10-5-17-14-18-25h1Z" class="animable" transform-origin="390.108px 191.3px"/><path id="el1zivz4sww0x" fill="#263238" d="M359 173c2 10 7 18 15 25s21 11 31 10h1c-12 2-25-3-33-10-8-6-15-15-15-25h1Z" class="animable" transform-origin="381.846px 190.64px"/><path id="elfjwmkm0n7we" fill="#263238" d="M399 126c1 13 1 24 5 36a123 123 0 0 0 15 34 109 109 0 0 1-16-33c-4-11-6-24-5-37h1Z" class="animable" transform-origin="408.372px 161.001px"/><path id="elmwoclrre209" fill="#eb9481" d="M407 146c7 44-19 53-28 54-9 2-38 5-50-38s7-59 26-64 45 4 52 48Z" class="animable" transform-origin="366.781px 149.184px"/><path id="el66ns90f049s" fill="#263238" d="M396 141a28 28 0 0 1-3 0 5 5 0 0 1-3-1 2 2 0 0 1 0-2l4-1a6 6 0 0 1 4 2 2 2 0 0 1-2 2Z" class="animable" transform-origin="394.182px 139.168px"/><path id="el9nfl0h5urrn" fill="#263238" d="M365 144a28 28 0 0 0 3-1 5 5 0 0 0 3-1 2 2 0 0 0 0-2l-4-1a6 6 0 0 0-3 3 2 2 0 0 0 1 2Z" class="animable" transform-origin="367.292px 141.704px"/><path id="elifkzyoa0jr" fill="#263238" d="M372 154c0-1 0 0 0 0 1 3 1 6-2 8 3-1 3-6 2-8Z" class="animable" transform-origin="371.424px 157.601px"/><path id="elq4sd2pakyq" fill="#263238" d="M369 151c-4 0-4 9 1 9s4-9-1-9Z" class="animable" transform-origin="369.435px 155.495px"/><path id="el9otcyzxqiwf" fill="#263238" d="m368 151-3 2-3-2c0 2 1 4 3 4s3-1 3-3v-1Z" class="animable" transform-origin="364.994px 153.258px"/><path id="elq2qnfq1yk1" fill="#263238" d="M391 152v1c0 3 1 6 3 7-3 0-4-5-3-8Z" class="animable" transform-origin="392.45px 156.199px"/><path id="el69f7gwq5ci7" fill="#263238" d="M393 149c5-1 6 9 1 10s-5-9-1-10Z" class="animable" transform-origin="393.948px 153.839px"/><path id="elhwwmv0ehk5k" fill="#263238" d="m395 150 3 1 2-2c0-1 0 0 0 0 1 2 0 4-2 4s-3-1-3-3c0 0 0-1 0 0Z" class="animable" transform-origin="397.62px 150.837px"/><path id="elb0u4hnxh95" fill="#263238" d="M374 178c1 1 1 2 3 2a8 8 0 0 0 3-1v1a4 4 0 0 1-4 1 3 3 0 0 1-2-3Z" class="animable" transform-origin="376.897px 179.56px"/><path id="elni1ymafbvl" fill="#263238" d="M387 167v7h-1a10 10 0 0 1-10-4h1c2 2 6 3 9 3l-1-8 5 1-5-28h1c3 9 5 20 6 30l-5-1Z" class="animable" transform-origin="384.083px 156.06px"/><path id="elz6fke8bg6w" fill="#263238" d="M384 173a10 10 0 0 1-4 4 5 5 0 0 1-2 0c-2-1-3-2-2-4a11 11 0 0 1 0-2 13 13 0 0 0 8 2Z" class="animable" transform-origin="379.869px 173.804px"/><path id="elsr2ipd9ew9" fill="#ff98b9" d="M380 177a5 5 0 0 1-2 0c-2-1-3-2-2-4 2 0 4 2 4 4Z" class="animable" transform-origin="377.919px 175.029px"/><path id="elidzjdwzs0v" fill="#263238" d="M308 146a61 61 0 0 1-3 24c-3 7-5 13-5 20 1 13 13 20 25 25 7 3 23 2 35-3 1 0-50-50-14-110 0-1-11-2-23 8s-16 22-15 36Z" class="animable" transform-origin="329.974px 159.043px"/><path id="elzh8t4hktp2q" fill="#263238" d="M306 142a42 42 0 0 1 9-24 46 46 0 0 0-8 26c-1 8 0 16-3 23l-5 13a26 26 0 0 0 3 13c4 9 12 14 21 18-17-5-29-22-23-38 2-5 5-10 5-16l1-15Z" class="animable" transform-origin="310.758px 164.448px"/><path id="elyicda0k0f4s" fill="#263238" d="M315 120a43 43 0 0 0-8 29c1 5 2 10 1 15a41 41 0 0 1-3 12c-4 10-9 21 1 29 8 6 21 9 32 9v1c-11 0-23-3-32-9-7-5-8-13-6-21l7-17v-18c-1-11 1-21 8-30Z" class="animable" transform-origin="318.464px 167.472px"/><path id="el2su7f4mdklp" fill="#263238" d="M306 146c0-10 1-20 9-27v1c-9 8-8 21-9 33l-1 17c-1 6-6 10-7 16-1 12 8 22 19 26 12 4 23 3 36 2v1c-17 2-40 2-51-14a22 22 0 0 1-3-21c3-6 5-11 6-17l1-17Z" class="animable" transform-origin="325.235px 167.634px"/><path id="el3kfe4jemy9j" fill="#263238" d="M334 164c9-1 7-22 7-22s15-5 20-16c0 0-3 10-9 14-1 1 30-6 31-30 0 0 7 23 22 26 1 0-5-21-10-26a46 46 0 0 0-10-6 45 45 0 0 0-33-5c-19 4-30 26-30 35-1 16 7 30 12 30Z" class="animable" transform-origin="363.196px 130.553px"/><path id="elvem1tcwbv89" fill="#263238" d="M353 140c17-2 30-15 29-32h1c4 17-13 32-30 33v-1Z" class="animable" transform-origin="368.418px 124.054px"/><path id="elr7islmyqshp" fill="#263238" d="M334 163c8-6 9-15 8-25h1c1 9 1 21-9 26v-1Z" class="animable" transform-origin="338.396px 150.695px"/><path id="elc9837h8lehd" fill="#263238" d="M383 106c3 10 5 26 18 27v1c-13 0-19-18-18-28Z" class="animable" transform-origin="391.841px 119.99px"/><path id="eljc9bd6ft1c" fill="#eb9481" d="M340 161s-10-13-16-10 2 24 9 26a7 7 0 0 0 10-4Z" class="animable" transform-origin="332.461px 164.241px"/><path id="elfypestqtmwg" fill="#263238" d="M327 157c-1 0-1 0 0 0 5 2 8 7 10 12-2-2-4-3-7-1a5 5 0 0 1 6 1 22 22 0 0 1 2 5l1-1c0-6-5-16-12-16Z" class="animable" transform-origin="332.694px 165.318px"/></g><g id="freepik--Books--inject-171" class="animable"><path id="el2vemqivlpaj" fill="#37474f" d="M558 431h141v18H558z" class="animable" transform-origin="628.14px 439.83px"/><path id="el1cdoeibe7o2" fill="#455a64" d="M585 431h6v18h-6z" class="animable" transform-origin="588.165px 439.83px"/><path id="el33cvkx1i56p" fill="#455a64" d="M668 431h14v18h-14z" class="animable" transform-origin="675.16px 439.83px"/><path id="elean0cvt1gfi" fill="#455a64" d="M549 385h144v21H549z" class="animable" transform-origin="620.895px 395.06px"/><path id="elalrla9huihd" fill="#407bff" d="M633 391h35v8h-35z" class="animable" transform-origin="650.135px 395.06px"/><path id="ellolfldy04fq" fill="#407bff" d="M680 395a4 4 0 1 1-4-4 4 4 0 0 1 4 4Z" class="animable" transform-origin="676.09px 395.06px"/><path id="elintxoms1v9l" fill="#263238" d="M628 364h73v21h-73z" class="animable" transform="rotate(180)" transform-origin="664.53px 374.37px"/><path id="elan5p51ak6jq" fill="#263238" d="M561 364h67v21h-67z" class="animable" transform="rotate(180)" transform-origin="594.52px 374.37px"/><path id="elvpbcj1r98b" fill="#fff" d="M628 366h73v16h-73z" class="animable" transform="rotate(180)" transform-origin="664.53px 374.37px"/><path id="elcajww2dklim" fill="#dbdbdb" d="M699 379h-25l-11 1-24-1h-11 71Z" class="animable" transform-origin="663.36px 379.215px"/><path id="el1afpfcwn5kl" fill="#dbdbdb" d="M699 376h-71 71Z" class="animable" transform-origin="663.36px 376.005px"/><path id="el6r6qcxybpg" fill="#dbdbdb" d="M699 373h-71 11l24-1 11 1h25Z" class="animable" transform-origin="663.375px 372.755px"/><path id="el8h51mwk1ydg" fill="#dbdbdb" d="M699 370h-71l11-1h35l25 1Z" class="animable" transform-origin="663.36px 369.53px"/><path id="elb0xr2ea0po" fill="#407bff" d="M604 364h9v21h-9z" class="animable" transform="rotate(180)" transform-origin="608.515px 374.37px"/><path id="ellgyj1f7xzd" fill="#407bff" d="M564 364h6v21h-6z" class="animable" transform="rotate(180)" transform-origin="567.55px 374.37px"/><path id="ely68upqih3b" fill="#407bff" d="M564 405h82v26h-82z" class="animable" transform-origin="605.455px 418.15px"/><path id="elmcnyzt3l92" fill="#407bff" d="M646 405h62v26h-62z" class="animable" transform-origin="677.53px 418.15px"/><path id="elu1dz1fmpne" fill="#fff" d="M564 408h82v20h-82z" class="animable" transform-origin="605.455px 418.145px"/><path id="el0wnvszo2f79b" fill="#dbdbdb" d="M570 412h76-76Z" class="animable" transform-origin="608.1px 412.18px"/><path id="elgyorzshbmb" fill="#dbdbdb" d="M570 416h76-76Z" class="animable" transform-origin="608.1px 416.16px"/><path id="elnoxkiua1xxj" fill="#dbdbdb" d="M570 420h76-76Z" class="animable" transform-origin="608.1px 420.13px"/><path id="el58apmr30fch" fill="#dbdbdb" d="M570 424h76-76Z" class="animable" transform-origin="608.1px 424.11px"/><path id="elgv11b1wfnya" fill="#455a64" d="M687 405h12v26h-12z" class="animable" transform="rotate(180)" transform-origin="692.915px 418.15px"/></g><g id="freepik--speech-bubble--inject-171" class="animable animator-active" style="animation:1.5s Infinite linear shake;animation-delay:0s"><path id="elk8i5nc9o2d" fill="#fff" d="M316 57v54h-7v13l-13-13h-72V57h92z" class="animable" transform-origin="270.325px 90.52px"/><path id="elmle385kzo9l" fill="#263238" d="M316 57v27l1 27h-8v14l-1-1-13-13h1-72V57h46Zm0 0h-46l-46 1 1-1v54l-1-1h72v1l13 13h-1v-14h8v1-27Z" class="animable" transform-origin="270.225px 90.715px"/><path id="el893dvyq66b3" fill="#263238" d="M253 84a4 4 0 1 1-4-4 4 4 0 0 1 4 4Z" class="animable" transform-origin="248.64px 84.01px"/><path id="elepea822oen4" fill="#263238" d="M275 84a4 4 0 1 1-5-4 4 4 0 0 1 5 4Z" class="animable" transform-origin="270.32px 84.01px"/><path id="eloerwbvpolnj" fill="#263238" d="M296 84a4 4 0 1 1-4-4 4 4 0 0 1 4 4Z" class="animable" transform-origin="292.05px 84px"/></g><g id="freepik--Lightbulb--inject-171" class="animable"><path id="elqtv6xirtbvg" fill="#a6a6a6" d="M528 50a27 27 0 0 1-1-5 27 27 0 0 1 0-6 27 27 0 0 1 1 6 27 27 0 0 1 0 5Z" class="animable" transform-origin="527.53px 44.595px"/><path id="eloj5021xuzks" fill="#a6a6a6" d="M503 57a27 27 0 0 1-4-4 27 27 0 0 1-2-5 27 27 0 0 1 3 4 26 26 0 0 1 3 5Z" class="animable" transform-origin="499.875px 52.32px"/><path id="elxrwqwl17qam" fill="#a6a6a6" d="M485 76a27 27 0 0 1-5-3 26 26 0 0 1-5-3 30 30 0 0 1 10 6Z" class="animable" transform-origin="479.785px 72.875px"/><path id="elizl4l68ft7e" fill="#a6a6a6" d="M478 101a27 27 0 0 1-5 0 27 27 0 0 1-6 0 30 30 0 0 1 11 0Z" class="animable" transform-origin="472.665px 100.704px"/><path id="elovdaxyjqquh" fill="#a6a6a6" d="M485 126a31 31 0 0 1-9 5 30 30 0 0 1 9-5Z" class="animable" transform-origin="480.41px 128.36px"/><path id="el4zh1k2kmdmf" fill="#a6a6a6" d="M572 125a30 30 0 0 1 9 5 26 26 0 0 1-5-2 27 27 0 0 1-4-3Z" class="animable" transform-origin="576.51px 127.29px"/><path id="elv2y3ghuvf2" fill="#a6a6a6" d="M578 100a30 30 0 0 1 11-1 26 26 0 0 1-5 1 27 27 0 0 1-6 0Z" class="animable" transform-origin="583.635px 99.469px"/><path id="elesnzbxiajir" fill="#a6a6a6" d="M571 75a27 27 0 0 1 5-4 27 27 0 0 1 5-2 30 30 0 0 1-10 6Z" class="animable" transform-origin="575.89px 71.815px"/><path id="eli7js2rmmgwi" fill="#a6a6a6" d="M553 57a27 27 0 0 1 2-5 26 26 0 0 1 3-5 27 27 0 0 1-2 5 27 27 0 0 1-3 5Z" class="animable" transform-origin="555.355px 51.72px"/><g id="elwldq6daq69" class="animable" opacity=".5"><path id="eleznr8uffvul" fill="#407bff" d="M571 103c-3 26-24 34-24 34l-4 14h-30l-3-14s-22-8-24-34c-2-19 11-46 42-46s44 27 43 46Z" class="animable" transform-origin="528.15px 104.18px"/></g><g id="el53j70a3l4ys" class="animable" opacity=".7"><path id="elxjb2a40vcua" fill="#407bff" d="M567 103c-2 24-22 31-22 31l-3 17h-27l-4-17s-20-7-22-31c-1-17 11-42 39-42s40 25 39 42Z" class="animable" transform-origin="528.168px 106.185px"/></g><path id="elcibs65gp7" fill="#fff" d="M515 107h3v47h-3z" class="animable" transform="rotate(-11)" transform-origin="516.71px 130.55px"/><path id="ell4v47am4uf" fill="#fff" d="M516 129h47v3h-47z" class="animable" transform="rotate(-79)" transform-origin="539.59px 130.55px"/><path id="elpl06r7jdvg" fill="#fff" d="M528 123c-3 0-5-2-7-5a3 3 0 0 1-2 1c-5 0-6-9-6-10h1c0 3 2 9 5 9a3 3 0 0 0 2-1 20 20 0 0 1-2-9c0-2 1-4 3-4a3 3 0 0 1 2 2c1 2 0 7-1 10a9 9 0 0 1-1 1c2 3 4 5 6 5s4-1 5-4l1-1a12 12 0 0 1-3-7c0-4 1-6 3-6a2 2 0 0 1 2 2c1 2 1 7-1 11a4 4 0 0 0 2 1c3 0 5-6 6-8h1c0 1-3 9-6 9a5 5 0 0 1-4-1v1c-2 2-4 4-6 4Zm6-18c-2 0-2 3-2 5a12 12 0 0 0 2 7c2-4 2-9 1-11a1 1 0 0 0-1-1Zm-12 0c-2 0-2 2-2 3a19 19 0 0 0 2 8v-1c1-2 2-7 1-9a2 2 0 0 0-1-1Z" class="animable" transform-origin="528.34px 113.67px"/><path id="elo960g18qow" fill="#455a64" d="M510 151h37v20h-37z" class="animable" transform-origin="528.145px 161.29px"/><path id="ele3p30h027ru" fill="#455a64" d="M542 171c-2 4-6 8-14 8s-12-4-14-8Z" class="animable" transform-origin="528.15px 175.02px"/><path id="ely1uip9mg41i" fill="#37474f" d="M542 171a13 13 0 0 1-2 4l-25-2a13 13 0 0 1-1-2Z" class="animable" transform-origin="528.165px 172.945px"/><path id="el4dvd2ldg4hc" fill="#37474f" d="m548 155-39 4v-2l39-4v2z" class="animable" transform-origin="528.15px 155.95px"/><path id="elhn8f934esor" fill="#37474f" d="m548 160-39 4v-2l39-3v1z" class="animable" transform-origin="528.15px 161.285px"/><path id="el1g0lbcj6la3j" fill="#37474f" d="m548 166-39 3v-1l39-4v2z" class="animable" transform-origin="528.15px 166.62px"/><g id="eljzioxph47i" class="animable" opacity=".5"><path id="eld2i7ir39a5" fill="#fff" d="M495 96c1 1 3-6 11-14 3-4 15-8 15-12s-13 0-18 6c-9 11-9 20-8 20Z" class="animable" transform-origin="507.497px 82.1776px"/><path id="elkuzlsp1std" fill="#fff" d="M561 98a2 2 0 0 0 0-4c-2 0-2 4 0 4Z" class="animable" transform-origin="561.177px 95.995px"/><path id="eln2keciozxdn" fill="#fff" d="M549 127c1 1 8-5 11-12 2-6 3-14 1-14s-3 10-4 13c-3 5-9 12-8 13Z" class="animable" transform-origin="555.543px 113.784px"/></g></g><defs><filter id="active" height="200%"><feMorphology in="SourceAlpha" operator="dilate" radius="2" result="DILATED"/><feFlood flood-color="#32DFEC" flood-opacity="1" result="PINK"/><feComposite in="PINK" in2="DILATED" operator="in" result="OUTLINE"/><feMerge><feMergeNode in="OUTLINE"/><feMergeNode in="SourceGraphic"/></feMerge></filter><filter id="hover" height="200%"><feMorphology in="SourceAlpha" operator="dilate" radius="2" result="DILATED"/><feFlood flood-color="red" flood-opacity="0.5" result="PINK"/><feComposite in="PINK" in2="DILATED" operator="in" result="OUTLINE"/><feMerge><feMergeNode in="OUTLINE"/><feMergeNode in="SourceGraphic"/></feMerge><feColorMatrix values="0 0 0 0 0 0 1 0 0 0 0 0 0 0 0 0 0 0 1 0"/></filter></defs></svg>