<svg xmlns="http://www.w3.org/2000/svg" id="freepik_stories-grid-design" class="animated" version="1.1" viewBox="0 0 500 500"><style>@keyframes shake{10%,90%{transform:translate3d(-1px,0,0)}20%,80%{transform:translate3d(2px,0,0)}30%,50%,70%{transform:translate3d(-4px,0,0)}40%,60%{transform:translate3d(4px,0,0)}}svg#freepik_stories-grid-design:not(.animated) .animable{opacity:0}</style><g id="freepik--background-complete--inject-2" class="animable"><path id="el5awytuw86dr" fill="#ebebeb" d="M141,389.68s-12.3,9.36-.51,21.74a1.07,1.07,0,0,0,.77.33l107.44-.63s9.17-10.29,1.56-22.14Z" class="animable" transform-origin="194.33px 400.365px"/><path id="elkiy1780l4hl" fill="#e0e0e0" d="M225,399.45c0,.12-13.38.22-29.88.22s-29.88-.1-29.88-.22,13.37-.21,29.88-.21S225,399.33,225,399.45Z" class="animable" transform-origin="195.12px 399.455px"/><path id="el285ppt16cga" fill="#e0e0e0" d="M208.28,403.34c0,.12-6.28.22-14,.22s-14.05-.1-14.05-.22,6.29-.22,14.05-.22S208.28,403.22,208.28,403.34Z" class="animable" transform-origin="194.255px 403.34px"/><path id="el50l6x3vrmok" fill="#e0e0e0" d="M236,410.78c-.07,0,.24-1.23.57-3.22a44.51,44.51,0,0,0-.15-15.67c-.37-2-.7-3.19-.63-3.21a3.31,3.31,0,0,1,.31.83c.18.54.4,1.33.62,2.32a38.23,38.23,0,0,1,.9,7.88,37.62,37.62,0,0,1-.75,7.9,23.78,23.78,0,0,1-.57,2.34A3.63,3.63,0,0,1,236,410.78Z" class="animable" transform-origin="236.701px 399.73px"/><path id="elf9jp50qfae5" fill="#e0e0e0" d="M244,388.84a4.26,4.26,0,0,1,.48.78,9.94,9.94,0,0,1,.47,1c.17.38.38.81.55,1.31a22.63,22.63,0,0,1,1,3.56A26.28,26.28,0,0,1,247,400a25.49,25.49,0,0,1-.39,4.53,23,23,0,0,1-1,3.58c-.16.51-.36.94-.52,1.33a8.07,8.07,0,0,1-.47,1,3.66,3.66,0,0,1-.46.79c-.08,0,.52-1.2,1.16-3.18a24.21,24.21,0,0,0,.86-3.56,27.85,27.85,0,0,0,.36-4.45,27.53,27.53,0,0,0-.43-4.45,25,25,0,0,0-.92-3.54C244.54,390,243.92,388.88,244,388.84Z" class="animable" transform-origin="245.497px 400.035px"/><path id="eljs7henrzhtg" fill="#e0e0e0" d="M158,410.92a3.63,3.63,0,0,1-.5-.71,8.61,8.61,0,0,1-.5-.9,10.46,10.46,0,0,1-.57-1.24,17.48,17.48,0,0,1-1-3.39,21.61,21.61,0,0,1-.42-4.32,22,22,0,0,1,.53-4.32,20.18,20.18,0,0,1,1.14-3.36,12.58,12.58,0,0,1,.61-1.22,7,7,0,0,1,.53-.88,3.5,3.5,0,0,1,.52-.71c.07.05-.62,1.09-1.37,2.93a20.93,20.93,0,0,0-1,3.33,23.76,23.76,0,0,0-.48,4.23,22.57,22.57,0,0,0,.37,4.25,21.09,21.09,0,0,0,.94,3.35C157.4,409.82,158.07,410.88,158,410.92Z" class="animable" transform-origin="156.677px 400.395px"/><path id="elw0wt8v4o0z" fill="#e0e0e0" d="M146.39,413.54a4.2,4.2,0,0,1-.55-.81,8.77,8.77,0,0,1-.56-1,13.2,13.2,0,0,1-.65-1.39,22.53,22.53,0,0,1-1.23-3.79,26.32,26.32,0,0,1-.61-4.84,27.46,27.46,0,0,1,.39-4.87,23.32,23.32,0,0,1,1.06-3.85c.18-.54.41-1,.59-1.41a8.85,8.85,0,0,1,.52-1,4.6,4.6,0,0,1,.51-.84c.08,0-.61,1.26-1.33,3.38a26.77,26.77,0,0,0-.95,3.81,25.39,25.39,0,0,0,.21,9.57,25.51,25.51,0,0,0,1.12,3.76C145.73,412.31,146.47,413.5,146.39,413.54Z" class="animable" transform-origin="144.592px 401.64px"/><path id="el5io8v2kal1n" fill="#ebebeb" d="M244.8,443.84V464.4H205V443.84Z" class="animable" transform-origin="224.9px 454.12px"/><path id="elkz95n253z" fill="#e0e0e0" d="M116.32,454.31c0,.19,0,.37,0,.55a11.77,11.77,0,0,0,11.83,11H246.65V464.4H218.53a10.28,10.28,0,0,1-10.28-10.28h0a10.28,10.28,0,0,1,10.28-10.28h28.12v-2.18l-118.51.4A11.85,11.85,0,0,0,116.32,454.31Z" class="animable" transform-origin="181.482px 453.76px"/><path id="elj10g56fokq" fill="#e0e0e0" d="M244.8,454.4c0,.12-8.18.22-18.27.22s-18.27-.1-18.27-.22,8.18-.22,18.27-.22S244.8,454.28,244.8,454.4Z" class="animable" transform-origin="226.53px 454.4px"/><path id="el8adjdjvs0lu" fill="#e0e0e0" d="M244.22,459c0,.12-7.74.22-17.28.22s-17.29-.1-17.29-.22,7.74-.22,17.29-.22S244.22,458.91,244.22,459Z" class="animable" transform-origin="226.935px 459px"/><path id="elxbmdl1g7p6h" fill="#e0e0e0" d="M244.8,463.27c0,.12-7,.21-15.54.21s-15.54-.09-15.54-.21,6.95-.22,15.54-.22S244.8,463.15,244.8,463.27Z" class="animable" transform-origin="229.26px 463.265px"/><path id="el6peso7emwm5" fill="#e0e0e0" d="M244.8,450.24c0,.12-8,.21-17.89.21s-17.9-.09-17.9-.21,8-.22,17.9-.22S244.8,450.12,244.8,450.24Z" class="animable" transform-origin="226.905px 450.235px"/><path id="el0jpik516lqp" fill="#e0e0e0" d="M244.22,446.07c0,.12-7.13.22-15.92.22s-15.93-.1-15.93-.22,7.13-.21,15.93-.21S244.22,446,244.22,446.07Z" class="animable" transform-origin="228.295px 446.075px"/><path id="elbqjsyayx2mm" fill="#f5f5f5" d="M130.67,442.4a27.63,27.63,0,0,0-2.52,3,15.24,15.24,0,0,0,.21,17.62A26.83,26.83,0,0,0,131,466a4.2,4.2,0,0,1-.86-.63,14.23,14.23,0,0,1-2-2.12,15,15,0,0,1-.21-18,14,14,0,0,1,1.93-2.16A4.85,4.85,0,0,1,130.67,442.4Z" class="animable" transform-origin="128.017px 454.2px"/><path id="elwb7bmnd0jok" fill="#f5f5f5" d="M126.66,442a26.32,26.32,0,0,0-2.51,3,15.19,15.19,0,0,0,.21,17.62,27.55,27.55,0,0,0,2.58,2.93,4.35,4.35,0,0,1-.85-.63,12.83,12.83,0,0,1-2-2.12,15,15,0,0,1-.21-18,13.56,13.56,0,0,1,1.92-2.16A4.24,4.24,0,0,1,126.66,442Z" class="animable" transform-origin="123.962px 453.775px"/><path id="el4j56zncmjo" fill="#f5f5f5" d="M207.17,442.4a26.3,26.3,0,0,0-2.52,3,15.24,15.24,0,0,0,.21,17.62,26.83,26.83,0,0,0,2.59,2.93,3.9,3.9,0,0,1-.86-.63,14.23,14.23,0,0,1-2-2.12,15,15,0,0,1-.21-18,13.06,13.06,0,0,1,1.93-2.16A4.43,4.43,0,0,1,207.17,442.4Z" class="animable" transform-origin="204.467px 454.175px"/><path id="elnd7iao6t6zk" fill="#f5f5f5" d="M203.16,442a25.09,25.09,0,0,0-2.51,3,15.22,15.22,0,0,0,.2,17.62,26.83,26.83,0,0,0,2.59,2.93,4.35,4.35,0,0,1-.85-.63,12.83,12.83,0,0,1-2-2.12,15,15,0,0,1-.22-18,14,14,0,0,1,1.93-2.16A3.92,3.92,0,0,1,203.16,442Z" class="animable" transform-origin="200.459px 453.775px"/><path id="el0rdrbt5qhszj" fill="#f5f5f5" d="M144.15,457.2l-.11-8.36a6,6,0,0,0-.29-2.15,2,2,0,0,0-1.59-1.34c-1-.46-2.68.41-3.41,1.62a7.9,7.9,0,0,0-.82,4.09,58.39,58.39,0,0,0,.32,6.61,7.63,7.63,0,0,0,.78,3,2.8,2.8,0,0,0,2.55,1.53,2.83,2.83,0,0,0,2.23-1.93A8.24,8.24,0,0,0,144.15,457.2Z" class="animable" transform-origin="141.043px 453.713px"/><path id="ely8ih28k48zk" fill="#f5f5f5" d="M190.17,454.8c0,.12-8.57.22-19.13.22s-19.13-.1-19.13-.22,8.56-.22,19.13-.22S190.17,454.68,190.17,454.8Z" class="animable" transform-origin="171.04px 454.8px"/><path id="el1t03eu41vu4" fill="#f5f5f5" d="M136 442 136 422 147 422 147 442 136 442z" class="animable" transform-origin="141.485px 431.84px"/><path id="el52idcoclgjl" fill="#e0e0e0" d="M146,425.56a28,28,0,0,1-4.93.22,28,28,0,0,1-4.93-.22,28.65,28.65,0,0,1,4.93-.21A28.65,28.65,0,0,1,146,425.56Z" class="animable" transform-origin="141.07px 425.565px"/><path id="elbl4o0xw29f8" fill="#e0e0e0" d="M146,428.57a28,28,0,0,1-4.93.22,28,28,0,0,1-4.93-.22,28,28,0,0,1,4.93-.22A28,28,0,0,1,146,428.57Z" class="animable" transform-origin="141.07px 428.57px"/><path id="el1ezw8ojgj3" fill="#e0e0e0" d="M146,431.58a28.65,28.65,0,0,1-4.93.21,28.65,28.65,0,0,1-4.93-.21,28,28,0,0,1,4.93-.22A28,28,0,0,1,146,431.58Z" class="animable" transform-origin="141.07px 431.575px"/><path id="ely4uirwn4ef9" fill="#e0e0e0" d="M146,434.59a28.65,28.65,0,0,1-4.93.21,28.65,28.65,0,0,1-4.93-.21,28,28,0,0,1,4.93-.22A28,28,0,0,1,146,434.59Z" class="animable" transform-origin="141.07px 434.585px"/><path id="el541q788hm4" fill="#e0e0e0" d="M146,437.59a28,28,0,0,1-4.93.22,28,28,0,0,1-4.93-.22,28.65,28.65,0,0,1,4.93-.21A28.65,28.65,0,0,1,146,437.59Z" class="animable" transform-origin="141.07px 437.595px"/><path id="elwnw9oua8t1d" fill="#ebebeb" d="M135.44,421.58H253c1.45,6.45,1.24,13.55,0,21.06H135.94v-1.43h7.15a3.38,3.38,0,0,0,3.38-3.38V426.18a3.38,3.38,0,0,0-3.38-3.38h-7.65Z" class="animable" transform-origin="194.725px 432.11px"/><path id="el6p4amn0d9cm" fill="#fafafa" d="M163.23,432.12h2a.37.37,0,0,1,.21.06.39.39,0,0,1,.21.37.45.45,0,0,1,0,.12c0,.17-.08.33-.13.5a5.67,5.67,0,0,1-1.23,2.22,2.32,2.32,0,0,1-1.67.87l-.24,0a1.92,1.92,0,0,1-1.34-1,4.42,4.42,0,0,1-.58-2.36,6.61,6.61,0,0,1,.23-1.69,5.62,5.62,0,0,1,1.17-2.27,2.35,2.35,0,0,1,1.76-.94,1.75,1.75,0,0,1,.75.17,2.45,2.45,0,0,1,1.14,1.43.46.46,0,0,1,0,.2.42.42,0,0,1-.06.21.4.4,0,0,1-.36.21l-.13,0a.41.41,0,0,1-.27-.27l0,0a2.06,2.06,0,0,0-.23-.47,1.13,1.13,0,0,0-.94-.56,1.09,1.09,0,0,0-.65.24,3.45,3.45,0,0,0-1.07,1.54,5.78,5.78,0,0,0-.47,2.21,4,4,0,0,0,.34,1.74,1.15,1.15,0,0,0,1,.77,1.45,1.45,0,0,0,.94-.57,5.16,5.16,0,0,0,1-1.83h-1.41c-.3-.05-.46-.21-.46-.48a.33.33,0,0,1,0-.14A.43.43,0,0,1,163.23,432.12Z" class="animable" transform-origin="163.055px 432.13px"/><path id="el250jqcytqes" fill="#fafafa" d="M169.91,428.29l.05.15q.12.42,1.38,7.28a.22.22,0,0,1,0,.11.42.42,0,0,1-.06.21.38.38,0,0,1-.35.22h-.06a.37.37,0,0,1-.33-.29l-.47-2.42h-2.41L166.52,436l0,.08a.46.46,0,0,1-.36.21.37.37,0,0,1-.23-.07.42.42,0,0,1-.2-.35.28.28,0,0,1,0-.13c.07-.17.19-.44.36-.8q2.53-5.54,3-6.53a.45.45,0,0,1,.8-.09Zm-.53,1.63-1.31,2.75h1.85Z" class="animable" transform-origin="168.535px 432.203px"/><path id="elxku45gvvyzk" fill="#fafafa" d="M176.46,436.26h-3.54a.39.39,0,0,1-.23-.07.63.63,0,0,1-.2-.44h0q0-.21,1-7.25a.78.78,0,0,1,0-.16.4.4,0,0,1,.38-.26.46.46,0,0,1,.2.05.39.39,0,0,1,.22.38q0,.48-.24,2c-.41,3.1-.62,4.74-.64,4.91h3a.54.54,0,0,1,.22,0,.4.4,0,0,1,.27.4.59.59,0,0,1,0,.13A.52.52,0,0,1,176.46,436.26Z" class="animable" transform-origin="174.697px 432.17px"/><path id="eln2t6h29i75q" fill="#fafafa" d="M181.31,428.29l.05.15c.08.28.55,2.71,1.38,7.28a.22.22,0,0,1,0,.11.41.41,0,0,1,0,.21.39.39,0,0,1-.35.22h-.07A.37.37,0,0,1,182,436l-.46-2.42h-2.42L177.92,436a.2.2,0,0,1,0,.08.46.46,0,0,1-.36.21.39.39,0,0,1-.23-.07.41.41,0,0,1-.19-.35.27.27,0,0,1,0-.13c.07-.17.2-.44.36-.8q2.53-5.54,3-6.53a.45.45,0,0,1,.8-.09Zm-.53,1.63-1.31,2.75h1.85Z" class="animable" transform-origin="179.943px 432.202px"/><path id="eliqfs0aeb038" fill="#fafafa" d="M187,432.48c.28.76.49,1.35.64,1.77.37,1,.55,1.54.55,1.6a.31.31,0,0,1-.07.21.39.39,0,0,1-.35.2c-.16,0-.27-.1-.35-.29l-.07-.18c-.19-.44-.51-1.27-.94-2.49l-2,2.74a.49.49,0,0,1-.37.22.43.43,0,0,1-.22-.06.38.38,0,0,1-.2-.35v-.09a1,1,0,0,1,.21-.35c.67-.86,1.42-1.9,2.23-3.1-.09-.23-.17-.46-.24-.67-.76-2-1.13-3.06-1.13-3.13a.42.42,0,0,1,.05-.22.37.37,0,0,1,.34-.21.45.45,0,0,1,.4.24l1.18,3.19,2.36-3.22a.47.47,0,0,1,.38-.2.32.32,0,0,1,.19.05.38.38,0,0,1,.21.37.79.79,0,0,1,0,.2Z" class="animable" transform-origin="186.713px 432.17px"/><path id="el26s5e6ykike" fill="#fafafa" d="M195.72,428.11a.49.49,0,0,1,.2.05.41.41,0,0,1,.22.36c-.58,4.58-.89,7.06-1,7.43a4.49,4.49,0,0,1-.75,1.93,2.74,2.74,0,0,1-3.49.86,2.5,2.5,0,0,1-1.25-1.1.46.46,0,0,1-.05-.21.42.42,0,0,1,.06-.21.4.4,0,0,1,.36-.21.43.43,0,0,1,.33.18,2.26,2.26,0,0,0,1.81,1,1.81,1.81,0,0,0,1.41-.71,4,4,0,0,0,.78-2.23,2.09,2.09,0,0,1-.52.55,2.13,2.13,0,0,1-1.27.42l-.24,0a1.9,1.9,0,0,1-1.35-1,4.43,4.43,0,0,1-.59-2.37q0-.64.06-1.32.11-1.08.48-3.06a.56.56,0,0,1,0-.12.39.39,0,0,1,.38-.29.36.36,0,0,1,.2.06.37.37,0,0,1,.21.34,15,15,0,0,1-.19,1.61,21.55,21.55,0,0,0-.28,2.47,4.75,4.75,0,0,0,.32,1.92q.36.87,1.05.87l.14,0a1.92,1.92,0,0,0,1.06-.85,5.32,5.32,0,0,0,.87-1.95l.54-4a1.21,1.21,0,0,1,0-.18A.39.39,0,0,1,195.72,428.11Z" class="animable" transform-origin="192.87px 433.551px"/><path id="elvklb9s9wu8" fill="#f5f5f5" d="M248.59,442.92c-.12,0-.22-4.84-.22-10.81s.1-10.81.22-10.81.22,4.84.22,10.81S248.71,442.92,248.59,442.92Z" class="animable" transform-origin="248.59px 432.11px"/><path id="elf3z5ula673k" fill="#e0e0e0" d="M152.38,442.92c-.12,0-.22-4.84-.22-10.81s.1-10.81.22-10.81.22,4.84.22,10.81S152.5,442.92,152.38,442.92Z" class="animable" transform-origin="152.38px 432.11px"/><path id="eld29ukw2fb0p" fill="#f5f5f5" d="M250.65,442.92c-.12,0-.21-4.84-.21-10.81s.09-10.81.21-10.81.22,4.84.22,10.81S250.77,442.92,250.65,442.92Z" class="animable" transform-origin="250.655px 432.11px"/><path id="elx7822b1h0so" fill="#e0e0e0" d="M150.45,442.92c-.12,0-.21-4.84-.21-10.81s.09-10.81.21-10.81.22,4.84.22,10.81S150.57,442.92,150.45,442.92Z" class="animable" transform-origin="150.455px 432.11px"/><path id="el3zmthl839be" fill="#e0e0e0" d="M220.08,424.87l0,0,12.43,10,.11.09-.14,0-1.65.43-10.49,2.76h0l-9.51-4L208.08,433l-.71-.31-.18-.08c-.05,0-.07,0-.06,0l.06,0,.19.07.71.29,2.71,1.12,9.53,4h0l10.48-2.77,1.66-.43,0,.12-12.4-10,0,0v0" class="animable" transform-origin="219.874px 431.51px"/><path id="elvqutk4v3x5q" fill="#e0e0e0" d="M231 433 232 434 233 434 233 435 233 435 232 435 231 436 231 435 230 435 231 434 231 433z" class="animable" transform-origin="231.74px 434.62px"/><path id="elw7d6apotpn" fill="#e0e0e0" d="M219 437 220 438 220 437 220 438 221 439 220 438 220 439 219 438 219 438 219 438 219 437z" class="animable" transform-origin="219.755px 438.1px"/><path id="elfva95jut4vh" fill="#e0e0e0" d="M206 432 207 432 207 431 208 432 208 432 208 433 208 433 207 433 206 433 207 432 206 432z" class="animable" transform-origin="207.315px 432.36px"/><path id="elrc1n2qdq25" fill="#e0e0e0" d="M237 425 238 425 238 424 238 425 239 425 238 426 238 427 238 426 237 426 237 426 237 425z" class="animable" transform-origin="237.975px 425.54px"/><path id="elq8am3xadskb" fill="#e0e0e0" d="M219 425 220 425 220 424 220 425 221 425 220 425 220 426 220 425 220 425 220 425 219 425z" class="animable" transform-origin="220.14px 424.87px"/><path id="elmppq8vm3w3f" fill="#e0e0e0" d="M238,425.54s-4-.09-9-.3-9-.42-9-.47,4,.09,9,.3S238,425.49,238,425.54Z" class="animable" transform-origin="229px 425.15px"/><path id="elq72hmxit67" fill="#e0e0e0" d="M242.49,421.4H123.25c-1.56-3.55-2-6.91,0-9.93H242.49A11.53,11.53,0,0,1,242.49,421.4Z" class="animable" transform-origin="182.762px 416.435px"/><path id="elu4988yx4vbb" fill="#ebebeb" d="M148 414H213V418H148z" class="animable" transform-origin="180.24px 416.115px"/><path id="el6j8mwpczj7t" fill="#e0e0e0" d="M127.82,421.45a3.62,3.62,0,0,1-.94-1.2,8.73,8.73,0,0,1-.63-7.18,3.62,3.62,0,0,1,.72-1.35,11.16,11.16,0,0,1-.43,1.44,10.16,10.16,0,0,0,.61,6.95A9.52,9.52,0,0,1,127.82,421.45Z" class="animable" transform-origin="126.788px 416.585px"/><path id="ela8h2jp31l7c" fill="#e0e0e0" d="M130.4,421.45a3.62,3.62,0,0,1-.94-1.2,8.73,8.73,0,0,1-.63-7.18,3.62,3.62,0,0,1,.72-1.35,11.16,11.16,0,0,1-.43,1.44,10.16,10.16,0,0,0,.61,6.95A9.52,9.52,0,0,1,130.4,421.45Z" class="animable" transform-origin="129.368px 416.585px"/><path id="elc5zwo5kj8j8" fill="#f5f5f5" d="M237.66,421.22a20,20,0,0,0,.84-4.85,20.21,20.21,0,0,0-.78-4.87,10.07,10.07,0,0,1-.06,9.72Z" class="animable" transform-origin="238.3px 416.36px"/><path id="eltft8ioypste" fill="#f5f5f5" d="M235.45,421.19c-.14,0,.37-2.12.35-4.75s-.5-4.72-.37-4.75a11.57,11.57,0,0,1,.81,4.75A11.78,11.78,0,0,1,235.45,421.19Z" class="animable" transform-origin="235.829px 416.44px"/><path id="el7hnswsll0tu" fill="#fff" d="M286 36H471V221H286z" class="animable" transform-origin="378.38px 128.35px"/><path id="eltjxpmmhasd" fill="#ebebeb" d="M286 220H471V221H286z" class="animable" transform-origin="378.475px 220.58px"/><path id="elmicxzbxgtyk" fill="#ebebeb" d="M286 189H471V190H286z" class="animable" transform-origin="378.475px 189.6px"/><path id="eluq09m3mauxm" fill="#ebebeb" d="M286 158H471V159H286z" class="animable" transform-origin="378.475px 158.63px"/><path id="elhab3g20inm" fill="#ebebeb" d="M286 127H471V128H286z" class="animable" transform-origin="378.475px 127.65px"/><path id="eliv0mrp9s8zm" fill="#ebebeb" d="M286 96H471V97H286z" class="animable" transform-origin="378.475px 96.68px"/><path id="elnhmscv99b6l" fill="#ebebeb" d="M286 65H471V66H286z" class="animable" transform-origin="378.475px 65.71px"/><path id="el6njgydnogos" fill="#ebebeb" d="M471 36H472V221H471z" class="animable" transform-origin="470.805px 128.215px"/><path id="el4oe4d0fc9uh" fill="#ebebeb" d="M440 36H441V221H440z" class="animable" transform-origin="439.815px 128.215px"/><path id="el38e273i7ov" fill="#ebebeb" d="M409 36H410V221H409z" class="animable" transform-origin="408.825px 128.215px"/><path id="elsklxy0szdm" fill="#ebebeb" d="M378 36H379V221H378z" class="animable" transform-origin="377.825px 128.215px"/><path id="elkiibcwygk6" fill="#ebebeb" d="M347 36H348V221H347z" class="animable" transform-origin="346.835px 128.215px"/><path id="elq48fjm0eq68" fill="#ebebeb" d="M316 36H317V221H316z" class="animable" transform-origin="315.845px 128.215px"/><path id="elsk4yfokrt6r" fill="#ebebeb" d="M286 220H471V220H286z" class="animable" transform-origin="378.475px 220.575px"/><path id="elvmk8s700enf" fill="#ebebeb" d="M286 213H471V213H286z" class="animable" transform-origin="378.475px 212.835px"/><path id="elrs4ub7h076q" fill="#ebebeb" d="M286 205H471V205H286z" class="animable" transform-origin="378.475px 205.085px"/><path id="elukh8sqmgtkj" fill="#ebebeb" d="M286 197H471V197H286z" class="animable" transform-origin="378.475px 197.345px"/><path id="elqy21oqt1neq" fill="#e0e0e0" d="M286 189H471V189H286z" class="animable" transform-origin="378.475px 189.605px"/><path id="elvsty4xoas1" fill="#ebebeb" d="M286 182H471V182H286z" class="animable" transform-origin="378.475px 181.855px"/><path id="el0heb3rcj21s8" fill="#ebebeb" d="M286 174H471V174H286z" class="animable" transform-origin="378.475px 174.115px"/><path id="el9aaxdzjcvpf" fill="#ebebeb" d="M286 166H471V166H286z" class="animable" transform-origin="378.475px 166.375px"/><path id="elmwwecvc1zxd" fill="#e0e0e0" d="M286 158H471V158H286z" class="animable" transform-origin="378.475px 158.625px"/><path id="el2dahuzgkh2x" fill="#ebebeb" d="M286 151H471V151H286z" class="animable" transform-origin="378.475px 150.885px"/><path id="el630o9keo7mg" fill="#ebebeb" d="M286 143H471V143H286z" class="animable" transform-origin="378.475px 143.145px"/><path id="ell3qxoipo2y" fill="#ebebeb" d="M286 135H471V135H286z" class="animable" transform-origin="378.475px 135.395px"/><path id="eljfas898btxo" fill="#e0e0e0" d="M286 128H471V128H286z" class="animable" transform-origin="378.475px 127.655px"/><path id="eluzjnkpwi7m" fill="#ebebeb" d="M286 120H471V120H286z" class="animable" transform-origin="378.475px 119.915px"/><path id="elkxeqmr51j9" fill="#ebebeb" d="M286 112H471V112H286z" class="animable" transform-origin="378.475px 112.165px"/><path id="elaegpd65eqri" fill="#ebebeb" d="M286 104H471V104H286z" class="animable" transform-origin="378.475px 104.425px"/><path id="elz1dufh2gjg" fill="#e0e0e0" d="M286 97H471V97H286z" class="animable" transform-origin="378.475px 96.675px"/><path id="elh5bepg1dhxw" fill="#ebebeb" d="M286 89H471V89H286z" class="animable" transform-origin="378.475px 88.935px"/><path id="elklgx8q9jc" fill="#ebebeb" d="M286 81H471V81H286z" class="animable" transform-origin="378.475px 81.195px"/><path id="elq0gy4pzbni" fill="#ebebeb" d="M286 73H471V73H286z" class="animable" transform-origin="378.475px 73.445px"/><path id="elruoon00it6" fill="#e0e0e0" d="M286 66H471V66H286z" class="animable" transform-origin="378.475px 65.705px"/><path id="elum61su470o" fill="#ebebeb" d="M286 58H471V58H286z" class="animable" transform-origin="378.475px 57.965px"/><path id="elkmn9uvj35h" fill="#ebebeb" d="M286 50H471V50H286z" class="animable" transform-origin="378.475px 50.215px"/><path id="elatrqy12710q" fill="#ebebeb" d="M286 42H471V42H286z" class="animable" transform-origin="378.475px 42.475px"/><path id="eldqk59fbzobs" fill="#ebebeb" d="M471 36H471V221H471z" class="animable" transform-origin="470.805px 128.215px"/><path id="el71y88c6a71p" fill="#ebebeb" d="M463 36H463V221H463z" class="animable" transform-origin="463.055px 128.215px"/><path id="el9jnhxu0gbcl" fill="#ebebeb" d="M455 36H455V221H455z" class="animable" transform-origin="455.315px 128.215px"/><path id="el7hhpdlhifjs" fill="#ebebeb" d="M447 36H447V221H447z" class="animable" transform-origin="447.565px 128.215px"/><path id="elykh9e5s43w9" fill="#e0e0e0" d="M440 36H440V221H440z" class="animable" transform-origin="439.815px 128.215px"/><path id="elrdlpvweqdvh" fill="#ebebeb" d="M432 36H432V221H432z" class="animable" transform-origin="432.065px 128.215px"/><path id="el5caxid52j0m" fill="#ebebeb" d="M424 36H424V221H424z" class="animable" transform-origin="424.315px 128.215px"/><path id="elxwpu6b6xtxb" fill="#ebebeb" d="M416 36H416V221H416z" class="animable" transform-origin="416.575px 128.215px"/><path id="el8sgokedajwi" fill="#e0e0e0" d="M409 36H409V221H409z" class="animable" transform-origin="408.825px 128.215px"/><path id="el7la8v31yi45" fill="#ebebeb" d="M401 36H401V221H401z" class="animable" transform-origin="401.075px 128.215px"/><path id="el0o4qaag6zgii" fill="#ebebeb" d="M393 36H393V221H393z" class="animable" transform-origin="393.325px 128.215px"/><path id="elemmjgcgq7zn" fill="#ebebeb" d="M385 36H385V221H385z" class="animable" transform-origin="385.575px 128.215px"/><path id="elwmw7oif2l48" fill="#e0e0e0" d="M378 36H378V221H378z" class="animable" transform-origin="377.835px 128.215px"/><path id="eldah46aunfh5" fill="#ebebeb" d="M370 36H370V221H370z" class="animable" transform-origin="370.085px 128.215px"/><path id="el56cki81lend" fill="#ebebeb" d="M362 36H362V221H362z" class="animable" transform-origin="362.335px 128.215px"/><path id="elltlbaqkwj2i" fill="#ebebeb" d="M354 36H354V221H354z" class="animable" transform-origin="354.585px 128.215px"/><path id="ellqwo0z6dau" fill="#e0e0e0" d="M347 36H347V221H347z" class="animable" transform-origin="346.835px 128.215px"/><path id="elonblk6ju3h" fill="#ebebeb" d="M339 36H339V221H339z" class="animable" transform-origin="339.095px 128.215px"/><path id="eliz59bau4d5p" fill="#ebebeb" d="M331 36H331V221H331z" class="animable" transform-origin="331.345px 128.215px"/><path id="el0nym267rhw4d" fill="#ebebeb" d="M323 36H323V221H323z" class="animable" transform-origin="323.595px 128.215px"/><path id="elhb2tkdq7y3" fill="#e0e0e0" d="M316 36H316V221H316z" class="animable" transform-origin="315.845px 128.215px"/><path id="eli9foe2mizad" fill="#ebebeb" d="M308 36H308V221H308z" class="animable" transform-origin="308.105px 128.215px"/><path id="elcb4d23ff2vl" fill="#ebebeb" d="M300 36H300V221H300z" class="animable" transform-origin="300.355px 128.215px"/><path id="elc8eauathuxj" fill="#ebebeb" d="M292 36H292V221H292z" class="animable" transform-origin="292.605px 128.215px"/><path id="el5fqz5vw2l77" fill="#e0e0e0" d="M470.87,220.85s0-.3,0-.88,0-1.43,0-2.55c0-2.25,0-5.58,0-9.92,0-8.69,0-21.42-.06-37.61,0-32.37-.06-78.59-.11-134l.22.22-185,0h0l.26-.26c0,67.74,0,131.23,0,185l-.22-.23,134,.11,37.61.06,9.92,0H470l.87,0H467.5l-9.88,0-37.56.06-134.18.11h-.23v-.22c0-53.77,0-117.26,0-185v-.26h.28l185,0h.23v.23C471.05,91.36,471,137.63,471,170c0,16.17,0,28.89-.05,37.56,0,4.32,0,7.64,0,9.88,0,1.11,0,2,0,2.53S470.87,220.85,470.87,220.85Z" class="animable" transform-origin="378.405px 128.22px"/><path id="elfbzi9z18wrv" fill="#fff" d="M36 37H137V138H36z" class="animable" transform-origin="86.355px 87.245px"/><path id="el6fa6jvxdps8" fill="#ebebeb" d="M36 138H138V138H36z" class="animable" transform-origin="86.41px 137.83px"/><path id="el1ay3hc8zb7vj" fill="#ebebeb" d="M36 121H138V121H36z" class="animable" transform-origin="86.41px 120.84px"/><path id="elz3ry2jgq7fl" fill="#ebebeb" d="M36 104H138V104H36z" class="animable" transform-origin="86.41px 103.86px"/><path id="el0xo2luhc7tnj" fill="#ebebeb" d="M36 87H138V87H36z" class="animable" transform-origin="86.41px 86.87px"/><path id="elynoarp14ybj" fill="#ebebeb" d="M36 70H138V70H36z" class="animable" transform-origin="86.41px 69.88px"/><path id="el7ssvt99iv3y" fill="#ebebeb" d="M36 53H138V53H36z" class="animable" transform-origin="86.41px 52.9px"/><path id="eltz7wcagom4" fill="#ebebeb" d="M137 37H137V138H137z" class="animable" transform-origin="137.045px 87.175px"/><path id="el3jwrkdntrv8" fill="#ebebeb" d="M120 37H120V138H120z" class="animable" transform-origin="120.045px 87.175px"/><path id="elrewhztshrgc" fill="#ebebeb" d="M103 37H103V138H103z" class="animable" transform-origin="103.045px 87.175px"/><path id="elm5iz6dx44rj" fill="#ebebeb" d="M86 37H86V138H86z" class="animable" transform-origin="86.055px 87.175px"/><path id="el8vyza7z38ss" fill="#ebebeb" d="M69 37H69V138H69z" class="animable" transform-origin="69.055px 87.175px"/><path id="elkiut8vrnon" fill="#ebebeb" d="M52 37H52V138H52z" class="animable" transform-origin="52.065px 87.175px"/><path id="elu3v3t4u64rf" fill="#ebebeb" d="M36 138H138V138H36z" class="animable" transform-origin="86.41px 137.825px"/><path id="elr1k2s6ndhxh" fill="#ebebeb" d="M36 134H138V134H36z" class="animable" transform-origin="86.41px 133.585px"/><path id="ellcj2hdv8hl" fill="#ebebeb" d="M36 129H138V129H36z" class="animable" transform-origin="86.41px 129.335px"/><path id="elqkyym57si6" fill="#ebebeb" d="M36 125H138V125H36z" class="animable" transform-origin="86.41px 125.085px"/><path id="el2ufwshtynl5" fill="#e0e0e0" d="M36 121H138V121H36z" class="animable" transform-origin="86.41px 120.845px"/><path id="el9ncdb2qx0go" fill="#ebebeb" d="M36 117H138V117H36z" class="animable" transform-origin="86.41px 116.595px"/><path id="el62qmmue2ps3" fill="#ebebeb" d="M36 112H138V112H36z" class="animable" transform-origin="86.41px 112.345px"/><path id="elwlwzgbbx13d" fill="#ebebeb" d="M36 108H138V108H36z" class="animable" transform-origin="86.41px 108.105px"/><path id="ele32nqi8w6ft" fill="#e0e0e0" d="M36 104H138V104H36z" class="animable" transform-origin="86.41px 103.855px"/><path id="elzrf45mhz5md" fill="#ebebeb" d="M36 100H138V100H36z" class="animable" transform-origin="86.41px 99.605px"/><path id="el565onsz5itc" fill="#ebebeb" d="M36 95H138V95H36z" class="animable" transform-origin="86.41px 95.365px"/><path id="elgtkfb62lea" fill="#ebebeb" d="M36 91H138V91H36z" class="animable" transform-origin="86.41px 91.115px"/><path id="el0yxabf87dvt" fill="#e0e0e0" d="M36 87H138V87H36z" class="animable" transform-origin="86.41px 86.865px"/><path id="el291kqn8gpw4" fill="#ebebeb" d="M36 83H138V83H36z" class="animable" transform-origin="86.41px 82.625px"/><path id="elde2e3vuqm8u" fill="#ebebeb" d="M36 78H138V78H36z" class="animable" transform-origin="86.41px 78.375px"/><path id="elo17t3arzlp" fill="#ebebeb" d="M36 74H138V74H36z" class="animable" transform-origin="86.41px 74.125px"/><path id="eljk59darld" fill="#e0e0e0" d="M36 70H138V70H36z" class="animable" transform-origin="86.41px 69.885px"/><path id="el1syvegsays8" fill="#ebebeb" d="M36 66H138V66H36z" class="animable" transform-origin="86.41px 65.635px"/><path id="elpbpp49jwwq" fill="#ebebeb" d="M36 61H138V61H36z" class="animable" transform-origin="86.41px 61.385px"/><path id="elps14qpq05k" fill="#ebebeb" d="M36 57H138V57H36z" class="animable" transform-origin="86.41px 57.145px"/><path id="el5xk3sopz8jh" fill="#e0e0e0" d="M36 53H138V53H36z" class="animable" transform-origin="86.41px 52.895px"/><path id="elbc7vnz2vc1" fill="#ebebeb" d="M36 49H138V49H36z" class="animable" transform-origin="86.41px 48.645px"/><path id="elh503w5yl877" fill="#ebebeb" d="M36 44H138V44H36z" class="animable" transform-origin="86.41px 44.405px"/><path id="elr9gx82u9c2" fill="#ebebeb" d="M36 40H138V40H36z" class="animable" transform-origin="86.41px 40.155px"/><path id="elhytf0zabu1v" fill="#ebebeb" d="M137 37H137V138H137z" class="animable" transform-origin="137.045px 87.175px"/><path id="el695f81l0u7i" fill="#ebebeb" d="M133 37H133V138H133z" class="animable" transform-origin="132.795px 87.175px"/><path id="eldwhn0omhqq5" fill="#ebebeb" d="M128 37H128V138H128z" class="animable" transform-origin="128.545px 87.175px"/><path id="elv3vvheqbia" fill="#ebebeb" d="M124 37H124V138H124z" class="animable" transform-origin="124.295px 87.175px"/><path id="el1hq7vltnb7" fill="#e0e0e0" d="M120 37H120V138H120z" class="animable" transform-origin="120.045px 87.175px"/><path id="elxl9xoelm6p" fill="#ebebeb" d="M116 37H116V138H116z" class="animable" transform-origin="115.795px 87.175px"/><path id="elyt8b3jnp3p" fill="#ebebeb" d="M111 37H111V138H111z" class="animable" transform-origin="111.555px 87.175px"/><path id="el7abjh35ile" fill="#ebebeb" d="M107 37H107V138H107z" class="animable" transform-origin="107.305px 87.175px"/><path id="el8rgtq0z6vej" fill="#e0e0e0" d="M103 37H103V138H103z" class="animable" transform-origin="103.055px 87.175px"/><path id="elpf4uf85bul9" fill="#ebebeb" d="M99 37H99V138H99z" class="animable" transform-origin="98.805px 87.175px"/><path id="elfp0bo2kyheb" fill="#ebebeb" d="M94 37H94V138H94z" class="animable" transform-origin="94.555px 87.175px"/><path id="elr75agtr1f6c" fill="#ebebeb" d="M90 37H90V138H90z" class="animable" transform-origin="90.305px 87.175px"/><path id="el3z42by1ldnp" fill="#e0e0e0" d="M86 37H86V138H86z" class="animable" transform-origin="86.055px 87.175px"/><path id="elvvwgyxvx68t" fill="#ebebeb" d="M82 37H82V138H82z" class="animable" transform-origin="81.805px 87.175px"/><path id="elz5x58i05yf" fill="#ebebeb" d="M77 37H77V138H77z" class="animable" transform-origin="77.555px 87.175px"/><path id="elobtnk3n34y" fill="#ebebeb" d="M73 37H73V138H73z" class="animable" transform-origin="73.305px 87.175px"/><path id="elff9ri1ykd9k" fill="#e0e0e0" d="M69 37H69V138H69z" class="animable" transform-origin="69.055px 87.175px"/><path id="elnfdg29gzc2c" fill="#ebebeb" d="M65 37H65V138H65z" class="animable" transform-origin="64.815px 87.175px"/><path id="elbt4ej6e6ab5" fill="#ebebeb" d="M60 37H60V138H60z" class="animable" transform-origin="60.565px 87.175px"/><path id="elzge2jl1uy9k" fill="#ebebeb" d="M56 37H56V138H56z" class="animable" transform-origin="56.315px 87.175px"/><path id="elyuv9y2csrz" fill="#e0e0e0" d="M52 37H52V138H52z" class="animable" transform-origin="52.065px 87.175px"/><path id="ellyf73n3c66p" fill="#ebebeb" d="M48 37H48V138H48z" class="animable" transform-origin="47.815px 87.175px"/><path id="elldhve3uy0v" fill="#ebebeb" d="M43 37H43V138H43z" class="animable" transform-origin="43.565px 87.175px"/><path id="els54i9lskjqg" fill="#ebebeb" d="M39 37H39V138H39z" class="animable" transform-origin="39.315px 87.175px"/><path id="elhlnvo5fngav" fill="#e0e0e0" d="M137.08,138s0-.17,0-.49,0-.79,0-1.4c0-1.25,0-3.08,0-5.46,0-4.77,0-11.75-.06-20.63,0-17.75-.07-43.09-.11-73.48l.22.23-101.44,0h0l.26-.26c0,37.15,0,72,0,101.46l-.22-.23,73.47.12,20.64,0,5.45,0h1.41l.48,0h-1.84l-5.41,0-20.58.06-73.62.11H35.4V138c0-29.49,0-64.31,0-101.46v-.26h.27l101.44,0h.23v.22c-.05,30.45-.09,55.84-.12,73.62,0,8.86,0,15.82-.06,20.59,0,2.36,0,4.17,0,5.41,0,.6,0,1.06,0,1.38S137.08,138,137.08,138Z" class="animable" transform-origin="86.37px 87.155px"/><path id="el53smde80il8" fill="#e0e0e0" d="M55.71,328.17l6.91-37.84-1.86-1.42L44.34,310.56a3,3,0,0,1,.19,3.79,3,3,0,0,1-4.81-3.65,3,3,0,0,1,3.7-.83l16.43-21.65-1.76-1.33L22.59,304C32.64,312.5,26,323.36,26,323.36l10.11,7.8C43.85,321,55.71,328.17,55.71,328.17Z" class="animable" transform-origin="42.605px 309.025px"/><path id="elyi1po5ao7v" fill="#e0e0e0" d="M21 322 38 335 33 342 16 328 21 322z" class="animable" transform-origin="26.995px 332.17px"/></g><g id="freepik--Table--inject-2" class="animable"><path id="elgmu42etd5jh" fill="#263238" d="M463.22,466.78c0,.15-95.92.26-214.21.26s-214.23-.11-214.23-.26,95.9-.26,214.23-.26S463.22,466.64,463.22,466.78Z" class="animable" transform-origin="249px 466.78px"/></g><g id="freepik--Window--inject-2" class="animable"><path id="el8pw4rudg5mq" fill="#fff" d="M79 318H218V402H79z" class="animable" transform-origin="148.51px 359.895px"/><path id="el8hvxm4f5zh" fill="#ebebeb" d="M79 304H218V320H79z" class="animable" transform-origin="148.51px 311.865px"/><path id="el8v5gczlbza4" fill="#263238" d="M122.23,353.72H99.63v-22.6h22.6Zm-21.6-1h20.6v-20.6h-20.6Z" class="animable" transform-origin="110.93px 342.42px"/><path id="ele4m9cbp6qsh" fill="#263238" d="M122.23,390.49H99.63V367.88h22.6Zm-21.6-1h20.6V368.88h-20.6Z" class="animable" transform-origin="110.93px 379.185px"/><path id="el1lm931oj04j" fill="#e0e0e0" d="M194.88,350.07h-52a6.54,6.54,0,0,1-6.54-6.54h0a6.53,6.53,0,0,1,6.54-6.53h52a6.53,6.53,0,0,1,6.54,6.53h0A6.54,6.54,0,0,1,194.88,350.07Z" class="animable" transform-origin="168.88px 343.535px"/><circle id="el9clbn42gb3e" cx="142.56" cy="342.42" r="11.03" fill="#407bff" class="animable" transform-origin="142.56px 342.42px"/><path id="eln008i551is" fill="#e0e0e0" d="M194.88,385.19h-52a6.54,6.54,0,0,1-6.54-6.53h0a6.54,6.54,0,0,1,6.54-6.54h52a6.54,6.54,0,0,1,6.54,6.54h0A6.54,6.54,0,0,1,194.88,385.19Z" class="animable" transform-origin="168.88px 378.655px"/><circle id="elbvjohymj65" cx="169.66" cy="377.55" r="11.03" fill="#407bff" class="animable" transform-origin="169.66px 377.55px"/><path id="ele0bzwwskq3" fill="#263238" d="M110.53,389.93c-.15,0-.26-4.8-.26-10.72s.11-10.71.26-10.71.26,4.79.26,10.71S110.67,389.93,110.53,389.93Z" class="animable" transform-origin="110.53px 379.215px"/><path id="elv1ldthshlma" fill="#263238" d="M121.73,379.46c0,.14-4.85.26-10.84.26s-10.83-.12-10.83-.26,4.85-.26,10.83-.26S121.73,379.31,121.73,379.46Z" class="animable" transform-origin="110.895px 379.46px"/><path id="el2gtcxixt1v2" fill="#263238" d="M218.22,402s0-.61,0-1.79,0-2.93,0-5.21c0-4.57,0-11.26,0-19.83,0-17.11-.07-41.67-.11-71.53l.21.21-139.41.05h0l.26-.26c0,35.19,0,68.6,0,98.36l-.24-.23,100.52.11L208,402l7.61,0h2.64l-.65,0h-1.94l-7.56,0-28.59.06-100.68.12h-.24V402c0-29.76,0-63.17,0-98.36v-.26h.27l139.41.05h.21v.21c-.05,29.91-.09,54.52-.11,71.67,0,8.54,0,15.22-.06,19.77,0,2.26,0,4,0,5.17S218.22,402,218.22,402Z" class="animable" transform-origin="148.535px 352.78px"/><path id="elh5bjwa41mfg" fill="#fff" d="M88.79,312a2.38,2.38,0,1,1-2.38-2.38A2.39,2.39,0,0,1,88.79,312Z" class="animable" transform-origin="86.41px 312px"/><circle id="el7715i7j17n3" cx="93.6" cy="312.03" r="2.38" fill="#fff" class="animable" transform-origin="93.6px 312.03px"/><circle id="elj10uh8nstib" cx="100.79" cy="312.03" r="2.38" fill="#fff" class="animable" transform-origin="100.79px 312.03px"/></g><g id="freepik--Grid--inject-2" class="animable animator-active" style="animation:1.5s Infinite linear shake;animation-delay:0s"><path id="eltgi6g63ewu" fill="#fff" d="M78 95H267V281H78z" class="animable" transform-origin="172.205px 188.22px"/><path id="el8mwlccib0yf" fill="#ebebeb" d="M78 281H267V282H78z" class="animable" transform-origin="172.205px 281.2px"/><path id="elct0pmmrekcn" fill="#ebebeb" d="M78 94H267V95H78z" class="animable" transform-origin="172.205px 94.61px"/><path id="elahj4a6rkbx" fill="#ebebeb" d="M78 234H267V235H78z" class="animable" transform-origin="172.205px 234.23px"/><path id="elybgeh9x82np" fill="#ebebeb" d="M78 187H267V188H78z" class="animable" transform-origin="172.205px 187.26px"/><path id="ell1e34tn5xm" fill="#ebebeb" d="M78 140H267V141H78z" class="animable" transform-origin="172.205px 140.3px"/><path id="eli86nqm2x6eb" fill="#ebebeb" d="M266 95H267V282H266z" class="animable" transform-origin="266.205px 188.315px"/><path id="el8aj6t6yj7f" fill="#ebebeb" d="M219 95H220V282H219z" class="animable" transform-origin="219.205px 188.315px"/><path id="el6zn7y0vhto9" fill="#ebebeb" d="M172 95H173V282H172z" class="animable" transform-origin="172.205px 188.315px"/><path id="eltncw5oec99q" fill="#ebebeb" d="M125 95H126V282H125z" class="animable" transform-origin="125.215px 188.315px"/><path id="elsgk7nurnw2l" fill="#ebebeb" d="M78 95H79V282H78z" class="animable" transform-origin="78.215px 188.315px"/><path id="el0avsq8zftsaj" fill="#ebebeb" d="M78 269H267V269H78z" class="animable" transform-origin="172.205px 269.455px"/><path id="elj34d1oy7xpb" fill="#ebebeb" d="M78 258H267V258H78z" class="animable" transform-origin="172.205px 257.715px"/><path id="elvaq48k5q6c" fill="#ebebeb" d="M78 246H267V246H78z" class="animable" transform-origin="172.205px 245.975px"/><path id="el6pkl06g23mf" fill="#e0e0e0" d="M78 234H267V234H78z" class="animable" transform-origin="172.205px 234.235px"/><path id="eltwuuaulk5wh" fill="#ebebeb" d="M78 222H267V222H78z" class="animable" transform-origin="172.205px 222.495px"/><path id="elcpgg04qb0s" fill="#ebebeb" d="M78 211H267V211H78z" class="animable" transform-origin="172.205px 210.745px"/><path id="eljiiyb0s9u4" fill="#ebebeb" d="M78 199H267V199H78z" class="animable" transform-origin="172.205px 199.005px"/><path id="eletd9s9ob99v" fill="#e0e0e0" d="M78 187H267V187H78z" class="animable" transform-origin="172.205px 187.265px"/><path id="el6h4dir6yf12" fill="#ebebeb" d="M78 175H267V175H78z" class="animable" transform-origin="172.205px 175.525px"/><path id="el8yk9e65urqm" fill="#ebebeb" d="M78 164H267V164H78z" class="animable" transform-origin="172.205px 163.775px"/><path id="elpsga9x4qwa9" fill="#ebebeb" d="M78 152H267V152H78z" class="animable" transform-origin="172.205px 152.035px"/><path id="elznp4pjkflv" fill="#e0e0e0" d="M78 140H267V140H78z" class="animable" transform-origin="172.205px 140.295px"/><path id="el6qpauehllh3" fill="#ebebeb" d="M78 128H267V128H78z" class="animable" transform-origin="172.205px 128.555px"/><path id="el7v5av3f4qed" fill="#ebebeb" d="M78 117H267V117H78z" class="animable" transform-origin="172.205px 116.815px"/><path id="el1blaza05u7w" fill="#ebebeb" d="M78 105H267V105H78z" class="animable" transform-origin="172.205px 105.065px"/><path id="elk8xv92oygak" fill="#ebebeb" d="M266 95H266V282H266z" class="animable" transform-origin="266.2px 188.315px"/><path id="el6vdlca8k82k" fill="#ebebeb" d="M254 95H254V282H254z" class="animable" transform-origin="254.45px 188.315px"/><path id="elocf8pgj8yn" fill="#ebebeb" d="M243 95H243V282H243z" class="animable" transform-origin="242.7px 188.315px"/><path id="el6dqsd0h5s57" fill="#ebebeb" d="M231 95H231V282H231z" class="animable" transform-origin="230.95px 188.315px"/><path id="elgz9chmx4yu" fill="#e0e0e0" d="M219 95H219V282H219z" class="animable" transform-origin="219.2px 188.315px"/><path id="elonz4di106g" fill="#ebebeb" d="M207 95H207V282H207z" class="animable" transform-origin="207.45px 188.315px"/><path id="el6z2ks0r03hi" fill="#ebebeb" d="M196 95H196V282H196z" class="animable" transform-origin="195.7px 188.315px"/><path id="el6k429qrwimw" fill="#ebebeb" d="M184 95H184V282H184z" class="animable" transform-origin="183.95px 188.315px"/><path id="elfe5jifd5sdd" fill="#e0e0e0" d="M172 95H172V282H172z" class="animable" transform-origin="172.2px 188.315px"/><path id="eld4cfnxcbdib" fill="#ebebeb" d="M160 95H160V282H160z" class="animable" transform-origin="160.46px 188.315px"/><path id="elp0tggb40umj" fill="#ebebeb" d="M149 95H149V282H149z" class="animable" transform-origin="148.71px 188.315px"/><path id="eltyp97p0w4jj" fill="#ebebeb" d="M137 95H137V282H137z" class="animable" transform-origin="136.96px 188.315px"/><path id="elr903hl3vdgh" fill="#e0e0e0" d="M125 95H125V282H125z" class="animable" transform-origin="125.21px 188.315px"/><path id="elkuto01qo8y" fill="#ebebeb" d="M113 95H113V282H113z" class="animable" transform-origin="113.46px 188.315px"/><path id="elux0on4xcffm" fill="#ebebeb" d="M102 95H102V282H102z" class="animable" transform-origin="101.71px 188.315px"/><path id="elvxgu576hbbt" fill="#ebebeb" d="M90 95H90V282H90z" class="animable" transform-origin="89.96px 188.315px"/><path id="elywk0ozy31ni" fill="#e0e0e0" d="M78 95H78V282H78z" class="animable" transform-origin="78.21px 188.315px"/><path id="el4urc3g59y7m" fill="#263238" d="M74 90H83V99H74z" class="animable" transform-origin="78.61px 95.02px"/><path id="elw25ipbnrhn" fill="#263238" d="M74 277H83V286H74z" class="animable" transform-origin="78.61px 281.42px"/><path id="elfmxfl26vy4o" fill="#263238" d="M261 90H270V99H261z" class="animable" transform-origin="266.1px 95.02px"/><path id="elgz3uv3c0mqe" fill="#263238" d="M261 277H270V286H261z" class="animable" transform-origin="266.1px 281.61px"/><path id="eldww4gkk2o9a" fill="#263238" d="M267.06,281.61c0-1.92-.09-75-.22-187.41l.22.23-189.23,0h0l.26-.26c0,68.59,0,132.89,0,187.41l-.23-.23,189.25.23h-.86l-2.59,0-10.11,0-38.43.06-137.26.12h-.23v-.23c0-54.52,0-118.82,0-187.41v-.26h.28l189.23,0h.23v.22c-.05,56.25-.09,103.13-.12,136,0,16.38,0,29.25-.06,38,0,4.37,0,7.73,0,10,0,1.13,0,2,0,2.56S267.06,281.61,267.06,281.61Z" class="animable" transform-origin="172.5px 187.81px"/></g><g id="freepik--Character--inject-2" class="animable"><path id="ellavdo29ptn" fill="#ffbe9d" d="M267.8,279.26c.7.39,9.26,21.79,9.76,24.26a83.08,83.08,0,0,1,1.15,20.67c-.82,8.43-2.14,20.54-2.14,20.54l-31.51.76,1.24-20.36s-5.48-6.13-5.23-10.5c.31-5.43,5.08-5.32,5.08-5.32s-2.31-6.94,4.63-7.6c0,0,3.43-7.11,8.74-5.79s7.29,3.31,7.29,3.31l-5.23-14.15a4.88,4.88,0,0,1,1.82-5.8A4,4,0,0,1,267.8,279.26Z" class="animable" transform-origin="259.986px 312.05px"/><path id="elblqpr7rpbq6" fill="#eb996e" d="M260.84,315.65c-.08.05-.65-.78-1.82-1.88a15.49,15.49,0,0,0-2.2-1.73,17.72,17.72,0,0,0-3-1.54,16.68,16.68,0,0,0-6.1-1.08c-1.6,0-2.59.23-2.61.14a2.27,2.27,0,0,1,.68-.22,9.81,9.81,0,0,1,1.91-.29,15.29,15.29,0,0,1,6.31,1,17,17,0,0,1,3.13,1.63,13.42,13.42,0,0,1,2.19,1.87A9.89,9.89,0,0,1,260.5,315C260.74,315.41,260.87,315.63,260.84,315.65Z" class="animable" transform-origin="252.977px 312.34px"/><path id="elq920pqej42r" fill="#eb996e" d="M264.81,308.73c-.08,0-.59-.74-1.63-1.82a16.42,16.42,0,0,0-4.71-3.41,16.65,16.65,0,0,0-5.61-1.54c-1.5-.13-2.44,0-2.45-.12a6.85,6.85,0,0,1,2.47-.24,14.69,14.69,0,0,1,10.57,5.06A7.23,7.23,0,0,1,264.81,308.73Z" class="animable" transform-origin="257.61px 305.153px"/><path id="elggutbf30x5p" fill="#eb996e" d="M270.55,304.2a19,19,0,0,1-1.94-2.41,19.31,19.31,0,0,1-2-2.37,8.93,8.93,0,0,1,3.91,4.78Z" class="animable" transform-origin="268.58px 301.81px"/><path id="eld22efaspyv6" fill="#eb996e" d="M246.15,327.44a47,47,0,0,1,2.21-9.66,47,47,0,0,1-2.21,9.66Z" class="animable" transform-origin="247.255px 322.61px"/><path id="eleis889r50im" fill="#ffbe9d" d="M286.3,372.58l-5.25,7L277,334.42l-31.89,9.17s-3,71.23-1.9,82.94c1.18,12.78,1.44,13.42,4.68,19.25,4.15,7.46,18.6,12.66,26.85,10.48,8.41-2.23,17.1-13.43,23.7-20.14,12-12.21,30.85-35.83,30.85-35.83Z" class="animable" transform-origin="286.129px 395.59px"/><path id="eljauvmsevoxd" fill="#eb996e" d="M285.48,373.67c.14.1-1.19,2-3.3,5s-5,7.3-8,12.11-5.5,9.28-7.28,12.54-2.89,5.28-3,5.21.7-2.22,2.31-5.59a142.8,142.8,0,0,1,15.32-24.75C283.81,375.28,285.37,373.58,285.48,373.67Z" class="animable" transform-origin="274.69px 391.099px"/><path id="elrxq04hjhuub" fill="#ffbe9d" d="M418.86,180.44c-3.12-3.16-109.51-86.76-109.51-86.76l-19.5,26,96.48,86S422,183.59,418.86,180.44Z" class="animable" transform-origin="354.453px 149.68px"/><path id="ellrvozixb6z" fill="#ffbe9d" d="M309.35,93.68,295.63,69.12,278.06,54.44a4.49,4.49,0,0,0-1.21,6,28.5,28.5,0,0,0,5.78,6.5s-8.18.48-8.18,3.61c0,0-9.63,2.65-8.43,8.91,0,0-4.09,7.94-2.41,10.11a4.31,4.31,0,0,0,6.74,0c1.93-2.17,5.3-3.13,9.15-2.89s8.67,6.74,8.19,12.76-3.86,8.66-8.43,7.7-8.6-7.14-12-6.66-2.85,3.87-1,5.79,11,12.42,13,13.39,8.91-.24,10.59,0S309.35,93.68,309.35,93.68Z" class="animable" transform-origin="286.278px 87.2413px"/><path id="elwq7u6bhuun" fill="#eb996e" d="M286.77,80.36a7.35,7.35,0,0,0-2.06-2.5,8.17,8.17,0,0,0-3.19-1.4,17.5,17.5,0,0,0-4.32-.32,24.56,24.56,0,0,0-7.75,1.57c-1.9.73-3,1.37-3.05,1.29a3,3,0,0,1,.73-.52,18.45,18.45,0,0,1,2.18-1.11,22.27,22.27,0,0,1,7.87-1.75,16.77,16.77,0,0,1,4.45.37,8.24,8.24,0,0,1,3.31,1.58,5.94,5.94,0,0,1,1.56,1.92A1.92,1.92,0,0,1,286.77,80.36Z" class="animable" transform-origin="276.585px 77.9793px"/><path id="elhtpdlwa60ge" fill="#eb996e" d="M288,72.87a29.55,29.55,0,0,0-6.34-2.18,28.8,28.8,0,0,0-6.7-.12,5.42,5.42,0,0,1,1.94-.5,15.77,15.77,0,0,1,4.85.11,15.59,15.59,0,0,1,4.59,1.56A5.45,5.45,0,0,1,288,72.87Z" class="animable" transform-origin="281.48px 71.4017px"/><path id="eltf296xy582" fill="#eb996e" d="M293,72.49a17,17,0,0,0-4.66-3.84,16.72,16.72,0,0,0-5.84-1.49,4.16,4.16,0,0,1,1.82-.15A11.13,11.13,0,0,1,292,70.93,4.25,4.25,0,0,1,293,72.49Z" class="animable" transform-origin="287.75px 69.7299px"/><path id="elgac1vcdf218" fill="#407bff" d="M337.72,361.74a80.25,80.25,0,0,0-16.41,37.73c-4,27.71,16,37.37,16,37.37l-.49,29.94h120c-.18.2.66-50.86-.41-90.66s-18.58-80.75-18.58-80.75-15.93-9.21-27.89-8.2-64,8.13-64,8.13Z" class="animable" transform-origin="388.873px 376.937px"/><path id="elcrrznw8apkl" fill="#407bff" d="M345.94,295.3s-20,2.89-38.54,32C288.23,357.39,281,368.93,281,368.93l53,36.58s30.1-45.38,33.86-55.11S375.88,294.38,345.94,295.3Z" class="animable" transform-origin="325.753px 350.398px"/><g id="elq00lps9apg"><g id="el0j71zgqu0cqk" class="animable" opacity=".2"><path id="el9mjp35mmt2n" d="M320.79,410.66l15.36,4.06s29.85-39.57,31-61.89L334.4,403.64l-5.16-3.35Z" class="animable" transform-origin="343.97px 383.775px"/></g></g><path id="els027k3srcq" fill="#407bff" d="M444.38,254.51s12.44,38.85,10.73,63c-1.08,15.37-1.83,26.14-1.83,26.14l-38.43-57.21Z" class="animable" transform-origin="435.061px 299.08px"/><path id="ellwgwqxd5ck" fill="#263238" d="M281,368.93s.1,0,.27.15l.77.47,3,1.88,11.08,7.13,38.43,24.87-.34.08,17.36-26.92c3.58-5.56,7.08-11,10.46-16.21l5-7.7a37.18,37.18,0,0,0,3.61-7.94,62.9,62.9,0,0,0,2.06-8.07,62.18,62.18,0,0,0,1-7.79,36.38,36.38,0,0,0-1.24-13.94,29.41,29.41,0,0,0-5.75-10,27.49,27.49,0,0,0-6.73-5.58,27,27,0,0,0-5.08-2.24l-1.4-.37-.47-.15s.17,0,.49.09l1.41.33a25,25,0,0,1,5.15,2.16,27.48,27.48,0,0,1,6.85,5.57,29.65,29.65,0,0,1,5.88,10.08,36.59,36.59,0,0,1,1.32,14.09,67.85,67.85,0,0,1-3.07,16,37.1,37.1,0,0,1-3.64,8.05l-5,7.72L352,376.87l-17.39,26.9-.13.21-.21-.14-38.33-25-11-7.24L282,369.62l-.75-.51A2.38,2.38,0,0,1,281,368.93Z" class="animable" transform-origin="327.659px 350.29px"/><path id="el0qgg552jf2rr" fill="#263238" d="M451.77,331.8a1.48,1.48,0,0,1,.07.3l.14.88c.12.81.28,1.94.49,3.37.43,2.94,1,7.19,1.56,12.46s1.19,11.55,1.75,18.54,1,14.68,1.32,22.76c.64,16.17.61,30.83.42,41.42-.09,5.3-.21,9.59-.33,12.55-.06,1.46-.1,2.6-.14,3.41l-.05.89a1.16,1.16,0,0,1,0,.3,1,1,0,0,1,0-.3v-.89c0-.82,0-2,0-3.41,0-3,.1-7.28.16-12.55.1-10.6.07-25.24-.57-41.4-.32-8.07-.78-15.76-1.28-22.74s-1.08-13.27-1.64-18.54-1-9.53-1.39-12.47c-.17-1.44-.3-2.58-.39-3.39,0-.36-.07-.65-.09-.88A1.43,1.43,0,0,1,451.77,331.8Z" class="animable" transform-origin="454.705px 390.24px"/><path id="elip1n13gz62" fill="#263238" d="M448.24,326.69s-.09-.14-.22-.42-.31-.75-.52-1.24-.49-1.21-.84-2-.72-1.63-1.22-2.55-1-1.95-1.62-3-1.32-2.17-2.06-3.33a59.95,59.95,0,0,0-12-13.26c-1.09-.85-2.11-1.68-3.13-2.37s-1.95-1.35-2.83-1.91-1.71-1-2.42-1.45-1.35-.76-1.87-1l-1.19-.64a1.89,1.89,0,0,1-.4-.25s.16,0,.44.16l1.24.55c.54.24,1.19.55,1.92.95s1.58.83,2.47,1.4,1.88,1.14,2.89,1.86,2.07,1.51,3.18,2.36a60.43,60.43,0,0,1,6.6,6.2,62.15,62.15,0,0,1,5.54,7.16c.73,1.18,1.45,2.29,2,3.39s1.13,2.11,1.58,3.06.82,1.82,1.15,2.59.58,1.45.77,2l.43,1.29A2.51,2.51,0,0,1,448.24,326.69Z" class="animable" transform-origin="433.08px 309.98px"/><path id="elgk2avhgjj1r" fill="#fff" d="M351.93,375s-.08-.27-.32-.72a4.65,4.65,0,0,0-1.51-1.63,8.86,8.86,0,0,0-3.3-1.25c-1.37-.28-3-.23-4.75-.42a11.91,11.91,0,0,1-2.76-.6,5.83,5.83,0,0,1-2.54-1.76,6.27,6.27,0,0,1-1.28-3.05,11.64,11.64,0,0,1,.08-3.48c.38-2.35,1.37-4.64,1.69-7.13a8.28,8.28,0,0,0-.29-3.73,8.16,8.16,0,0,0-2.09-3.22,13,13,0,0,0-6.87-3.31,46.87,46.87,0,0,0-7.28-.51,35.34,35.34,0,0,1-6.66-.59,14,14,0,0,1-5.4-2.21,9.07,9.07,0,0,1-3-3.71,7.79,7.79,0,0,1-.71-3.56,5.88,5.88,0,0,1,.55-2.23,4.64,4.64,0,0,1,.3-.52c.07-.11.11-.17.12-.16a6.68,6.68,0,0,0-.77,2.91,7.8,7.8,0,0,0,.77,3.44,8.91,8.91,0,0,0,3,3.53,14,14,0,0,0,5.28,2.09,36,36,0,0,0,6.58.53,46,46,0,0,1,7.36.49,13.55,13.55,0,0,1,7.15,3.43,8.7,8.7,0,0,1,2.21,3.44,8.59,8.59,0,0,1,.3,4c-.34,2.59-1.35,4.88-1.72,7.15s-.22,4.6,1.07,6.18,3.3,2.05,5,2.26,3.36.2,4.76.51a8.91,8.91,0,0,1,3.37,1.36,4.47,4.47,0,0,1,1.48,1.75A2.32,2.32,0,0,1,351.93,375Z" class="animable" transform-origin="328.432px 353.104px"/><path id="eljhzs0rdp6f" fill="#fff" d="M453.7,368.13s0,.1-.05.3-.1.48-.19.86a17.46,17.46,0,0,1-1.2,3.19,18.88,18.88,0,0,1-3.09,4.43,18.12,18.12,0,0,1-5.83,4.13,17.59,17.59,0,0,1-8.53,1.41,18.37,18.37,0,0,1-9.31-3.4c-2.88-2.09-5.07-5.13-8.07-7.39a13.63,13.63,0,0,0-2.42-1.43,8.46,8.46,0,0,0-1.34-.46l-.68-.2-.71-.1a12.82,12.82,0,0,0-5.77.6c-3.8,1.23-7.13,3.39-10.46,5.21a33.49,33.49,0,0,1-10.27,3.9c-6.9,1.42-13.66-.21-17.76-3.65A17.12,17.12,0,0,1,361.65,365a13.55,13.55,0,0,1-.17-2c0-.57,0-1.06.07-1.45s.1-.65.14-.87a1.21,1.21,0,0,1,.06-.3,15.9,15.9,0,0,0,.1,4.55,17.11,17.11,0,0,0,6.39,10.3c4.05,3.33,10.66,4.89,17.45,3.47a33.18,33.18,0,0,0,10.11-3.88c3.32-1.81,6.66-4,10.56-5.26a13.29,13.29,0,0,1,6-.61l.74.11.73.2a10.1,10.1,0,0,1,1.4.49,14,14,0,0,1,2.51,1.49c3.08,2.34,5.26,5.38,8.06,7.41a17.88,17.88,0,0,0,9.06,3.36,17.51,17.51,0,0,0,8.35-1.31,18.1,18.1,0,0,0,5.76-4,18.4,18.4,0,0,0,4.4-7.45l.24-.85A.87.87,0,0,1,453.7,368.13Z" class="animable" transform-origin="407.59px 371.446px"/><path id="elvc9r92ugmjj" fill="#fff" d="M452,295a14.65,14.65,0,0,0-.9-3.88,12,12,0,0,0-2.33-3.59,11.6,11.6,0,0,0-4.3-2.95c-3.51-1.59-7.06.13-9.6-.78a4.14,4.14,0,0,1-2.39-1.81,2.32,2.32,0,0,1-.27-.78.93.93,0,0,1,0-.29,7.06,7.06,0,0,0,.46,1,4.05,4.05,0,0,0,2.32,1.57,11.52,11.52,0,0,0,4.28,0c.41-.05.84-.08,1.28-.1s.9,0,1.36,0a10.35,10.35,0,0,1,2.76.69,11.7,11.7,0,0,1,4.46,3.1,11.86,11.86,0,0,1,2.32,3.79,9.72,9.72,0,0,1,.62,2.92A3.81,3.81,0,0,1,452,295Z" class="animable" transform-origin="442.141px 287.96px"/><path id="el948e7c8bwis" fill="#fff" d="M455.78,441a1.54,1.54,0,0,1-.17.3c-.14.21-.31.5-.54.85a20.74,20.74,0,0,1-2.38,3.07,27,27,0,0,1-12.13,7.33,28.25,28.25,0,0,1-9.81,1.06A24.45,24.45,0,0,1,420,450.23c-3.46-2-6.62-4.81-10.18-7.24A26.21,26.21,0,0,0,404,439.9a13.94,13.94,0,0,0-6.57-.8,18.43,18.43,0,0,0-6.34,2.09,51.5,51.5,0,0,0-5.54,3.52c-3.52,2.5-6.93,5-10.71,6.48a30.67,30.67,0,0,1-11.11,2.11,33.68,33.68,0,0,1-9.77-1.4,34.7,34.7,0,0,1-7.45-3.31c-1-.64-1.93-1.28-2.76-1.88s-1.53-1.24-2.14-1.83l-1.58-1.59c-.44-.48-.76-.93-1-1.27l-.62-.8c-.14-.18-.21-.27-.2-.28a1.86,1.86,0,0,1,.24.25l.66.76c.29.33.63.77,1.07,1.23s1,1,1.6,1.56,1.37,1.12,2.16,1.77,1.75,1.21,2.76,1.83a35.44,35.44,0,0,0,7.4,3.21,33.88,33.88,0,0,0,9.66,1.32,30.42,30.42,0,0,0,10.95-2.12c3.69-1.43,7.06-3.95,10.58-6.46a53.36,53.36,0,0,1,5.6-3.56,19.19,19.19,0,0,1,6.52-2.15,14.47,14.47,0,0,1,6.8.83,27,27,0,0,1,5.86,3.15c3.58,2.47,6.73,5.24,10.14,7.26a24,24,0,0,0,10.58,3.34,28.09,28.09,0,0,0,9.67-1,27.28,27.28,0,0,0,12.08-7.12,23.36,23.36,0,0,0,2.44-3c.25-.34.44-.61.58-.82A2.42,2.42,0,0,1,455.78,441Z" class="animable" transform-origin="396.995px 446.078px"/><path id="elspglwjkl91" fill="#263238" d="M443.16,236.73C440.66,224,435.4,212,431.4,199.61c-4.67-14.39-8.29-30.34-19.9-40-7.66-6.41-17.72-9.05-27.5-11-8.87-1.8-18.05-3.2-26.91-1.36-4.42.92-8.65,2.63-13,3.69-5.09,1.23-10.46,1.61-15.22,3.8-9.84,4.53-14.87,15.77-16.34,26.5s-.26,21.69-1.8,32.42a148.22,148.22,0,0,1-3.36,15.22c-4.54,9.79-9.51,19.58-8.8,30.07.52,7.59,4,14.62,5.68,22s1,16.33-5,21a10.92,10.92,0,0,0,18.31-7.23,7.88,7.88,0,0,0,3,2.49c3,1.37,6.49,1.09,9.79.77,9.53-.91,19.43-2,27.72-6.63l46.68-4c12,4.88,26.57-1.88,33.5-12.88S445.67,249.48,443.16,236.73Z" class="animable" transform-origin="371.524px 225.621px"/><path id="elcf3f3ifrk5w" fill="#263238" d="M348.51,157.13c-4.52.91-9.28.24-13.72,1.49-6.42,1.81-11.19,7.46-13.65,13.67s-2.95,13-3.41,19.65l-1.26,17.9a55.15,55.15,0,0,1-1.6,11.4c-1.17,4.13-4.38,15.1-4.59,20.47-.68,17.45,5.56,31.63,13.34,40.45,4.12,4.66,23.29,4.78,29.39,6,2.69-2.35,9.4-2.33,12.09-4.68.46-.4-19.5-15.66-19.27-16.22a4.09,4.09,0,0,0-.27-2.9,142.76,142.76,0,0,1,6-106.27" class="animable" transform-origin="337.669px 222.645px"/><path id="elgcxa0tc9td6" fill="#ffbe9d" d="M402.53,293.76l7-109.69h0a9.2,9.2,0,0,0-8.2-9.34L352.59,162.3c-15.61-1.68-26,17.52-27,33.18-1.14,17.41-1.84,38.7.2,51.69,4.09,26.12,24.1,29.49,24.1,29.49s1.73,18.48,1.73,18.48,12.54-1.73,21.91-2.74C394.24,290.17,402.53,293.76,402.53,293.76Z" class="animable" transform-origin="367.011px 228.668px"/><path id="elom121bftrz" fill="#263238" d="M332.56,217.16a3.35,3.35,0,0,0,3.22,3.39,3.21,3.21,0,0,0,3.46-3,3.35,3.35,0,0,0-3.22-3.38A3.19,3.19,0,0,0,332.56,217.16Z" class="animable" transform-origin="335.9px 217.359px"/><path id="elca52zzo58pg" fill="#263238" d="M331.63,207.32c.42.44,3-1.43,6.56-1.42s6.24,1.83,6.64,1.39c.19-.2-.23-1-1.38-1.83a9.29,9.29,0,0,0-5.31-1.65,8.76,8.76,0,0,0-5.22,1.68C331.81,206.34,331.43,207.12,331.63,207.32Z" class="animable" transform-origin="338.226px 205.598px"/><path id="elcrbtxvk51k6" fill="#263238" d="M363.69,217.16a3.36,3.36,0,0,0,3.22,3.39,3.21,3.21,0,0,0,3.46-3,3.35,3.35,0,0,0-3.22-3.38A3.2,3.2,0,0,0,363.69,217.16Z" class="animable" transform-origin="367.03px 217.36px"/><path id="elvv7zwww2bc" fill="#263238" d="M367.06,207.32c.41.44,3-1.43,6.56-1.42s6.24,1.83,6.63,1.39c.19-.2-.22-1-1.38-1.83a9.26,9.26,0,0,0-5.31-1.65,8.81,8.81,0,0,0-5.22,1.68C367.23,206.33,366.85,207.12,367.06,207.32Z" class="animable" transform-origin="373.65px 205.598px"/><path id="el7jx56ng9qb7" fill="#263238" d="M353.92,234c0-.21-2.22-.6-5.85-1.07-.92-.1-1.79-.28-1.95-.91a4.72,4.72,0,0,1,.62-2.73l2.74-7c3.8-10,6.56-18.17,6.15-18.32s-3.81,7.81-7.61,17.78c-.91,2.46-1.79,4.81-2.62,7-.35,1-1,2.23-.49,3.61a2.31,2.31,0,0,0,1.51,1.35A6.41,6.41,0,0,0,348,234C351.64,234.2,353.9,234.22,353.92,234Z" class="animable" transform-origin="350.196px 219.063px"/><path id="elxzw20xh68g" fill="#eb996e" d="M349.84,276.66s19.06,1.17,36.49-9.25c0,0-9.59,19.87-35.72,17.37Z" class="animable" transform-origin="368.085px 276.204px"/><path id="el8mdcvf8t1at" fill="#eb996e" d="M366.07,241.63a6.87,6.87,0,0,0-4.72-2.55,7.51,7.51,0,0,0-6.73,2.78l-.18.13a1.39,1.39,0,0,0,0,1.55,4.49,4.49,0,0,0,1.19,1.23,15.66,15.66,0,0,0,5.31,3.19c2,.57,4.33.21,5.46-1.37A4.33,4.33,0,0,0,366.07,241.63Z" class="animable" transform-origin="360.616px 243.623px"/><path id="elzjnfqn0ha1d" fill="#263238" d="M364.52,236.54c-.59,0-.6,3.87-4,6.64s-7.52,2.33-7.55,2.88c-.05.24.93.76,2.69.81a9.71,9.71,0,0,0,6.3-2.18,8.5,8.5,0,0,0,3.07-5.57C365.22,237.48,364.79,236.51,364.52,236.54Z" class="animable" transform-origin="359.023px 241.705px"/><path id="elof4sql7yhhe" fill="#263238" d="M364.85,194.44c.36,1,4,.52,8.18,1s7.65,1.68,8.21.81c.25-.42-.34-1.35-1.72-2.3a13.7,13.7,0,0,0-6.08-2.14,13.5,13.5,0,0,0-6.4.74C365.48,193.21,364.7,194,364.85,194.44Z" class="animable" transform-origin="373.064px 194.131px"/><path id="elreyll1c4qy" fill="#263238" d="M331.58,195.85c.63.82,3.12,0,6.1,0s5.51.56,6.1-.3c.25-.41-.14-1.23-1.25-2a8.84,8.84,0,0,0-9.82.28C331.65,194.61,331.3,195.45,331.58,195.85Z" class="animable" transform-origin="337.67px 194.206px"/><path id="el3g84h79w8u9" fill="#263238" d="M345.26,160.55a6.21,6.21,0,0,1,2.67-3.65c7.86-6.13,18.5-8,28.36-6.48s19,6.12,27.2,11.8c7.13,4.95,13.86,11,17.48,18.88,2.55,5.57,3.41,11.74,4.24,17.82,2.06,15.05,6.1,30.13,6,45.32-.06,5.92,1,15.87,0,23.17-1.08,7.79-8.64,17.29-16.31,19l-17.29,1.73s9.36-32.29,8.64-43.93c-.64-10.2-.55-21.38-1.7-31.53a4.15,4.15,0,0,0-3-4.11l-10.8-5.52a106.4,106.4,0,0,1-10.17-5.68c-3.65-2.41-6.88-4.19-10.2-7-4.67-4-9-7.19-13.63-11.19A54,54,0,0,1,348.23,169c-2.12-3.21-3.31-7.24-2.32-11" class="animable" transform-origin="388.451px 219.029px"/><path id="el6kl5m943uzp" fill="#ffbe9d" d="M403.27,219.83c.28-5.56,6.33-9.26,11.15-6.48,2.64,1.53,4.67,4.6,4.42,10.5-.64,15.73-16.3,11.84-16.31,11.38C402.52,235,403,226.34,403.27,219.83Z" class="animable" transform-origin="410.695px 224.195px"/><path id="elqw69wxsfzxj" fill="#eb996e" d="M407.58,229.47c.07-.05.27.21.72.44a2.74,2.74,0,0,0,2.05.12c1.68-.54,3.19-3.12,3.38-5.95a9.08,9.08,0,0,0-.6-4,3.13,3.13,0,0,0-2-2.18,1.38,1.38,0,0,0-1.64.68c-.23.43-.15.75-.23.77s-.33-.27-.17-.92a1.68,1.68,0,0,1,.66-1,2.11,2.11,0,0,1,1.53-.34,3.88,3.88,0,0,1,2.76,2.56,9.36,9.36,0,0,1,.77,4.42c-.23,3.17-2,6.07-4.28,6.63a3,3,0,0,1-2.49-.52C407.59,229.85,407.52,229.5,407.58,229.47Z" class="animable" transform-origin="411.197px 223.921px"/><path id="elyzo3z6ltoc" fill="#455a64" d="M429.37,195.07c-.18.23-3.63-3.49-10.9-6.69a84.61,84.61,0,0,0-13.19-4.4c-5.08-1.36-10.76-2.57-16.61-4.39a85.28,85.28,0,0,1-27.62-14.52,73.63,73.63,0,0,1-7.06-6.33,14.71,14.71,0,0,1-2.28-2.62,21.26,21.26,0,0,1,2.63,2.26c1.65,1.49,4.1,3.58,7.27,6a91,91,0,0,0,27.45,14c5.77,1.79,11.44,3,16.53,4.48a77.11,77.11,0,0,1,13.26,4.72,37.83,37.83,0,0,1,8,5.06,19.91,19.91,0,0,1,1.89,1.77C429.2,194.8,429.4,195,429.37,195.07Z" class="animable" transform-origin="390.541px 175.6px"/><path id="el3g4hb6sllfs" fill="#263238" d="M406.53,238.58c-.07-.31-.13-.61-.21-.92Z" class="animable" transform-origin="406.425px 238.12px"/><path id="elpwnt602orpa" fill="#263238" d="M406.53,238.58c1.77,8.9-3.28,18.79-11.62,22.44-4.81,2.11-10.55,2.41-14.46,5.91s-4.81,9-6.63,13.88-8.07,13.31-13.2,12.55c17.21,2.46,35.66,4.86,55.32-1.44l13.6-8.19Z" class="animable" transform-origin="395.08px 267.257px"/><path id="ely5hg8jbplz" fill="#455a64" d="M418.83,287.35a9.7,9.7,0,0,1,.82-1.59l2.48-4.46a114.09,114.09,0,0,0,7.61-17.09A69.32,69.32,0,0,0,433.69,237c-.65-10.3-4.36-21.8-12.7-30.48S402,192.77,392.6,188.39s-18.26-8.13-25-12.4a58.92,58.92,0,0,1-14.44-12.09,34.55,34.55,0,0,1-3-4.14,8.89,8.89,0,0,1-.88-1.55c.12-.08,1.36,2,4.29,5.36a61.48,61.48,0,0,0,14.54,11.63c6.75,4.13,15.41,7.86,25,12.11s20.25,9.42,28.83,18.34,12.37,20.79,13,31.29a69.16,69.16,0,0,1-4.28,27.57,103.52,103.52,0,0,1-8,17c-1.12,1.92-2.05,3.38-2.7,4.35A8,8,0,0,1,418.83,287.35Z" class="animable" transform-origin="392.152px 222.779px"/></g><defs><filter id="active" height="200%"><feMorphology in="SourceAlpha" operator="dilate" radius="2" result="DILATED"/><feFlood flood-color="#32DFEC" flood-opacity="1" result="PINK"/><feComposite in="PINK" in2="DILATED" operator="in" result="OUTLINE"/><feMerge><feMergeNode in="OUTLINE"/><feMergeNode in="SourceGraphic"/></feMerge></filter><filter id="hover" height="200%"><feMorphology in="SourceAlpha" operator="dilate" radius="2" result="DILATED"/><feFlood flood-color="red" flood-opacity="0.5" result="PINK"/><feComposite in="PINK" in2="DILATED" operator="in" result="OUTLINE"/><feMerge><feMergeNode in="OUTLINE"/><feMergeNode in="SourceGraphic"/></feMerge><feColorMatrix values="0 0 0 0 0 0 1 0 0 0 0 0 0 0 0 0 0 0 1 0"/></filter></defs></svg>