<svg xmlns="http://www.w3.org/2000/svg" id="freepik_stories-plain-credit-card" class="animated" version="1.1" viewBox="0 0 500 500"><style>@keyframes floating{0%,to{opacity:1;transform:translateY(0)}50%{transform:translateY(-10px)}}svg#freepik_stories-plain-credit-card:not(.animated) .animable{opacity:0}</style><g id="freepik--background-complete--inject-32" class="animable"><path id="elii1n0rpp87f" fill="#ebebeb" d="M108 238a45 45 0 1 1-9-62 45 45 0 0 1 9 62Z" class="animable" transform-origin="72.329px 211.734px"/><path id="elxz26xbsh96l" fill="#f5f5f5" d="M100 232a34 34 0 1 1-7-48 34 34 0 0 1 7 48Z" class="animable" transform-origin="72.3308px 211.735px"/><path id="elpy0cmk9hkdc" fill="#e0e0e0" d="m100 231 2-4a36 36 0 0 0 3-10 34 34 0 0 0-2-17 35 35 0 0 0-4-8 32 32 0 0 0-4-4 33 33 0 0 0-8-6 34 34 0 0 0-10-3 33 33 0 0 0-5 0 35 35 0 0 0-8 1 35 35 0 0 0-8 3 36 36 0 0 0-9 6l-3 3 3-3a31 31 0 0 1 9-8 35 35 0 0 1 27-3 35 35 0 0 1 5 2 37 37 0 0 1 5 3 38 38 0 0 1 4 3 35 35 0 0 1 4 5 35 35 0 0 1 6 26 32 32 0 0 1-4 11l-3 3Z" class="animable" transform-origin="75.9836px 203.847px"/><path id="elvmjdd5pwl6t" fill="#e0e0e0" d="m63 230-3 5-5-3 4-5c-4-3-7-7-8-11l6-3a21 21 0 0 0 6 9l5-8c-4-4-8-10-3-16 3-4 9-6 16-2l4-4 4 3-3 4a24 24 0 0 1 7 9l-6 4a22 22 0 0 0-5-7l-6 7c4 5 8 10 4 16-3 5-9 6-17 2Zm10-22 4-6c-2-1-4 0-5 1s-1 3 1 5Zm0 16c1-2 0-3-1-5l-5 6c3 1 5 0 6-1Z" class="animable" transform-origin="71.61px 213.34px"/><path id="elq4ugmy9iie9" fill="#ebebeb" d="M377 366a39 39 0 1 1-8-55h1a39 39 0 0 1 7 55Z" class="animable" transform-origin="346.275px 342.605px"/><path id="elkwsv5hhf5y" fill="#f5f5f5" d="M370 360a30 30 0 1 1-6-41 30 30 0 0 1 6 41Z" class="animable" transform-origin="346.314px 342.574px"/><path id="elp504slhl31b" fill="#e0e0e0" d="M371 360c-1-1 0-2 1-4a31 31 0 0 0 3-9 30 30 0 0 0 0-7 30 30 0 0 0-2-7 27 27 0 0 0-2-4 27 27 0 0 0-2-4 29 29 0 0 0-3-3 34 34 0 0 0-3-3 32 32 0 0 0-4-2 29 29 0 0 0-9-3 28 28 0 0 0-4 0 29 29 0 0 0-14 3 32 32 0 0 0-7 6l-3 3 2-4a27 27 0 0 1 8-6 30 30 0 0 1 6-3 30 30 0 0 1 8-1 28 28 0 0 1 5 0 29 29 0 0 1 4 1 30 30 0 0 1 13 8 32 32 0 0 1 3 3 29 29 0 0 1 2 4 29 29 0 0 1 2 4 30 30 0 0 1 2 8 30 30 0 0 1-1 7 27 27 0 0 1-3 10l-2 3Z" class="animable" transform-origin="349.438px 335.715px"/><path id="elk0zrmlz443" fill="#e0e0e0" d="m338 359-3 4-3-3 3-4c-4-3-7-7-7-10l5-3a19 19 0 0 0 5 8l5-6c-4-4-7-9-3-14 2-4 8-5 14-2l3-4 4 3-3 4a21 21 0 0 1 6 8l-5 3a19 19 0 0 0-5-6l-4 6c3 4 7 9 3 14-3 4-8 5-15 2Zm9-20 4-5c-3-1-4 0-5 1s-1 3 1 5Zm0 14c1-1 0-3-1-4l-4 5c2 1 4 0 5-1Z" class="animable" transform-origin="345.68px 343.985px"/><path id="elr4cn5o4dzs" fill="#ebebeb" d="M142 99a26 26 0 1 1-20-30 26 26 0 0 1 20 30Z" class="animable" transform-origin="117.171px 93.942px"/><path id="el8oxf3tuyqdp" fill="#f5f5f5" d="M136 97a19 19 0 1 1-15-22 19 19 0 0 1 15 22Z" class="animable" transform-origin="117.145px 93.9208px"/><path id="elpkkoabbbai" fill="#e0e0e0" d="M136 97a11 11 0 0 1 0-3 21 21 0 0 0-1-6 20 20 0 0 0-2-4 19 19 0 0 0-3-4 19 19 0 0 0-4-3 20 20 0 0 0-3-1 21 21 0 0 0-3-1 22 22 0 0 0-3 0 20 20 0 0 0-3 0 18 18 0 0 0-3 1 18 18 0 0 0-2 1 19 19 0 0 0-7 6 21 21 0 0 0-3 6 11 11 0 0 1-1 2 6 6 0 0 1 0-2 18 18 0 0 1 3-7 19 19 0 0 1 7-6 19 19 0 0 1 3-1 20 20 0 0 1 3-1 22 22 0 0 1 3 0 22 22 0 0 1 3 0 21 21 0 0 1 3 1 21 21 0 0 1 3 1 19 19 0 0 1 3 1 18 18 0 0 1 2 2 20 20 0 0 1 3 5 21 21 0 0 1 2 4 18 18 0 0 1 1 6 6 6 0 0 1-1 3Z" class="animable" transform-origin="117.414px 85.2649px"/><path id="eln0rl9k4owg" fill="#e0e0e0" d="M117 106v3h-3v-4a14 14 0 0 1-7-3l2-4a12 12 0 0 0 6 3l1-5c-3-1-7-3-6-7 0-3 3-6 8-5v-4l3 1v3a14 14 0 0 1 6 3l-2 3a13 13 0 0 0-5-2l-1 5c4 2 7 3 6 7 0 4-3 6-8 6Zm-1-14 1-4-2 2 1 2Zm4 8c1-1 0-2-1-2l-1 4 2-2Z" class="animable" transform-origin="116.925px 94.745px"/></g><g id="freepik--Floor--inject-32" class="animable"><path id="el5o5cghvxw5a" fill="#263238" d="M473 443Z" class="animable" transform-origin="266.065px 442.885px"/></g><g id="freepik--Device--inject-32" class="animable animator-active" style="animation:1.5s Infinite linear floating;animation-delay:0s"><path id="el6oknky5kya" fill="#ebebeb" d="M182 128s0-45-37-68h118s33 28 34 68Z" class="animable" transform-origin="221.09px 94.275px"/><path id="eljp9jv1s0s7f" fill="#455a64" d="M254 77Z" class="animable" transform-origin="223.94px 76.835px"/><path id="eld5ovltkd7p5" fill="#263238" d="M267 85Z" class="animable" transform-origin="227.05px 84.935px"/><path id="elu5bbuake3wr" fill="#263238" d="M273 105Z" class="animable" transform-origin="233.725px 105.44px"/><path id="el8wsmnn2uftr" fill="#263238" d="M232 94a10 10 0 0 1-2 0h-4l-15 1-14-1h-5a10 10 0 0 1-1 0 10 10 0 0 1 1 0h38a10 10 0 0 1 2 0Z" class="animable" transform-origin="211.24px 94.275px"/><path id="elegmxcbbxcl4" fill="#263238" d="M267 94a5 5 0 0 1-1 0h-4l-11 1-10-1h-4a5 5 0 0 1-1 0 6 6 0 0 1 1 0h29a5 5 0 0 1 1 0Z" class="animable" transform-origin="251.47px 94.275px"/><path id="elmkd21reba3l" fill="#263238" d="M239 116a10 10 0 0 1-1 1h-38a10 10 0 0 1-2-1 10 10 0 0 1 2 0h38a10 10 0 0 1 1 0Z" class="animable" transform-origin="218.605px 116.435px"/><path id="elrnbg33ti2e" fill="#263238" d="M274 116a5 5 0 0 1-1 1h-28a5 5 0 0 1-1-1 6 6 0 0 1 1 0h28a6 6 0 0 1 1 0Z" class="animable" transform-origin="258.835px 116.435px"/><path id="eljmkoluwba9" fill="#263238" d="M158 127h173l9 300a15 15 0 0 1-14 16H145a10 10 0 0 1-10-10l-8-169s-52-19-51-76c0 0 2-61 82-61Z" class="animable" transform-origin="208.183px 284.85px"/><path id="elxzpqhk5j7hf" fill="#455a64" d="m167 442-8-315h178l3 302a13 13 0 0 1-12 14h-1Z" class="animable" transform-origin="249.938px 284.83px"/><path id="elgnthkymf8se" fill="#263238" d="m174 145 4 147h145l-2-147H174z" class="animable" transform-origin="248.325px 218.57px"/><path id="el8qt13ub5kr5" fill="#e0e0e0" d="M190 164c7 2 16 1 23 1a2 2 0 0 0 0-4c-7-1-16-1-23 1a1 1 0 0 0-1 1 1 1 0 0 0 1 1Z" class="animable" transform-origin="202.303px 162.846px"/><path id="elkavhwqlx07a" fill="#e0e0e0" d="M226 164c7 2 16 1 23 1a2 2 0 0 0 0-4h-23a1 1 0 0 0-1 2 1 1 0 0 0 1 1Z" class="animable" transform-origin="237.812px 162.578px"/><path id="eltsc861033x" fill="#e0e0e0" d="m261 163 11 1a71 71 0 0 0 11 0c2 0 2-4 0-4a70 70 0 0 0-11 0l-11 1a1 1 0 0 0 0 2Z" class="animable" transform-origin="272.158px 162.075px"/><path id="ellhui4j8g9xc" fill="#e0e0e0" d="M293 163a59 59 0 0 0 8 1h8a2 2 0 0 0 0-4h-8a57 57 0 0 0-8 1 1 1 0 0 0 0 2Z" class="animable" transform-origin="301.611px 162.075px"/><path id="elnwlyjzrspn" fill="#407bff" d="M178 310h42v30h-42z" class="animable" transform-origin="198.76px 324.535px"/><path id="ely3u345cfta8" fill="#263238" d="M178 310h8v30h-8z" class="animable" transform-origin="181.575px 324.535px"/><path id="el2au1xv7kiaa" fill="#407bff" d="M229 310h42v30h-42z" class="animable" transform-origin="250.14px 324.535px"/><path id="elmud4xac89d" fill="#263238" d="M229 310h8v30h-8z" class="animable" transform-origin="232.525px 324.535px"/><path id="elkzijse2wag" fill="#407bff" d="M281 310h42v30h-42z" class="animable" transform-origin="301.53px 324.535px"/><path id="elw9j408y4ko" fill="#263238" d="M279 310h8v30h-8z" class="animable" transform-origin="283.145px 324.535px"/><path id="el8dcxd46hel5" fill="#407bff" d="M281 349h42v30h-42z" class="animable" transform-origin="301.53px 364.435px"/><path id="elebxdahf1ipq" fill="#263238" d="M281 349h8v30h-8z" class="animable" transform-origin="284.46px 364.435px"/><path id="ellxm4yg71bu" fill="#407bff" d="M178 349h42v30h-42z" class="animable" transform-origin="198.76px 364.435px"/><path id="elwqrtv3iovai" fill="#263238" d="M178 349h8v30h-8z" class="animable" transform-origin="181.575px 364.375px"/><path id="elx5ve8i5opg" fill="#407bff" d="M178 389h42v30h-42z" class="animable" transform-origin="198.76px 403.935px"/><path id="elwpvtqax3ry8" d="M178 389h42v30h-42z" class="animable" opacity=".3" style="isolation:isolate" transform-origin="198.76px 403.935px"/><path id="elg6ky9ir69kg" fill="#263238" d="M178 389h8v30h-8z" class="animable" transform-origin="181.575px 403.935px"/><path id="elbuwgkrgjafv" fill="#407bff" d="M229 349h42v30h-42z" class="animable" transform-origin="249.91px 364.435px"/><path id="el61yom2e1606" fill="#263238" d="M229 349h8v30h-8z" class="animable" transform-origin="232.725px 364.375px"/><path id="elnkfn5eo55ii" fill="#407bff" d="M229 389h42v30h-42z" class="animable" transform-origin="250.14px 403.935px"/><path id="eloqn4wle558" d="M229 389h42v30h-42z" class="animable" opacity=".3" style="isolation:isolate" transform-origin="250.14px 403.935px"/><path id="el5dtfceg5wwm" fill="#263238" d="M229 389h8v30h-8z" class="animable" transform-origin="232.955px 403.935px"/><path id="elr72ne9wn6ys" fill="#e0e0e0" d="M281 389h42v30h-42z" class="animable" transform-origin="301.53px 403.935px"/><path id="el08w87u2mpkgq" fill="#263238" d="M281 389h8v30h-8z" class="animable" transform-origin="284.345px 403.935px"/><path id="elo9fnq5qwi7" fill="#455a64" d="m153 443-6-158c-3-87-4-158-3-158l6 158c3 87 4 158 3 158Z" class="animable" transform-origin="148.57px 284.865px"/><path id="elbm6zvwupgh" fill="#455a64" d="M322 275v6l17 4v-8l-17-2z" class="animable" transform-origin="330.6px 280.08px"/><path id="elu3yk33tjgz" fill="#407bff" d="M121 265a7 7 0 0 0-3-1 10 10 0 0 0-3 1l-11 4-22 7-42 14a7 7 0 0 0-4 3 7 7 0 0 0-1 5 18 18 0 0 0 0 2l1 3 2 4 6 19 11 33 16 48 4 13 1 3 1 1a6 6 0 0 0 0 2 7 7 0 0 0 3 2 7 7 0 0 0 5 1l8-3 41-14-44-139 22-7 40 123-1-43-26-77a7 7 0 0 0-4-4Zm-52 63-9-32 3-1 10 32Zm7-17-5-19 3-1 6 18Zm8 23-6-19 4-1 6 19Zm2 5 4-1 16 50-4 2Zm21 66-3-11 3-1 4 11Zm14-6-3 1-22-67 4-1Zm-23-73-3 1-13-39 4-1Z" class="animable" transform-origin="93.4469px 346.59px"/><path id="elylx3vvuzijl" d="M121 265a7 7 0 0 0-3-1 10 10 0 0 0-3 1l-11 4-22 7-42 14a7 7 0 0 0-4 3 7 7 0 0 0-1 5 18 18 0 0 0 0 2l1 3 2 4 6 19 11 33 16 48 4 13 1 3 1 1a6 6 0 0 0 0 2 7 7 0 0 0 3 2 7 7 0 0 0 5 1l8-3 41-14-44-139 22-7 40 123-1-43-26-77a7 7 0 0 0-4-4Zm-52 63-9-32 3-1 10 32Zm7-17-5-19 3-1 6 18Zm8 23-6-19 4-1 6 19Zm2 5 4-1 16 50-4 2Zm21 66-3-11 3-1 4 11Zm14-6-3 1-22-67 4-1Zm-23-73-3 1-13-39 4-1Z" class="animable" opacity=".3" style="isolation:isolate" transform-origin="93.4469px 346.59px"/><path id="elh99fsci73ep" fill="#263238" d="M135 412h-1l-41 14-8 3a7 7 0 0 1-5-1 7 7 0 0 1-3-2v-2 1a7 7 0 0 0 3 3 7 7 0 0 0 5 1l8-2 48-16 11-4 1-1Z" class="animable" transform-origin="114.93px 417.768px"/><path id="elu4pf7t2jd6e" fill="#263238" d="m76 423-1-3-4-13-16-48-11-33-6-19-2-4-1-3a18 18 0 0 1 0-2 7 7 0 0 1 1-5 7 7 0 0 1 4-3l42-14 22-7 11-4a10 10 0 0 1 3-1 7 7 0 0 1 7 5l26 77v-1l-26-76a7 7 0 0 0-4-5 7 7 0 0 0-3 0 11 11 0 0 0-3 0l-11 4-23 8-42 14a7 7 0 0 0-4 3 7 7 0 0 0-1 5 19 19 0 0 0 1 2l1 3 1 5 6 18 12 33 16 48 4 13 1 3 1 1-1-1Z" class="animable" transform-origin="92.3783px 344.019px"/><path id="el4wv6n3a1yud" fill="#fafafa" d="M107 331h4v70h-4z" class="animable" transform="rotate(-18)" transform-origin="108.695px 366.45px"/><path id="el0pc40uujp5ds" fill="#fafafa" d="M89 287h4v41h-4z" class="animable" transform="rotate(-18)" transform-origin="90.275px 307.115px"/><path id="elghgijg4qzz" fill="#fafafa" d="M73 291h4v19h-4z" class="animable" transform="rotate(-18)" transform-origin="75.135px 300.845px"/><path id="elm34d1bbqtw" fill="#fafafa" d="M64 294h4v33h-4z" class="animable" transform="rotate(-18)" transform-origin="65.51px 310.62px"/><path id="el434huj9p0qo" fill="#fafafa" d="M105 394h4v11h-4z" class="animable" transform="rotate(-18)" transform-origin="107.145px 399.2px"/><path id="elu37if9j081q" fill="#fafafa" d="M81 314h4v19h-4z" class="animable" transform="rotate(-18)" transform-origin="82.915px 324.105px"/><path id="el4xwa7ygigb" fill="#fafafa" d="M94 337h4v53h-4z" class="animable" transform="rotate(-18)" transform-origin="95.805px 363.605px"/><path id="eltto2u7veuvi" fill="#fafafa" d="m90 273 44 139h1l18-6-1-17-40-123-22 7z" class="animable" transform-origin="121.54px 339.11px"/><path id="elr9ibjislf3o" fill="#263238" d="m134 421 18-7v-7l-17 5-1 9z" class="animable" transform-origin="143.29px 413.655px"/></g><g id="freepik--Icon--inject-32" class="animable"><path id="elp1aye5s7tjq" fill="#263238" d="M362 191h-1l-1-1h1l1 1Z" class="animable" transform-origin="360.965px 190.55px"/><path id="elmqhgkew3odq" fill="#263238" d="M372 190a6 6 0 0 1-2 1 6 6 0 0 1-3 0 12 12 0 0 1 5-1Z" class="animable" transform-origin="369.55px 190.412px"/><path id="eluumm6z0hvb" fill="#263238" d="M382 188a6 6 0 0 1-3 1 6 6 0 0 1-2 0 12 12 0 0 1 5-1Z" class="animable" transform-origin="379.295px 188.989px"/><path id="ell1wj8ii2l38" fill="#263238" d="M391 185a6 6 0 0 1-2 2 6 6 0 0 1-3 0 6 6 0 0 1 3-1 6 6 0 0 1 2-1Z" class="animable" transform-origin="388.74px 186.295px"/><path id="elgjbouktjla" fill="#263238" d="M400 181a12 12 0 0 1-4 3 6 6 0 0 1 2-2 6 6 0 0 1 2-1Z" class="animable" transform-origin="397.74px 182.375px"/><path id="eljgzebw0cdzn" fill="#263238" d="m408 176-2 1a6 6 0 0 1-2 2l2-2 2-1Z" class="animable" transform-origin="406.101px 177.222px"/><path id="elnrym1u9950l" fill="#263238" d="m415 169-1 2-2 2 1-2 2-2Z" class="animable" transform-origin="413.577px 170.863px"/><path id="el3joa2jxuo5b" fill="#263238" d="m421 161-1 3c-1 2-1 2-2 1a6 6 0 0 1 2-2l1-2Z" class="animable" transform-origin="419.885px 163.359px"/><path id="elfu8kheosb0s" fill="#263238" d="M426 153a12 12 0 0 1-2 4 11 11 0 0 1 2-4Z" class="animable" transform-origin="424.68px 154.81px"/><path id="els3399xc757" fill="#263238" d="M428 143a6 6 0 0 1 0 3 6 6 0 0 1-1 2 12 12 0 0 1 1-5Z" class="animable" transform-origin="427.747px 145.495px"/><path id="el5t1kw095x7k" fill="#263238" d="M429 133a11 11 0 0 1 0 5 6 6 0 0 1 0-2 6 6 0 0 1 0-3Z" class="animable" transform-origin="429.101px 135.78px"/><path id="elkmn1u2t97id" fill="#263238" d="M429 124a11 11 0 0 1 0 4 6 6 0 0 1 0-2 6 6 0 0 1 0-2Z" class="animable" transform-origin="428.98px 125.975px"/><path id="elwltih75ok3" fill="#263238" d="M427 114a6 6 0 0 1 1 2 6 6 0 0 1 0 3 6 6 0 0 1-1-3 6 6 0 0 1 0-2Z" class="animable" transform-origin="427.396px 116.295px"/><path id="elzyrzbk1l3vl" fill="#263238" d="M423 105a6 6 0 0 1 1 2 6 6 0 0 1 1 2 6 6 0 0 1-1-2 6 6 0 0 1-1-2Z" class="animable" transform-origin="424.23px 107.01px"/><path id="elhy64t1e5x2r" fill="#263238" d="m418 96 2 2a6 6 0 0 1 1 2l-2-1a6 6 0 0 1-1-3Z" class="animable" transform-origin="419.405px 98.4593px"/><path id="el88mqxvza63x" fill="#263238" d="m411 89 2 2 2 2-2-2-2-2Z" class="animable" transform-origin="412.981px 91.0732px"/><path id="elve3rmjrwljq" fill="#263238" d="m405 85 1 1h1-1l-1-1Z" class="animable" transform-origin="406.144px 85.84px"/><circle id="elcvr3fg0j6x" cx="377.96" cy="75.25" r="34.64" fill="#407bff" class="animable" transform-origin="377.96px 75.25px"/><path id="eld9o2e4y5idn" fill="#fafafa" d="m357 78 6-6 10 10 20-20 5 5-26 25-15-14z" class="animable" transform-origin="377.96px 77.015px"/></g><g id="freepik--Character--inject-32" class="animable"><path id="elyqvhfffqxn" fill="#ffbe9d" d="m398 226-5-18s-24 6-25 4c-9-11-14-26-15-31l1-3a8 8 0 0 1 1-2 13 13 0 0 1 3-3 1 1 0 0 0 0-1 1 1 0 0 0-1-1l-5 5c-2 3-3-3-3-5l-2-8c-1-1-2 0-1 2s0 8-1 8l-2-10-1-2c-2 0 0 11 0 12h-1s-1-10-3-10 2 8 1 10-2-6-4-6v5a103 103 0 0 0 4 10s9 53 32 50c25-3 27-6 27-6Z" class="animable" transform-origin="366.386px 196.404px"/><path id="el4ca4l16sojt" fill="#407bff" d="m363 278-146-11a8 8 0 0 1-7-8l6-90a8 8 0 0 1 8-7l147 11a8 8 0 0 1 7 8l-7 90a8 8 0 0 1-8 7Z" class="animable" transform-origin="293.877px 220.242px"/><path id="eludpb4vte5w" fill="#263238" d="M363 278h2a7 7 0 0 0 3-1 7 7 0 0 0 3-6l1-8 4-56 1-19 1-5a12 12 0 0 0-1-4 7 7 0 0 0-2-4 7 7 0 0 0-3-1 13 13 0 0 0-2-1l-44-3-102-7a7 7 0 0 0-5 2 7 7 0 0 0-2 3 13 13 0 0 0-1 3l-1 13-1 26-4 49a7 7 0 0 0 1 5 7 7 0 0 0 5 3l11 1 22 2 38 2 56 5 15 1h5-5l-15-1-56-4-38-3-22-2h-11a8 8 0 0 1-5-4 8 8 0 0 1-1-5l3-49 2-26 1-13a14 14 0 0 1 0-3 8 8 0 0 1 8-6l102 8 44 3a13 13 0 0 1 3 0 8 8 0 0 1 5 5 8 8 0 0 1 0 3v7l-2 19-4 56v8a8 8 0 0 1-4 6 7 7 0 0 1-3 1 6 6 0 0 1-1 0Z" class="animable" transform-origin="293.867px 220.131px"/><path id="ele5545jvzevd" fill="#fafafa" d="M226 230v9h-1v-8h-2v-1Z" class="animable" transform-origin="224.785px 234.405px"/><path id="el82f17s5ml3l" fill="#fafafa" d="M235 239v1l-6-1 4-4 1-2-2-2a3 3 0 0 0-3 1v-1a4 4 0 0 1 3-1l3 3a4 4 0 0 1-2 3l-3 2Z" class="animable" transform-origin="231.82px 235.007px"/><path id="elmdcgy74w1ch" fill="#fafafa" d="M245 238h-2v2h-1v-2l-5-1 5-6h1l-5 6h4v-2h1v2h2Z" class="animable" transform-origin="240.63px 235.7px"/><path id="elq54ypnpg4pp" fill="#fafafa" d="M258 239h-2v2h-1l1-2-6-1 6-6h1l-5 6h4v-2h1l-1 2h2Z" class="animable" transform-origin="254.38px 236.7px"/><path id="elcab5fbh0zi" fill="#fafafa" d="M266 239c0 2-1 3-3 3a5 5 0 0 1-3-2 4 4 0 0 0 3 1l2-2c0-1 0-2-3-2h-2l1-4h5v1l-4-1-1 3h2l3 3Z" class="animable" transform-origin="262.845px 237.178px"/><path id="ell5cks3elhms" fill="#fafafa" d="M275 240a3 3 0 0 1-3 2c-3 0-4-1-4-4 1-3 2-5 5-5a4 4 0 0 1 2 1v1a3 3 0 0 0-2-1c-2 0-3 1-4 4a3 3 0 0 1 3-1 3 3 0 0 1 3 3Zm-1 0-2-2a2 2 0 0 0-2 1s0 1 0 1c-1 1 0 2 2 2a2 2 0 0 0 2-2Z" class="animable" transform-origin="271.697px 237.912px"/><path id="elfvkif2n4qd" fill="#fafafa" d="M287 241c0 1-1 2-3 2a5 5 0 0 1-3-1v-1a4 4 0 0 0 3 1c1 1 2 0 2-1l-2-2h-1v-1l3-3h-4v-1h5v1l-2 3c1 0 2 1 2 3Z" class="animable" transform-origin="284.035px 238.673px"/><path id="el1y3718upcy6" fill="#fafafa" d="M296 241a3 3 0 0 1-3 3c-2 0-4-2-3-5 0-3 2-4 4-4a4 4 0 0 1 2 1 3 3 0 0 0-2 0c-2 0-3 1-3 3v1a3 3 0 0 1 2-1 3 3 0 0 1 3 2Zm-1 0c0-1 0-2-2-2a2 2 0 0 0-2 2c0 1 0 2 2 2a2 2 0 0 0 2-1 1 1 0 0 0 0-1Z" class="animable" transform-origin="292.951px 239.482px"/><path id="elvwn8qdqcns8" fill="#fafafa" d="m305 236-4 8h-1l4-8h-5v2h-1v-3Z" class="animable" transform-origin="301.615px 239.825px"/><path id="el5g0d2jyv68v" fill="#fafafa" d="m318 237-5 8h-1l5-8h-5v2h-1v-3Z" class="animable" transform-origin="314.425px 240.76px"/><path id="elxdn3i7epm4p" fill="#fafafa" d="M326 244c0 1-1 2-4 2s-3-1-3-3a2 2 0 0 1 2-2 2 2 0 0 1-1-2c0-1 1-2 3-2s3 1 3 3a2 2 0 0 1-1 1 2 2 0 0 1 1 3Zm-1 0-2-2-3 1c0 1 1 2 3 2s2 0 2-1Zm-2-3 2-1-2-2-2 1c0 1 0 2 2 2Z" class="animable" transform-origin="322.689px 241.567px"/><path id="elveyerl5fmb" fill="#fafafa" d="M335 242c0 3-2 5-4 5a4 4 0 0 1-3-1l1-1a3 3 0 0 0 2 1c2 0 3-1 3-4a3 3 0 0 1-3 1 3 3 0 0 1-3-3 3 3 0 0 1 3-2h1c2 0 3 2 3 4Zm-1-2-2-2a2 2 0 0 0-3 2l2 2a2 2 0 0 0 3-1v-1Z" class="animable" transform-origin="331.69px 242.164px"/><path id="elugxgzvp7sr" fill="#fafafa" d="M325 219h4v72h-4z" class="animable" transform="rotate(-86)" transform-origin="327.425px 255.065px"/><path id="ela6hsks8d0s" fill="#fafafa" d="M342 246h4v37h-4z" class="animable" transform="rotate(-86)" transform-origin="344.375px 264.125px"/><rect id="el26wyh6vf1zt" width="22.58" height="30.23" x="226" y="197" fill="#455a64" class="animable" rx="4.96" transform="rotate(-86)" transform-origin="237.28px 211.775px"/><path id="el5fqg6qevq1q" fill="#407bff" d="M222 216v-2l15 1a3 3 0 1 0 1-6l-16-1 1-2 15 1a5 5 0 0 1-1 10Z" class="animable" transform-origin="232.085px 211.572px"/><path id="elvgypvnfdebp" fill="#407bff" d="M246 207h1v11h-1z" class="animable" transform="rotate(-86)" transform-origin="247.015px 212.8px"/><path id="el1g6i2ar1zen" fill="#fafafa" d="M263 148h7v78h-7z" class="animable" transform="rotate(-86)" transform-origin="266.475px 187.275px"/><path id="el7xo0cpxlzdd" fill="#263238" d="M407 164c-2 3-1 7-1 11s2 8 1 12l-2 8 3 5v8c0 3 0 6 2 8s6 2 9 1l8-6c3-2 6-3 9-2l4 2c3 1 4-1 6-2h6c3 0 6-4 6-8a9 9 0 0 0-8-7l-4-2v-7c0-1-1-3-3-3l-4-3c-3-2-2-5-3-8-1-5-6-15-16-16" class="animable" transform-origin="431.506px 186.439px"/><path id="elfwbhfdy186" fill="#407bff" d="M403 439v-7h13v11h-1l-21-1c-2-1 9-3 9-3Z" class="animable" transform-origin="405.124px 437.316px"/><path id="elb3jvuceze7u" fill="#407bff" d="M411 442a5 5 0 0 1 2-2 4 4 0 0 1 3-1v3Z" class="animable" transform-origin="413.795px 440.486px"/><path id="elmaumh4ll86b" fill="#407bff" d="m397 440-3 2 22 1v-1h-17l-2-2Z" class="animable" transform-origin="405.012px 441.54px"/><path id="elwlanhekiqd" fill="#263238" d="M416 442h-22 22Z" class="animable" transform-origin="405.245px 442.05px"/><path id="el6tjhz0uoa6k" fill="#263238" d="M399 442a5 5 0 0 0-1-1 6 6 0 0 0-1-1 2 2 0 0 1 2 2Z" class="animable" transform-origin="397.918px 441.2px"/><path id="el8i7js1utr4" fill="#263238" d="M402 440v-1 1c0 1 1 0 0 0Z" class="animable" transform-origin="402.13px 439.784px"/><path id="elsd0sesiksw9" fill="#263238" d="M404 440a2 2 0 0 1-1-1l1 1Z" class="animable" transform-origin="403.145px 439.418px"/><path id="el3mhusuz9rng" fill="#263238" d="M404 439h-1a1 1 0 0 1 1-1 2 2 0 0 1 0 1Z" class="animable" transform-origin="403.56px 438.553px"/><path id="el7cx84rhc4g9" fill="#263238" d="M405 438a1 1 0 0 1-1 0 1 1 0 0 1-1 0 5 5 0 0 1 1 0 3 3 0 0 1 1 0Z" class="animable" transform-origin="403.72px 437.802px"/><path id="eltek3ishsiw" fill="#263238" d="M402 439a2 2 0 0 1-1 0 5 5 0 0 1-1 0 1 1 0 0 1 0-1 2 2 0 0 1 2 1 2 2 0 0 0-1 0 2 2 0 0 0 0-1 1 1 0 0 0-1 0v1a5 5 0 0 0 1 0 8 8 0 0 1 1 0Z" class="animable" transform-origin="400.763px 438.709px"/><path id="elnn70ocjmkp9" fill="#263238" d="M402 439a1 1 0 0 1 0-1 1 1 0 0 1 1 0 3 3 0 0 1-1 1 3 3 0 0 0 1-1h-1a1 1 0 0 0 0 1Z" class="animable" transform-origin="402.345px 438.4px"/><path id="elefw6d95sd7b" fill="#263238" d="M416 439a5 5 0 0 0-1 0 4 4 0 0 0-3 2l-1 1a4 4 0 0 1 4-3 4 4 0 0 1 1 0Z" class="animable" transform-origin="413.751px 440.368px"/><path id="ely1g4pwisfvo" fill="#263238" d="M415 433a21 21 0 0 1 0 3 22 22 0 0 1 0 3 46 46 0 0 1 0-6Z" class="animable" transform-origin="414.87px 435.795px"/><path id="ellndwv0t75id" fill="#263238" d="M410 441a7 7 0 0 1-2 0 8 8 0 0 1-2 0h4Z" class="animable" transform-origin="407.795px 441.062px"/><path id="elxa1c3zacqt8" fill="#263238" d="M412 441v1-1c0-1 0 0 0 0Z" class="animable" transform-origin="412.122px 441.424px"/><path id="elv5kayc8jjph" fill="#263238" d="M413 440Z" class="animable" transform-origin="413.067px 440.105px"/><path id="ell6fl78jcag" fill="#263238" d="M415 439h-1v1-1h1Z" class="animable" transform-origin="414.353px 439.413px"/><path id="eldiimsg3gp0d" fill="#263238" d="M416 439h-1 1Z" class="animable" transform-origin="415.53px 439.158px"/><path id="el3nhpzr1hx5k" fill="#407bff" d="m440 439 1-7h13v11h-1l-21-1c-3-1 8-3 8-3Z" class="animable" transform-origin="442.645px 437.316px"/><path id="eli1zmi44chyi" fill="#407bff" d="M449 442a5 5 0 0 1 2-2 4 4 0 0 1 3-1v3Z" class="animable" transform-origin="451.32px 440.485px"/><path id="elo4dr6eiz0yq" fill="#407bff" d="m435 440-4 2 23 1v-1h-18l-1-2Z" class="animable" transform-origin="442.533px 441.54px"/><path id="elae221oblpqs" fill="#263238" d="M454 442h-22 22Z" class="animable" transform-origin="442.77px 442.05px"/><path id="ela33r37r9csv" fill="#263238" d="M436 442a5 5 0 0 0 0-1 6 6 0 0 0-1-1 2 2 0 0 1 1 2Z" class="animable" transform-origin="435.443px 441.2px"/><path id="elnya9crl27df" fill="#263238" d="m440 440-1-1 1 1Z" class="animable" transform-origin="439.661px 439.784px"/><path id="eliwbw54awy5" fill="#263238" d="M441 440a2 2 0 0 1 0-1h-1 1v1Z" class="animable" transform-origin="440.675px 439.418px"/><path id="elsbgcy0dl71" fill="#263238" d="M442 439h-2a1 1 0 0 1 1-1 2 2 0 0 1 1 1Z" class="animable" transform-origin="441.09px 438.553px"/><path id="elqmkhr9fesn" fill="#263238" d="M442 438a1 1 0 0 1-1 0 1 1 0 0 1-1 0 5 5 0 0 1 1 0 3 3 0 0 1 1 0Z" class="animable" transform-origin="441.215px 437.802px"/><path id="elx69y162vyhb" fill="#263238" d="M440 439a2 2 0 0 1-1 0 5 5 0 0 1-1 0 2 2 0 0 1-1 0v-1a2 2 0 0 1 2 1 1 1 0 0 0-1-1 1 1 0 0 0-1 0v1a2 2 0 0 0 1 0 5 5 0 0 0 1 0h1Z" class="animable" transform-origin="438.333px 438.709px"/><path id="el8wg5owsc875" fill="#263238" d="M439 439a1 1 0 0 1 1-1 2 2 0 0 1 0 1 1 1 0 0 1-1 0 5 5 0 0 0 1 0 3 3 0 0 0 0-1 2 2 0 0 0-1 1Z" class="animable" transform-origin="439.862px 438.405px"/><path id="eltvx9piv4g4g" fill="#263238" d="M454 439a5 5 0 0 0-1 0 4 4 0 0 0-4 2v1a3 3 0 0 1 0-1 4 4 0 0 1 4-2 1 1 0 0 1 1 0Z" class="animable" transform-origin="451.277px 440.368px"/><path id="elrvrt2tfd56" fill="#263238" d="M452 433a46 46 0 0 1 0 6 20 20 0 0 1 0-3 22 22 0 0 1 0-3Z" class="animable" transform-origin="452.42px 435.795px"/><path id="el0xqu54wxtl4" fill="#263238" d="M447 441a7 7 0 0 1-2 0 7 7 0 0 1-2 0h4Z" class="animable" transform-origin="445.32px 441.062px"/><path id="elh7yqrl7v6ho" fill="#263238" d="m450 441-1 1v-1h1Z" class="animable" transform-origin="449.646px 441.424px"/><path id="el88oxc6tkbji" fill="#263238" d="M451 440h-1 1c1 0 0 0 0 0Z" class="animable" transform-origin="450.592px 440.105px"/><path id="el31uifmgb4o7" fill="#263238" d="M452 439v1-1Z" class="animable" transform-origin="451.872px 439.413px"/><path id="elf70nn7ccrbb" fill="#263238" d="M453 439Z" class="animable" transform-origin="453.05px 439.158px"/><path id="el04vwfqavhazc" fill="#263238" d="m400 258-6 94v85h25l1-78 4-73c1 3 1 65 3 73s8 78 8 78h24l-8-81-3-95Z" class="animable" transform-origin="426.45px 347.42px"/><path id="elipk3xxhuk4" fill="#455a64" d="M458 432a2 2 0 0 1 0 1 5 5 0 0 1-3-1 17 17 0 0 0-4-1l-4 2a11 11 0 0 1-5 2 9 9 0 0 1-4-1 22 22 0 0 1-2-1 3 3 0 0 1-1 0l3 1a10 10 0 0 0 4 0 10 10 0 0 0 5-2 13 13 0 0 1 2-1 5 5 0 0 1 2 0 16 16 0 0 1 4 1 6 6 0 0 0 3 1v-1Z" class="animable" transform-origin="446.725px 432.581px"/><path id="el7amcmex6gub" fill="#455a64" d="M419 432a7 7 0 0 0 0-1 4 4 0 0 0-3 0 11 11 0 0 0-4 2 13 13 0 0 1-2 1 5 5 0 0 1-3 0l-5-1a8 8 0 0 0-4 0l-4 1a4 4 0 0 1 1-1 18 18 0 0 1 3-1 8 8 0 0 1 4 0l5 2c2 1 4-1 5-2a11 11 0 0 1 4-2 4 4 0 0 1 3 1 2 2 0 0 1 0 1Z" class="animable" transform-origin="406.935px 432.34px"/><path id="elmzidt99czha" fill="#455a64" d="M446 277a3 3 0 0 1-1 1 9 9 0 0 1-7-2l-1-2a11 11 0 0 0 9 3Z" class="animable" transform-origin="441.62px 276.11px"/><path id="elpjqz93sml1" fill="#455a64" d="M404 273v2a6 6 0 0 1-2 2 6 6 0 0 1-2 2h-2a8 8 0 0 0 6-6Z" class="animable" transform-origin="401.421px 276.111px"/><path id="el1oxuwdngz6" fill="#fafafa" d="M344 239v9h-1v-9h-2v-1Z" class="animable" transform-origin="342.9px 243.035px"/><path id="el5wg6uu3u2cd" fill="#fafafa" d="M353 247v1h-6v-1l4-3 1-2-2-2a3 3 0 0 0-2 1l-1-1a4 4 0 0 1 3-1c2 0 3 1 3 3l-2 2-3 3Z" class="animable" transform-origin="349.905px 243.592px"/><path id="elo7swuhr5kqc" fill="#fafafa" d="M361 246c0 2-1 3-3 3a5 5 0 0 1-3-2 4 4 0 0 0 3 1l2-2c0-1 0-2-2-2h-1l3-3-4-1v-1l5 1v1l-2 3 2 2Z" class="animable" transform-origin="358.015px 244.088px"/><path id="elg6rd8a3f4fs" fill="#263238" d="M409 158a9 9 0 0 0-3 7 16 16 0 0 0 2 7" class="animable" transform-origin="407.222px 165.365px"/><path id="el1bxrn14t3il" fill="#ffbe9d" d="m430 197 2-31-13-9-11 5v21c1 7 6 7 6 7v7a8 8 0 0 0 8 8 8 8 0 0 0 8-7v-1Z" class="animable" transform-origin="419.611px 180.885px"/><path id="elz78l9bgoe5n" fill="#263238" d="M410 173a1 1 0 1 0 1-1 1 1 0 0 0-1 1Z" class="animable" transform-origin="410.54px 172.6px"/><path id="eldr725ninneq" fill="#263238" d="m408 172 2-1 1 1v-1a2 2 0 0 0-1 0 2 2 0 0 0-2 0v1Z" class="animable" transform-origin="409.751px 171.254px"/><path id="elk2zk884e0um" fill="#263238" d="M419 173a1 1 0 0 0 1 0 1 1 0 1 0-1 0Z" class="animable" transform-origin="419.8px 172.59px"/><path id="ell0u1zdh1lkr" fill="#263238" d="m418 172 1-1 2 1-1-1a2 2 0 0 0-2 0v1Z" class="animable" transform-origin="419.251px 171.254px"/><path id="elvusqi2w4vu" fill="#fafafa" d="M417 180a16 16 0 0 1-4 1 2 2 0 0 0 3 1 2 2 0 0 0 1-2Z" class="animable" transform-origin="415.377px 180.981px"/><path id="elrf33lcsgeq" fill="#eb996e" d="M414 190a16 16 0 0 0 9-3s-2 4-9 4Z" class="animable" transform-origin="418.47px 188.96px"/><path id="elwcc4aqj7ty" fill="#263238" d="M415 179a6 6 0 0 0-2 0 1 1 0 0 1 0-1v-2l1-3a5 5 0 0 0 1-1 6 6 0 0 0-1 1l-1 3v2a1 1 0 0 0-1 1 1 1 0 0 0 1 0 5 5 0 0 0 2 0Z" class="animable" transform-origin="413.561px 175.3px"/><path id="elf4zga2d7ezl" fill="#ffbe9d" d="M431 177a8 8 0 0 1 0-3 3 3 0 0 1 2-2 2 2 0 0 1 3 2 3 3 0 0 1-2 3 4 4 0 0 1-3 0" class="animable" transform-origin="433.314px 174.938px"/><path id="elmkqefjvraxq" fill="#eb996e" d="M433 176a1 1 0 0 0 1-1 1 1 0 0 0 0-1 1 1 0 0 0-1 0 1 1 0 0 1 1 0 1 1 0 0 1 1 1 2 2 0 0 1-1 1 1 1 0 0 1-1 1v-1Z" class="animable" transform-origin="433.675px 175.072px"/><path id="elgzos29eepa" fill="#263238" d="M408 159c-3 3 1 6 3 7 1 1 5 4 9 3l-4-5c2 3 3 4 6 4l-1-4c1 6 7 11 10 9a13 13 0 0 0-1-12 14 14 0 0 0-10-6 15 15 0 0 0-12 4" class="animable" transform-origin="419.53px 164.072px"/><path id="elsr868ihmk6" fill="#407bff" d="M434 178v1a2 2 0 0 1-1 1 2 2 0 0 1-1 0 2 2 0 0 1-1-1 2 2 0 0 1 0-2l1-1a4 4 0 0 0-1 1 2 2 0 0 0 0 2 2 2 0 0 0 1 1 2 2 0 0 0 1 0 1 1 0 0 0 1-1 3 3 0 0 0 0-1Z" class="animable" transform-origin="432.435px 178.399px"/><path id="elw8j1ubidal" fill="#407bff" d="m391 229 9-2 3 16a253 253 0 0 0-6 25l22 13 3-6 6 5 23-12c-3-15-10-19-10-22 0-7-1 0 5-23s-16-26-16-26 1 4-16 1c-6-2-31 12-31 12Z" class="animable" transform-origin="416.94px 239.43px"/><path id="elcabbubukzai" fill="#ffbe9d" d="M414 198s0 17 4 16 12-9 12-17Z" class="animable" transform-origin="422.049px 205.493px"/><path id="el3mvc8buekpa" fill="#263238" d="M415 228a37 37 0 0 1 0-6 35 35 0 0 1 1-6 36 36 0 0 1 0 6 36 36 0 0 1-1 6Z" class="animable" transform-origin="415.425px 221.59px"/><path id="el3uckan8b5xi" fill="#263238" d="M417 226a23 23 0 0 1 0-5 24 24 0 0 1 0-5 23 23 0 0 1 1 5 22 22 0 0 1-1 5Z" class="animable" transform-origin="417.294px 221.36px"/><path id="elqz1oydiu7x" fill="#263238" d="M414 229v-1c0-1 0 0 0 0v1c0 1 0 0 0 0Z" class="animable" transform-origin="414.051px 228.531px"/><path id="el5pt3cfbosib" fill="#263238" d="m414 229 1-1v1h-1Z" class="animable" transform-origin="414.45px 228.615px"/><path id="els6i4lpdaxpf" fill="#263238" d="M415 229v-1 1c0 1 0 0 0 0Z" class="animable" transform-origin="414.769px 228.62px"/><path id="eld0dakq6aua" fill="#263238" d="m416 230-1-1v-1h1v2Z" class="animable" transform-origin="415.285px 228.547px"/><path id="eln2d47e51qp" fill="#263238" d="m418 228-1-1 1-1v2Z" class="animable" transform-origin="417.38px 226.782px"/><path id="elgezss6n1uht" fill="#263238" d="M418 228v-2 2Z" class="animable" transform-origin="417.988px 226.735px"/><path id="el2zbatg9me9r" fill="#263238" d="M419 227h-1v-1l1 1c1 1 0 0 0 0Z" class="animable" transform-origin="418.419px 226.737px"/><path id="el568b9tzwpno" fill="#263238" d="M419 227h-1v-1h1v1Z" class="animable" transform-origin="418.591px 226.489px"/><path id="elqngtl920otl" fill="#263238" d="M413 199v1a1 1 0 0 1 0 1 1 1 0 0 1-1 0 1 1 0 0 1 0-1l1-1a1 1 0 0 0-1 1h1c1-1 0 0 0 0v-1Z" class="animable" transform-origin="412.55px 200.156px"/><path id="elopv0z8qkdfe" fill="#263238" d="M413 203h-1v-1h1v1Z" class="animable" transform-origin="412.43px 202.322px"/><path id="el9qgeuy6plz6" fill="#263238" d="M413 203v1h-1l1-1c1-1 0 0 0 0Z" class="animable" transform-origin="412.651px 203.669px"/><path id="ela6c4nchjpdo" fill="#263238" d="M413 205v1c0 1 0 0 0 0v-1c1-1 0 0 0 0Z" class="animable" transform-origin="412.845px 205.475px"/><path id="el5djoy3ed7c5" fill="#263238" d="M413 207h1a1 1 0 0 1 0 1 1 1 0 0 1-1 1 1 1 0 0 1-1-1 1 1 0 0 1 0-1h1a1 1 0 0 0-1 1 1 1 0 0 0 1 0 1 1 0 0 0 1 0 1 1 0 0 0-1-1Z" class="animable" transform-origin="412.888px 207.87px"/><path id="elhhqqxdry87n" fill="#263238" d="M414 210h-1v1-1h1Z" class="animable" transform-origin="413.37px 210.318px"/><path id="el3j77l26p5mr" fill="#263238" d="M414 212c1 0 1 0 0 0l-1 1 1-1Z" class="animable" transform-origin="413.991px 212.184px"/><path id="el56m6mt00un9" fill="#263238" d="m415 215-1-1 1-1v2Z" class="animable" transform-origin="414.683px 213.76px"/><path id="el3pwzs3gtm4" fill="#263238" d="M420 215h-1v-1c0-1 0 0 0 0l1 1Z" class="animable" transform-origin="419.12px 214.743px"/><path id="elaynsdkl1j0p" fill="#263238" d="M421 213v1h-1l1-1c1-1 0 0 0 0Z" class="animable" transform-origin="420.745px 213.562px"/><path id="elkmyxdho9ku" fill="#263238" d="M423 212a1 1 0 0 1 1 1 1 1 0 0 1-1 0 1 1 0 0 1-1 0 1 1 0 0 1 0-1h1v1-1Z" class="animable" transform-origin="422.901px 212.416px"/><path id="el17zautgve57" fill="#263238" d="M424 212v-2 2Z" class="animable" transform-origin="424.246px 210.911px"/><path id="el4cugdb6ru6l" fill="#263238" d="M426 210h-1 1c1 1 0 0 0 0Z" class="animable" transform-origin="425.675px 209.81px"/><path id="el29fon3sp8cq" fill="#263238" d="M427 208c0-1 0 0 0 0a1 1 0 0 1 1 1 1 1 0 0 1-1 0 1 1 0 0 1-1 0l1-1Z" class="animable" transform-origin="427.01px 208.442px"/><path id="ellqllv4ypq2j" fill="#263238" d="M428 207a1 1 0 0 1 0-1v1Z" class="animable" transform-origin="427.939px 206.175px"/><path id="elo7bdggt5r47" fill="#263238" d="M430 205h-1s-1 0 0 0h1Z" class="animable" transform-origin="429.023px 204.91px"/><path id="el1eibvoss1fph" fill="#263238" d="M430 203v1h-1l1-1Z" class="animable" transform-origin="429.86px 203.364px"/><path id="elw4fsnf5wsfo" fill="#263238" d="M431 201s0-1 0 0a1 1 0 0 1 1 0 1 1 0 0 1-1 1 1 1 0 0 1-1-1h1Z" class="animable" transform-origin="431.1px 201.121px"/><path id="elsfpttsw2o0b" fill="#263238" d="M432 198v1h-1l1-1c1 0 0 0 0 0Z" class="animable" transform-origin="431.684px 198.532px"/><path id="eldkrw48d8tlr" fill="#263238" d="M431 198v-1" class="animable" transform-origin="431.185px 197.45px"/><path id="el0slscletco7r" fill="#263238" d="M385 212v-1h1v1h-1Z" class="animable" transform-origin="385.641px 211.456px"/><path id="elwtzhnguj37" fill="#263238" d="M387 213a1 1 0 0 1 0 2 1 1 0 0 1-1-1l1-1v1-1Z" class="animable" transform-origin="386.912px 213.933px"/><path id="ela6m5tk63xgb" fill="#263238" d="M388 217h-1v-1h1v1Z" class="animable" transform-origin="387.585px 216.4px"/><path id="eliegbr6kspu" fill="#263238" d="M389 219h-1v-1l1 1Z" class="animable" transform-origin="388.08px 218.491px"/><path id="elxrd5do49eeg" fill="#263238" d="M389 220v1c0 1 0 0 0 0v-1Z" class="animable" transform-origin="388.86px 220.52px"/><path id="elcdd5fk35szr" fill="#263238" d="M390 221c-1 0 0 0 0 0a1 1 0 0 1 1 1 1 1 0 0 1-1 1 1 1 0 0 1-1 0 1 1 0 0 1 0-1h1-1 1c1 0 0 0 0 0v-1Z" class="animable" transform-origin="389.964px 221.98px"/><path id="el7tl0wu9bo6k" fill="#263238" d="M391 224v1h-1v-1h1Z" class="animable" transform-origin="390.645px 224.31px"/><path id="elhefaonjz4xq" fill="#263238" d="M392 226h-1c-1 0 0 1 0 0h1Z" class="animable" transform-origin="391.175px 226.105px"/><path id="elwiwla267nmh" fill="#263238" d="M402 270h-1v-1h1v1Z" class="animable" transform-origin="401.395px 269.605px"/><path id="elfv2dbspjkk" fill="#263238" d="M403 270h-1v-1h1v1Z" class="animable" transform-origin="402.346px 269.605px"/><path id="eltuur74pk1dc" fill="#263238" d="M404 271a1 1 0 0 1 1 0 1 1 0 0 1-1 1 1 1 0 0 1-1-1h1Z" class="animable" transform-origin="404.094px 271.29px"/><path id="el8wkqpt90pe3" fill="#263238" d="M407 272h-1c0-1 0 0 0 0h1Z" class="animable" transform-origin="406.355px 271.98px"/><path id="el08n0t8cjl3kn" fill="#263238" d="M408 273h-1 1Z" class="animable" transform-origin="407.51px 272.773px"/><path id="el5f4afhnyz7p" fill="#263238" d="M409 274v-1l1 1h-1Z" class="animable" transform-origin="409.279px 273.634px"/><path id="el3ko24kcma7r" fill="#263238" d="M412 274a1 1 0 0 0 0 1v-1a1 1 0 0 1 1 0 1 1 0 0 1-1 1 1 1 0 0 1-1-1h1Z" class="animable" transform-origin="411.983px 274.572px"/><path id="elqmzi2use4c" fill="#263238" d="M414 275v1h-1l1-1c1-1 0 0 0 0Z" class="animable" transform-origin="413.872px 275.595px"/><path id="ela3futunc4h" fill="#263238" d="M416 276v1h-1l1-1c1 0 0 0 0 0Z" class="animable" transform-origin="415.604px 276.54px"/><path id="eli982kvcn25j" fill="#263238" d="M418 278h-1v-1l1 1c0 1 0 0 0 0Z" class="animable" transform-origin="417.383px 277.751px"/><path id="elp4iafpexar" fill="#263238" d="M419 277h1a1 1 0 0 1 0 1 1 1 0 0 1-1 0 1 1 0 0 1 0-1 1 1 0 0 0 0 1v-1c-1 0 0 0 0 0Z" class="animable" transform-origin="419.448px 277.619px"/><path id="elwnwzn3lg6b" fill="#263238" d="M421 276h-1v-1h1v1Z" class="animable" transform-origin="420.269px 275.5px"/><path id="elnaklyq83l4" fill="#263238" d="M421 275v-1 1Z" class="animable" transform-origin="420.931px 274.425px"/><path id="elgo6rravlgvb" fill="#263238" d="M422 273v-1a1 1 0 0 1 1 1 1 1 0 0 1-1 0v-1a1 1 0 0 1 0 1Z" class="animable" transform-origin="422.147px 272.826px"/><path id="el9iuwh8ivr37" fill="#263238" d="M424 274h-1l1-1v1Z" class="animable" transform-origin="423.67px 273.814px"/><path id="elpqsrmos8cnn" fill="#263238" d="M424 275v-1l1 1h-1Z" class="animable" transform-origin="424.468px 274.618px"/><path id="el3rxh2u4hnd7" fill="#263238" d="M425 276Z" class="animable" transform-origin="424.949px 276.025px"/><path id="ellkb36xjny7m" fill="#263238" d="M426 277h1a1 1 0 0 1 0 1 1 1 0 0 1-1 0 1 1 0 0 1 0-1v1l1-1h-1Z" class="animable" transform-origin="426.447px 277.497px"/><path id="elfca5o82zna9" fill="#263238" d="m427 279 1-1v1h-1Z" class="animable" transform-origin="427.48px 278.795px"/><path id="el72fmv9ouhqc" fill="#263238" d="M429 278h-1 1Z" class="animable" transform-origin="428.875px 277.977px"/><path id="elud9zkxjpo5c" fill="#263238" d="M430 278v-1 1Z" class="animable" transform-origin="430.081px 277.38px"/><path id="el5hw10gulwy" fill="#263238" d="M431 277v-1c0-1 0 0 0 0h1l-1 1Z" class="animable" transform-origin="431.47px 276.3px"/><path id="elb83z8yz1ali" fill="#263238" d="M433 275a1 1 0 0 1 0 1 1 1 0 0 1-1-1h1l-1 1h1a1 1 0 0 0 0-1Z" class="animable" transform-origin="432.659px 275.636px"/><path id="el1ptbmuunp6d" fill="#263238" d="M435 274h-1 1c1 0 0 0 0 0Z" class="animable" transform-origin="434.771px 274.155px"/><path id="el89tru4nad58" fill="#263238" d="M437 274h-1l-1-1h1l1 1Z" class="animable" transform-origin="435.99px 273.448px"/><path id="elm3gmvtb2xf" fill="#263238" d="M437 273v-1l1 1h-1Z" class="animable" transform-origin="437.411px 272.639px"/><path id="ela20w5nverhq" fill="#263238" d="M439 271a1 1 0 0 1 0 1 1 1 0 0 1-1 0 1 1 0 0 1 0-1h1v1-1Z" class="animable" transform-origin="438.837px 271.549px"/><path id="elb6jdx2d3kb" fill="#263238" d="M440 271v-1l1 1h-1Z" class="animable" transform-origin="440.333px 270.742px"/><path id="ellelewva1v1g" fill="#263238" d="M442 270v-1 1Z" class="animable" transform-origin="441.77px 269.548px"/><path id="eln1u9aivne89" fill="#263238" d="M444 269h-1v-1c0-1 0 0 0 0l1 1Z" class="animable" transform-origin="443.219px 268.475px"/><path id="el7d6mu8999wp" fill="#263238" d="M445 268h-1l1-1v1Z" class="animable" transform-origin="444.73px 267.685px"/><path id="elh0gvum5d1be" fill="#263238" d="M446 267v-1 1Z" class="animable" transform-origin="445.96px 266.525px"/><path id="elzzx40tmw26q" fill="#407bff" d="m432 214-7 6 16 16 5-18c2-6-14-4-14-4Z" class="animable" transform-origin="435.73px 224.893px"/><path id="elx9mo3d0p95p" fill="#263238" d="M429 221v-1c0-1 0 0 0 0v1Z" class="animable" transform-origin="428.84px 220.305px"/><path id="eljvmiz2e95c" fill="#263238" d="M430 221v1l-1-1h1Z" class="animable" transform-origin="429.885px 221.31px"/><path id="el6h2cc8ucr95" fill="#263238" d="M431 224v-2 2Z" class="animable" transform-origin="431px 222.976px"/><path id="el3lm50a4iqvs" fill="#263238" d="M432 224h1a1 1 0 0 1-1 1 1 1 0 0 1 0-1 1 1 0 0 1 1 0 1 1 0 0 0-1 0h1c1-1 0 0 0 0h-1Z" class="animable" transform-origin="432.548px 224.275px"/><path id="el9edwiqcx0sc" fill="#263238" d="M434 226Z" class="animable" transform-origin="434.053px 226.03px"/><path id="el4vt9yakpegt" fill="#263238" d="m435 226 1 1-1 1v-2Z" class="animable" transform-origin="435.265px 226.995px"/><path id="el6skvf1fc1ap" fill="#263238" d="M437 228h-1c-1 0 0 0 0 0h1Z" class="animable" transform-origin="436.374px 228.069px"/><path id="elxsm04rctgw" fill="#263238" d="M438 229a1 1 0 0 1 1 0 1 1 0 0 1-1 1 1 1 0 0 1-1 0 1 1 0 0 1 0-1h1v1-1Z" class="animable" transform-origin="438.002px 229.415px"/><path id="el5mix0o383kw" fill="#263238" d="M439 232v-1c0-1 0 0 0 0h1l-1 1Z" class="animable" transform-origin="439.33px 231.455px"/><path id="el6zutxf9usv" fill="#263238" d="M437 207a9 9 0 0 1-2 2l-4 5-4 4a14 14 0 0 1-2 2 13 13 0 0 1 2-2l4-5 4-4a18 18 0 0 1 2-2Z" class="animable" transform-origin="431.17px 213.55px"/><path id="elmfcvucv7j3b" fill="#263238" d="m448 267-1-1h1v1Z" class="animable" transform-origin="447.6px 266.595px"/><path id="el94rqrcarlwh" fill="#263238" d="M449 266v-1l1 1h-1v-1 1Z" class="animable" transform-origin="449.177px 265.756px"/><path id="elrsu567z85dl" fill="#ffbe9d" d="M364 230c-1-2-8-6-7-7 2-1 7 5 8 5l1-1c-1 0-9-6-7-7h2l7 6-4-6-1-2 6 4c1 1 5 5 5 2v-7a1 1 0 0 1 2 1 1 1 0 0 1 0 1 16 16 0 0 0 0 3 8 8 0 0 0 1 3l2 2c4 3 18 10 32 11 3 0 15-16 15-16l13 12-11 15c-14 19-57-12-57-12l-1-1a96 96 0 0 1-9-5l-3-3c1-1 6 4 6 2Z" class="animable" transform-origin="397.81px 235.987px"/></g><defs><filter id="active" height="200%"><feMorphology in="SourceAlpha" operator="dilate" radius="2" result="DILATED"/><feFlood flood-color="#32DFEC" flood-opacity="1" result="PINK"/><feComposite in="PINK" in2="DILATED" operator="in" result="OUTLINE"/><feMerge><feMergeNode in="OUTLINE"/><feMergeNode in="SourceGraphic"/></feMerge></filter><filter id="hover" height="200%"><feMorphology in="SourceAlpha" operator="dilate" radius="2" result="DILATED"/><feFlood flood-color="red" flood-opacity="0.5" result="PINK"/><feComposite in="PINK" in2="DILATED" operator="in" result="OUTLINE"/><feMerge><feMergeNode in="OUTLINE"/><feMergeNode in="SourceGraphic"/></feMerge><feColorMatrix values="0 0 0 0 0 0 1 0 0 0 0 0 0 0 0 0 0 0 1 0"/></filter></defs></svg>