<svg xmlns="http://www.w3.org/2000/svg" id="freepik_stories-fast-loading" class="animated" version="1.1" viewBox="0 0 500 500"><style>@keyframes shake{10%,90%{transform:translate3d(-1px,0,0)}20%,80%{transform:translate3d(2px,0,0)}30%,50%,70%{transform:translate3d(-4px,0,0)}40%,60%{transform:translate3d(4px,0,0)}}svg#freepik_stories-fast-loading:not(.animated) .animable{opacity:0}</style><g id="freepik--background-complete--inject-1" class="animable"><path id="elfu5cnekzmpc" fill="#ebebeb" d="M0 382h500H0z" class="animable" transform-origin="250px 382.525px"/><path id="el6pyrgk1hrjm" fill="#ebebeb" d="M359 392h91-91z" class="animable" transform-origin="404.45px 392.045px"/><path id="eleobdap8a3zv" fill="#ebebeb" d="M306 389h25-25z" class="animable" transform-origin="318.775px 389.335px"/><path id="elwauzww4kgld" fill="#ebebeb" d="M350 401h39-39z" class="animable" transform-origin="368.815px 401.335px"/><path id="el53chjap2fyy" fill="#ebebeb" d="M52 400h23-23z" class="animable" transform-origin="63.78px 399.655px"/><path id="elqxwm8k2btdt" fill="#ebebeb" d="M84 400h27-27z" class="animable" transform-origin="97.445px 399.655px"/><path id="el65ba1clsrff" fill="#ebebeb" d="M178 395h47-47z" class="animable" transform-origin="201.73px 395.435px"/><path id="eliqkzo5ds73" fill="#ebebeb" d="M237 338H44a6 6 0 0 1-6-6V61a6 6 0 0 1 6-6h193a6 6 0 0 1 6 6v271a6 6 0 0 1-6 6ZM44 55a5 5 0 0 0-6 6v271a5 5 0 0 0 6 6h193a5 5 0 0 0 5-6V61a5 5 0 0 0-5-6Z" class="animable" transform-origin="140.46px 196.4px"/><path id="elwvjav3ubg0d" fill="#ebebeb" d="M453 338H260a6 6 0 0 1-6-6V61a6 6 0 0 1 6-6h193a6 6 0 0 1 6 6v271a6 6 0 0 1-6 6ZM260 55a5 5 0 0 0-5 6v271a5 5 0 0 0 5 6h193a5 5 0 0 0 6-6V61a5 5 0 0 0-6-6Z" class="animable" transform-origin="356.75px 196.4px"/><path id="elrtob3xtfexn" fill="#e6e6e6" d="M316 80h105v117H316z" class="animable" transform="rotate(180)" transform-origin="368.955px 138.09px"/><path id="elg32rq67vgmc" fill="#f5f5f5" d="M294 80h123v117H294z" class="animable" transform="rotate(180)" transform-origin="355.31px 138.09px"/><path id="el8e2an7fpbov" fill="#fff" d="M305 89h102v98H305z" class="animable" transform="rotate(90)" transform-origin="355.31px 138.09px"/><path id="eloo0smkyhpfa" fill="#f5f5f5" d="M303 137h104v1H303z" class="animable" transform="rotate(90)" transform-origin="355.31px 138.09px"/><path id="elg7u36ul8mp8" fill="#e6e6e6" d="M81 86h134v270H81z" class="animable" transform="rotate(180)" transform-origin="148.13px 221.58px"/><path id="eluvgx9ueikup" fill="#f0f0f0" d="M72 86h141v270H72z" class="animable" transform="rotate(180)" transform-origin="142.24px 221.58px"/><path id="elin5e2mxqru8" fill="#fff" d="M19 163h247v117H19z" class="animable" transform="rotate(90)" transform-origin="142.24px 221.585px"/><path id="elcjdcl3z8h8" fill="#fafafa" d="m128 345 23-247h-27l-23 247h27z" class="animable" transform-origin="126.05px 221.585px"/><path id="elhply4y1xudl" fill="#fafafa" d="m149 345 23-247h-14l-23 247h14z" class="animable" transform-origin="153.425px 221.585px"/><path id="el6af4kkie6qi" fill="#e6e6e6" d="M266 277h25v106h-25z" class="animable" transform="rotate(180)" transform-origin="278.385px 329.455px"/><path id="eljiw1t0worg" fill="#fafafa" d="M280 382h-14v-14h30l-16 14z" class="animable" transform-origin="280.785px 375.09px"/><path id="elyzt1khu8dtf" fill="#e6e6e6" d="M415 277h25v106h-25z" class="animable" transform="rotate(180)" transform-origin="427.195px 329.455px"/><path id="elo1jzdj7jfcg" fill="#fafafa" d="M266 277h162v101H266z" class="animable" transform="rotate(180)" transform-origin="346.625px 326.94px"/><path id="ellnglpww4fj" fill="#fafafa" d="M413 382h14v-14h-29l15 14z" class="animable" transform-origin="412.46px 375.09px"/><path id="elg0moxg9s4bn" fill="#f0f0f0" d="M277 314h139v25H277z" class="animable" transform="rotate(180)" transform-origin="346.62px 326.71px"/><path id="el4qg3az195sf" fill="#f0f0f0" d="M277 345h139v25H277z" class="animable" transform="rotate(180)" transform-origin="346.62px 357.35px"/><path id="elcdv2qjrobwg" fill="#fafafa" d="M304 312h86a5 5 0 0 1 4 4v1h-95v-1a5 5 0 0 1 5-4Z" class="animable" transform="rotate(180)" transform-origin="346.63px 314.345px"/><path id="elt55apl5z9gh" fill="#f0f0f0" d="M277 283h139v25H277z" class="animable" transform="rotate(180)" transform-origin="346.62px 296.08px"/><path id="elyt9bssoqovf" fill="#fafafa" d="M304 281h86a5 5 0 0 1 4 5h-95a5 5 0 0 1 5-5Z" class="animable" transform="rotate(180)" transform-origin="346.63px 283.715px"/><path id="el4u2zhduzq2d" fill="#fafafa" d="M304 343h86a5 5 0 0 1 4 4h-95a5 5 0 0 1 5-4Z" class="animable" transform="rotate(180)" transform-origin="346.63px 344.985px"/><path id="elbldlzz5fsva" fill="#f5f5f5" d="M292 229h5v46h-5z" class="animable" transform="rotate(180)" transform-origin="294.8px 251.83px"/><path id="elid2mp5l3a3k" fill="#fafafa" d="M293 229h1v46h-1z" class="animable" transform="rotate(180)" transform-origin="293.665px 251.79px"/><path id="elaf9fnh6jr4w" fill="#f0f0f0" d="M284 277h22a3 3 0 0 0-3-3h-16a3 3 0 0 0-3 3Z" class="animable" transform-origin="294.795px 275.135px"/><path id="el9u49c2dhqfk" fill="#f0f0f0" d="M285 261a1 1 0 0 0 2-1v-25a1 1 0 0 0-2-2 1 1 0 0 0-1 2v25a1 1 0 0 0 1 1Z" class="animable" transform-origin="285.335px 247.38px"/><path id="elb0frc2x5dvh" fill="#e0e0e0" d="M273 241h44l-2-4a15 15 0 0 0-13-10h-14a15 15 0 0 0-14 10Z" class="animable" transform-origin="294.8px 234.025px"/><path id="elneaxcrte5br" fill="#f5f5f5" d="M405 229h5v46h-5z" class="animable" transform="rotate(180)" transform-origin="407.87px 251.83px"/><path id="elomfl6h796t" fill="#fafafa" d="M406 229h1v46h-1z" class="animable" transform="rotate(180)" transform-origin="406.725px 251.79px"/><path id="el84yb206ad55" fill="#f0f0f0" d="M397 277h22a3 3 0 0 0-3-3h-16a3 3 0 0 0-3 3Z" class="animable" transform-origin="407.875px 275.135px"/><path id="elezliqqc0mn" fill="#f0f0f0" d="M398 261a1 1 0 0 0 2-1v-25a1 1 0 0 0-2-2 1 1 0 0 0-1 2v25a1 1 0 0 0 1 1Z" class="animable" transform-origin="398.4px 247.38px"/><path id="el8mwmy3d0bm7" fill="#e0e0e0" d="M386 241h44l-2-4a15 15 0 0 0-13-10h-14a15 15 0 0 0-14 10Z" class="animable" transform-origin="407.88px 234.025px"/></g><g id="freepik--Shadow--inject-1" class="animable"><ellipse id="freepik--path--inject-1" cx="250" cy="416.24" fill="#f5f5f5" class="animable" rx="193.89" ry="11.32" transform-origin="250px 416.24px"/></g><g id="freepik--Speedometer--inject-1" class="animable"><path id="elqq87wddnazg" fill="#263238" d="m167 114-1-1a166 166 0 0 1 14-10v1a164 164 0 0 0-13 10Z" class="animable" transform-origin="173.025px 108.55px"/><path id="elf17uanity2e" fill="#263238" d="M159 120h-1l5-4v1l-4 3Z" class="animable" transform-origin="160.84px 118.085px"/><ellipse id="elxjyfcl3u0aq" cx="216.41" cy="181.2" fill="#263238" class="animable" rx="115.24" ry="81.19" transform="rotate(-41)" transform-origin="216.41px 181.2px"/><ellipse id="elay1oy3nlnr7" cx="216.41" cy="181.2" fill="#fff" class="animable" rx="99.97" ry="70.43" transform="rotate(-41)" transform-origin="216.41px 181.2px"/><path id="elrm6owrt39m" fill="#407bff" d="M237 104c-43 3-88 41-99 84l157-13c11-43-15-75-58-71Z" class="animable" transform-origin="217.765px 145.588px"/><path id="elp3socnchpjo" fill="#fff" d="m138 188 78-7-40-50c-18 15-32 35-38 57Z" class="animable" opacity=".7" transform-origin="177.195px 159.275px"/><path id="elbsmkpv26y4" fill="#fff" d="M237 104c-21 2-43 12-61 27l40 50 21-77Z" class="animable" opacity=".4" transform-origin="206.4px 142.545px"/><path id="ely335om8b3yp" fill="#fff" d="m237 104-21 77 71-59c-11-13-28-20-50-18Z" class="animable" opacity=".1" transform-origin="251.455px 142.413px"/><ellipse id="elad0mfj2eyxe" cx="216.41" cy="181.2" fill="#fff" class="animable" rx="40.79" ry="28.73" transform="rotate(-41)" transform-origin="216.41px 181.2px"/><ellipse id="el54ovw5nvplf" cx="216.41" cy="181.2" fill="#263238" class="animable" rx="23.8" ry="16.77" transform="rotate(-41)" transform-origin="216.41px 181.2px"/><path id="elzh6jemqhu7p" fill="#263238" d="M275 140a236 236 0 0 0-53 28l8 13a258 258 0 0 0 45-41Z" class="animable" transform-origin="248.765px 160.4px"/><path id="elr7hlyt3ay3d" fill="#407bff" d="M147 217a2 2 0 0 1-2-2 3 3 0 0 1 3-2l86-7a2 2 0 0 1 2 2 3 3 0 0 1-3 2l-86 7Z" class="animable" transform-origin="190.576px 211.637px"/><path id="el0hycw5wqtbwi" fill="#407bff" d="M222 225a2 2 0 0 1-2-2 3 3 0 0 1 2-2l28-2a2 2 0 0 1 2 2 3 3 0 0 1-2 2l-28 2Z" class="animable" transform-origin="236.034px 222.142px"/><path id="elx4qo3fqhr8r" fill="#407bff" d="M79 261a2 2 0 0 1-1-2 3 3 0 0 1 2-2l28-2a2 2 0 0 1 2 2 3 3 0 0 1-3 2l-28 2Z" class="animable" transform-origin="93.6543px 257.963px"/><path id="ele4o91vxuy9o" fill="#407bff" d="M104 245a2 2 0 0 1-1-2 3 3 0 0 1 2-2l84-7a2 2 0 0 1 2 2 3 3 0 0 1-3 2l-84 7Z" class="animable" transform-origin="146.578px 239.373px"/></g><g id="freepik--Character--inject-1" class="animable animator-active" style="animation:1.5s Infinite linear shake;animation-delay:0s"><path id="elgq2qv72w3lt" fill="#ff8b7b" d="m284 335 4 7 18-7-4-7-18 7z" class="animable" transform-origin="294.975px 334.94px"/><path id="elrp0lc1v4zgd" fill="#ff8b7b" d="m199 394 5 6 14-16-7-4-12 14z" class="animable" transform-origin="208.245px 389.615px"/><path id="elx5858qn4hfl" fill="#263238" d="m205 399-3-9a1 1 0 0 0-1 0l-7 1a1 1 0 0 0-1 2l4 8 4 13c1 3 5 2 5 0-1-6-2-11-1-14a2 2 0 0 0 0-1Z" class="animable" transform-origin="199.237px 402.606px"/><path id="ellgsk5ul5ak" fill="#263238" d="m289 341-4-8a1 1 0 0 0-1 0l-7 2a1 1 0 0 0-1 1l6 11 4 9c2 3 5 2 5 1-2-6-3-7-2-14a4 4 0 0 0 0-2Z" class="animable" transform-origin="283.496px 345.535px"/><path id="ele0987h4os4u" fill="#ff8b7b" d="m358 205-1 8-1 9a116 116 0 0 0 0 16v3a3 3 0 0 0 2 3 11 11 0 0 0 2 1 34 34 0 0 0 8 0l4-1h4l2 6a44 44 0 0 1-4 1 43 43 0 0 1-5 2 40 40 0 0 1-4 1 28 28 0 0 1-5 0 20 20 0 0 1-6-1 14 14 0 0 1-5-3 13 13 0 0 1-4-7v-2l-1-2a103 103 0 0 1 0-18l1-9 1-9Z" class="animable" transform-origin="360.827px 228.559px"/><path id="ele8y5bcjgh7d" fill="#407bff" d="M345 198c-5 6-3 20-3 20l15 2s3-8 2-16c-2-10-8-12-14-6Z" class="animable" transform-origin="350.444px 207.237px"/><path id="elwrnipx9tzni" d="M350 204c-2-3-5-4-6-4-4 7-2 18-2 18l10 1c2-3 2-10-2-15Z" class="animable" opacity=".2" transform-origin="347.43px 209.757px"/><path id="elvvweekgm8xc" fill="#ff8b7b" d="m374 245 9-6 1 9s-5 5-9 1Z" class="animable" transform-origin="379.175px 244.995px"/><path id="elju83phypjim" fill="#ff8b7b" d="m388 237 1 8-5 3-1-9 5-2z" class="animable" transform-origin="385.635px 242.58px"/><path id="ellafgi7s0k7" d="m306 335-10 4-3-8 9-3 4 7z" class="animable" opacity=".2" transform-origin="299.235px 333.41px"/><path id="elb29hmavdybn" d="m211 380 7 4-7 7-6-4 6-7z" class="animable" opacity=".2" transform-origin="211.235px 385.51px"/><path id="eldtr9j6aj9jj" fill="#407bff" d="M315 179c-6 31-23 59-25 65l40 17c22-33 25-57 26-63a2 2 0 0 0-1-2 129 129 0 0 0-9-6 159 159 0 0 0-17-7 79 79 0 0 0-7-2l-7-2Z" class="animable" transform-origin="323.109px 219.66px"/><path id="eltb0nqww79p" fill="#fff" d="m339 223 2 1a13 13 0 0 1-5 3 12 12 0 0 1-7 0 10 10 0 0 1-5-3 7 7 0 0 1-2-5 15 15 0 0 1 2-6 21 21 0 0 1 4-6 15 15 0 0 1 6-3 12 12 0 0 1 7-1 7 7 0 0 1 4 3 6 6 0 0 1 1 4 12 12 0 0 1-1 5 14 14 0 0 1-5 5c-2 2-5 3-7 2a2 2 0 0 1-1-1 2 2 0 0 1 0-1 5 5 0 0 1-3 1 3 3 0 0 1-2-2 6 6 0 0 1 0-4 14 14 0 0 1 4-5l6-2a2 2 0 0 1 2 2l1-1 3 1-6 8a10 10 0 0 0-1 1 1 1 0 0 0 0 1 3 3 0 0 0 2-1 10 10 0 0 0 3-2 11 11 0 0 0 2-3 7 7 0 0 0 1-5l-4-3a10 10 0 0 0-6 0 12 12 0 0 0-5 3 19 19 0 0 0-3 5 11 11 0 0 0-2 5 5 5 0 0 0 2 3 9 9 0 0 0 4 3 11 11 0 0 0 5 0 10 10 0 0 0 4-2Zm-9-8a4 4 0 0 0-1 3 1 1 0 0 0 1 1 2 2 0 0 0 2 0 5 5 0 0 0 1-1 10 10 0 0 0 2-2 13 13 0 0 0 2-2 4 4 0 0 0 0-3 1 1 0 0 0-1-1 3 3 0 0 0-2 1 8 8 0 0 0-2 2 15 15 0 0 0-2 2Z" class="animable" transform-origin="334.032px 215.13px"/><path id="elvg0fkvfi41o" fill="#ff8b7b" d="M338 164c-1 6-4 17-9 19 1 4 4 9 10 12s7-2 7-5c-6-4-4-9-1-12Z" class="animable" transform-origin="337.256px 180.06px"/><path id="el1qwmcre9g1r" d="m341 170 4 8a18 18 0 0 0-2 2c-2-1-4-5-3-7a9 9 0 0 1 1-3Z" class="animable" opacity=".2" transform-origin="342.216px 175.085px"/><path id="elj061c0d7qeh" fill="#263238" d="M354 165c7 0 12-16 3-17-6-2-6 2-7 6s0 10 4 11Z" class="animable" transform-origin="355.882px 156.055px"/><path id="el3ae1dj8qqwb" fill="#ff8b7b" d="M339 157c-2 8-3 12 0 17 4 8 14 7 18-1 4-6 6-18-1-23a11 11 0 0 0-17 7Z" class="animable" transform-origin="348.957px 163.607px"/><path id="elts4zfemj7g8" fill="#263238" d="M338 162c6 1 10-14 1-15-6-2-7 2-7 6 1 4 2 9 6 9Z" class="animable" transform-origin="338.34px 154.378px"/><path id="el7bcm4unk86" fill="#263238" d="M343 151c4 2 24 7 23-2s-12-13-12-13 6 7 1 5l-13-4s6 6-1 4a17 17 0 0 0-12 2 12 12 0 0 1 5 11c0 8 9-3 9-3Z" class="animable" transform-origin="347.649px 146.696px"/><path id="elcnw3xs93cn7" fill="#ff8b7b" d="M334 163a7 7 0 0 0 3 4c2 2 3 0 4-2 0-2-1-6-3-6s-4 1-4 4Z" class="animable" transform-origin="337.246px 163.274px"/><path id="elpsai2vwgey" fill="#263238" d="m304 250-8 27 43 27c-8 12-46 24-46 24l6 13s53-4 64-28c10-22-33-52-33-52Z" class="animable" transform-origin="328.768px 295.16px"/><path id="eliqrp7lg9wta" d="m309 285-7-4 9-14s0 11-2 18Z" class="animable" opacity=".2" transform-origin="306.616px 276.375px"/><path id="elppggo5mx3jm" d="m309 285-7-4 9-14s0 11-2 18Z" class="animable" opacity=".2" transform-origin="306.616px 276.375px"/><path id="elswhgpdrweu8" fill="#263238" d="M321 257s-35 57-49 76c-16 20-57 59-57 59l-12-8s35-39 49-60c15-25 38-80 38-80Z" class="animable" transform-origin="261.955px 318.035px"/><path id="elm5h4o8pf2o" fill="#407bff" d="m217 393-14-10 2-4 17 11-5 3z" class="animable" transform-origin="212.015px 386.215px"/><path id="elxrr40xn3wso" fill="#407bff" d="m300 342-7-14 4-3 9 16-6 1z" class="animable" transform-origin="299.245px 333.765px"/><path id="elrwk5j02wk6f" fill="#263238" d="M350 162v1l2-1c1-1 0-1-1-1l-1 1Z" class="animable" transform-origin="350.81px 162.26px"/><path id="elhh7ueixj10e" fill="#263238" d="m357 164 1 1 1-1c1-1 0-1-1-1l-1 1Z" class="animable" transform-origin="357.87px 164.2px"/><path id="elyeptbur3ujj" fill="#ff5652" d="M355 164a23 23 0 0 0 1 6 4 4 0 0 1-3 0Z" class="animable" transform-origin="354.76px 166.875px"/><path id="elpiic24qihp" fill="#263238" d="M350 171a5 5 0 0 1-3-3v-1a5 5 0 0 0 4 3v1a6 6 0 0 1-1 0Z" class="animable" transform-origin="349.116px 169.041px"/><path id="elev77y6jr11d" fill="#263238" d="M349 159h-1a4 4 0 0 1 4-1v1a3 3 0 0 0-3 0Z" class="animable" transform-origin="350.18px 158.455px"/><path id="elxlnaex4hezl" fill="#263238" d="M361 162a3 3 0 0 0-2-2v-1a4 4 0 0 1 2 3Z" class="animable" transform-origin="360.043px 160.775px"/><path id="el3kzdv0njvx" fill="#407bff" d="M205 402a9 9 0 0 1 0-2s3 2 2 3a1 1 0 0 1-1 0 2 2 0 0 1-1-1Zm0-2 1 3a1 1 0 0 0 1 0l-2-3Z" class="animable" transform-origin="205.98px 401.592px"/><path id="elrz25aazsgze" fill="#407bff" d="m205 400 3-1a1 1 0 0 1 0 1h1a1 1 0 0 1-1 1l-3-1Zm3 0a4 4 0 0 0-3 0l3 1v-1Z" class="animable" transform-origin="206.536px 400.189px"/><path id="elfshqx3zoacj" fill="#407bff" d="m288 342 4 4a1 1 0 0 1-1 0 1 1 0 0 1-1 0l-2-4Zm3 4-2-3 1 3a1 1 0 0 0 1 0Z" class="animable" transform-origin="289.85px 344.35px"/><path id="elo4x7juju3yq" fill="#407bff" d="M288 342h4a1 1 0 0 1 0 1v1l-4-1v-1Zm4 1a1 1 0 0 0-1-1 4 4 0 0 0-2 0c1 1 2 2 3 1Zm0 0Z" class="animable" transform-origin="290.257px 342.806px"/><path id="eldebhq1hiy3h" fill="#ff8b7b" d="m315 192-3-2-3-2a158 158 0 0 0-18-9h-2v-1a9 9 0 0 0-3 1 28 28 0 0 0-3 0 75 75 0 0 0-7 3l-15 7-3-5a108 108 0 0 1 14-10 70 70 0 0 1 7-4 38 38 0 0 1 5-2 18 18 0 0 1 6 0 14 14 0 0 1 1 0h2l2 1 4 1a77 77 0 0 1 8 3 97 97 0 0 1 15 10Z" class="animable" transform-origin="290.01px 179.918px"/><path id="elmplye1szqso" fill="#407bff" d="M327 184c-2-5-18-11-18-11l-6 15 11 6c9 6 16-2 13-10Z" class="animable" transform-origin="315.476px 184.862px"/><path id="elk234drohsbj" fill="#ff8b7b" d="m263 187-4 7-5-6s4-7 7-4Z" class="animable" transform-origin="258.42px 188.634px"/><path id="elpyuf7hjam" fill="#ff8b7b" d="m252 197-2-6 4-3 5 6-7 3z" class="animable" transform-origin="254.425px 192.085px"/></g><defs><filter id="active" height="200%"><feMorphology in="SourceAlpha" operator="dilate" radius="2" result="DILATED"/><feFlood flood-color="#32DFEC" flood-opacity="1" result="PINK"/><feComposite in="PINK" in2="DILATED" operator="in" result="OUTLINE"/><feMerge><feMergeNode in="OUTLINE"/><feMergeNode in="SourceGraphic"/></feMerge></filter><filter id="hover" height="200%"><feMorphology in="SourceAlpha" operator="dilate" radius="2" result="DILATED"/><feFlood flood-color="red" flood-opacity="0.5" result="PINK"/><feComposite in="PINK" in2="DILATED" operator="in" result="OUTLINE"/><feMerge><feMergeNode in="OUTLINE"/><feMergeNode in="SourceGraphic"/></feMerge><feColorMatrix values="0 0 0 0 0 0 1 0 0 0 0 0 0 0 0 0 0 0 1 0"/></filter></defs></svg>